<mxfile host="app.diagrams.net" modified="2023-04-26T09:41:31.464Z" agent="Mozilla/5.0 (Windows NT 10.0; Win64; x64) AppleWebKit/537.36 (KHTML, like Gecko) Chrome/112.0.0.0 Safari/537.36 Edg/112.0.1722.58" etag="Zc8UBpcUE6K9tBAfX3wA" version="21.2.2" type="device">
  <diagram id="C5RBs43oDa-KdzZeNtuy" name="Page-1">
    <mxGraphModel dx="775" dy="490" grid="1" gridSize="10" guides="1" tooltips="1" connect="1" arrows="1" fold="1" page="1" pageScale="1" pageWidth="827" pageHeight="1169" math="0" shadow="0">
      <root>
        <mxCell id="WIyWlLk6GJQsqaUBKTNV-0" />
        <mxCell id="WIyWlLk6GJQsqaUBKTNV-1" parent="WIyWlLk6GJQsqaUBKTNV-0" />
        <mxCell id="J-DglnEptn8F5ZBjVxyF-10" value="" style="shape=image;verticalLabelPosition=bottom;labelBackgroundColor=default;verticalAlign=top;aspect=fixed;imageAspect=0;image=data:image/jpeg,/9j/2wBDAAcFBQYFBAcGBQYIBwcIChELCgkJChUPEAwRGBUaGRgVGBcbHichGx0lHRcYIi4iJSgpKywrGiAvMy8qMicqKyr/2wBDAQcICAoJChQLCxQqHBgcKioqKioqKioqKioqKioqKioqKioqKioqKioqKioqKioqKioqKioqKioqKioqKioqKir/wAARCAH/AwQDASIAAhEBAxEB/8QAHAAAAwADAQEBAAAAAAAAAAAAAAIGAwQFBwEI/8QAWxAAAgECBAIFBwcJAwgIBQIHAQIDAAQFBhESFCEHEzFysSIyM0FRkpUVFzZCdbPSIzRGU2Fxk9HUFkRUJDVDRVKBkdMlN1Zic5SWoSZjdIXBg7LDxGSEgqKj/8QAFwEBAQEBAAAAAAAAAAAAAAAAAAECA//EACsRAQABAwIFBQEBAAMBAQAAAAABESHwMUFRYaHR4QJxgZGxwfESIjJSkv/aAAwDAQACEQMRAD8A/R7MNtDMNtDMNtDMNtAMw20s7Dh5O6fClubmG2tZZ7mVIYYkLySSNtVFA1JJPIAD11xJs85TMEgGZ8GJKn+/xezvUHfZhtoZhtrhNnnKW36UYN8Qi/FQ2ecpbfpRg3xCL8VB3WYbaWdhw8ndPhXEbPOUtv0owb4hF+KlmzzlMwSAZnwYkqf7/F7O9Qd9mG2hmG2uE2ecpbfpRg3xCL8VDZ5ylt+lGDfEIvxUHdZhtpZ2HDyd0+FcRs85S2/SjBviEX4qWbPOUzBIBmfBiSp/v8Xs71B32YbaGYba4TZ5ylt+lGDfEIvxUNnnKW36UYN8Qi/FQd1mG2lnYcPJ3T4VxGzzlLb9KMG+IRfipZs85TMEgGZ8GJKn+/xezvUHfZhtoZhtrhNnnKW36UYN8Qi/FQ2ecpbfpRg3xCL8VB3WYbaWdhw8ndPhXEbPOUtv0owb4hF+Ku3Ow4eTunwoGZhtoZhtoZhtoZhtoBmG2lnYcPJ3T4UzMNtLOw4eTunwoGZhtoZhtoZhtoZhtoBmG2lnYcPJ3T4Utzcw21rLPcypDDEheSSRtqooGpJJ5AAeuuJNnnKZgkAzPgxJU/3+L2d6g77MNtDMNtcJs85S2/SjBviEX4qGzzlLb9KMG+IRfioO6zDbSzsOHk7p8K4jZ5ylt+lGDfEIvxUs2ecpmCQDM+DElT/f4vZ3qDvsw20Mw21wmzzlLb9KMG+IRfiobPOUtv0owb4hF+Kg7rMNtLOw4eTunwriNnnKW36UYN8Qi/FSzZ5ymYJAMz4MSVP9/i9neoO+zDbQzDbXCbPOUtv0owb4hF+Khs85S2/SjBviEX4qDusw20s7Dh5O6fCuI2ecpbfpRg3xCL8VLNnnKZgkAzPgxJU/3+L2d6g77MNtDMNtcJs85S2/SjBviEX4qGzzlLb9KMG+IRfioO6zDbSzsOHk7p8K4jZ5ylt+lGDfEIvxV252HDyd0+FAzMNtDMNtDMNtDMNtAMw20s7Dh5O6fCmZhtpZ2HDyd0+FAzMNtDMNtDMNtDMNtAMw20s7Dh5O6fClubmG2tZZ7mVIYYkLySSNtVFA1JJPIAD11xJs85TMEgGZ8GJKn+/xezvUHfZhtoZhtrhNnnKW36UYN8Qi/FQ2ecpbfpRg3xCL8VB3WYbaWdhw8ndPhXEbPOUtv0owb4hF+KlmzzlMwSAZnwYkqf7/ABezvUHfZhtoZhtrhNnnKW36UYN8Qi/FQ2ecpbfpRg3xCL8VB3WYbaWdhw8ndPhXEbPOUtv0owb4hF+KlmzzlMwSAZnwYkqf7/F7O9Qd9mG2hmG2uE2ecpbfpRg3xCL8VDZ5ylt+lGDfEIvxUHdZhtpZ2HDyd0+FcRs85S2/SjBviEX4qWbPOUzBIBmfBiSp/v8AF7O9Qd9mG2hmG2uE2ecpbfpRg3xCL8VDZ5ylt+lGDfEIvxUHdZhtpZ2HDyd0+FcRs85S2/SjBviEX4q7c7Dh5O6fCgZmG2hmG2hmG2hmG2gGYbaWdhw8ndPhTMw20s7Dh5O6fCgZmG2hmG2hmG2hmG2gGYbaWdhw8ndPhTMw20s7Dh5O6fCgZmG2hmG2hmG2hmG2gGYbaWdhw8ndPhTMw20s7Dh5O6fCgZmG2hmG2hmG2hmG2gGYbaWdhw8ndPhTMw20s7Dh5O6fCgZmG2hmG2hmG2hmG2gGYbaWdhw8ndPhTMw20s7Dh5O6fCgZmG2hmG2hmG2hmG2gGYbaWdhw8ndPhTMw20s7Dh5O6fCgZmG2hmG2hmG2hmG2gGYbaWdhw8ndPhTMw20s7Dh5O6fCgfcPbRRuHtooPjMNtDMNtK08W30ie8KGni2+kT3hQTvSOw+avNf2Nd/cvS4/itrg151clsFi6tGBgwia9Yli/aIQSo8ntI9dHSPNGeizNQEiEnBrvQbh+peu1fYLY4jMJruJmkChdyyunIEkDySNe0/8asJLBg4tsRwuO5e1t9WZ11EGzUK5UHaeY7Ow9lb3A2n+Fh/hivtpaQ2NqlvapsiTXRdxPadTzPPtNZqTqsaMHA2n+Fh/hijgbT/Cw/wxWeioJ+8x7Ldhi4w266tbjciuVs3eKFnOiLJKqlIyxI0DsCdRp2iujfDDMNw+4vr6KCK2t42llkMQO1VGpOgGp5eyuAq41g+O4rBaZfbE7fE7yO6ju+KijhiBREdZQx3gr1eo2I4OoHLnpCXuQ8evsYx6aTAWPyhY4jBKXNp1Vw7SI1uVO4ytqE11lbyW5KEXlSNIzbT+c13z7ewiytCNRaw/wxX3gbT/AAsP8MV5paZMxJekKHFTht7axLJG9rLG9ikVlbiALw7EI03JgR1aN1R3a7hzqdy7h0eNW93b4Jhdtera2tmmKLaXsE0eKypcbpyXVyjNIq6/lSrMNA4UaGkXmIzMiqbTOZk0e28Daf4WH+GKOBtP8LD/AAxXn+EZGSS/w+THsCtkwq2ivnhsrgxyJY9ZPG8SbQSoKqrebqq9gOmmu70b2jzwS4nLdJe21shwvC7lJesWa1ic6ShvWX8kE+vqgQSNKsXjM4fuxNlnwNp/hYf4Yo4G0/wsP8MVnoqDBwNp/hYf4Yo4G0/wsP8ADFZ6KCU6RbO1XouzUy20IYYNdkERjl+Reqedhw8ndPhU/wBI/wD1WZr+xbz7h67000Rgk0kTzT9YeygyMw20Mw20rTxbfSJ7woaeLb6RPeFAzMNtLOw4eTunwoaeLb6RPeFLNNEYJNJE80/WHsoMjMNtDMNtK08W30ie8KGni2+kT3hQTvSOw+avNf2Nd/cvS4/itrg151clsFi6tGBgwia9Yli/aIQSo8ntI9dHSPNGeizNQEiEnBrvQbh+peu1fYLY4jMJruJmkChdyyunIEkDySNe0/8AGrCSwYOLbEcLjuXtbfVmddRBs1CuVB2nmOzsPZW9wNp/hYf4Yr7aWkNjapb2qbIk10XcT2nU8zz7TWak6rGjBwNp/hYf4Yo4G0/wsP8ADFZ6Kg5WL3WEYFhzX2JQKsCukf5K0aZ2Z2CqAiKWYkkDQA18wi8wbHbR7jDoVZY5DFIk1o0MkbjQ7WjkVWU6EHQgciD2EVrZywq8xnAYrTDZJIp+OtZetiKb4lSdGZxvBUkAE6EHXTsPZXEHR/EmarW8uBJi22C5me+xARMwu2aARvsVVUFVi5FVGm32nUo3rz/InvHvRVnwNp/hYf4YrVsJMJxOOZ7KKGVYJ3t5D1Om2RDtYcx6iO3srzaxyVikWDSRrloW0SwWUeI4f18P/TEkUhaaTUNtbeD2ylWfzXAHOsYyvmCywe6GF5WkhF5bYraw2K3UGtrxDo0Rf8pt26KdQhbbyABHOm/34+/9ocPeM+HqxsrNVJa2gAA1JMY5VhsRhmI4fb3tlDBLb3MayxP1Wm5WGoOhGo5H11ES5VlmzJM2J5VTFZp3iNtislxGq2cAgVHhJ3dZpqJD1aqyP1nlEatpTZGw18HyLhGHTYd8mzWtqkUtsOr8lwNGb8mSp3HVtdeevPnrVpafj+s10djgbT/Cw/wxRwNp/hYf4YrPRUVg4G0/wsP8MUcDaf4WH+GKz0UEp0i2dqvRdmpltoQwwa7IIjHL8i9U87Dh5O6fCp/pH/6rM1/Yt59w9d6aaIwSaSJ5p+sPZQZGYbaGYbaVp4tvpE94UNPFt9InvCgZmG2lnYcPJ3T4UNPFt9InvClmmiMEmkieafrD2UGRmG2hmG2laeLb6RPeFDTxbfSJ7woJ3pHYfNXmv7Gu/uXpcfxW1wa86uS2CxdWjAwYRNesSxftEIJUeT2keujpHmjPRZmoCRCTg13oNw/UvXavsFscRmE13EzSBQu5ZXTkCSB5JGvaf+NWElgwcW2I4XHcva2+rM66iDZqFcqDtPMdnYeyt7gbT/Cw/wAMV9tLSGxtUt7VNkSa6LuJ7TqeZ59prNSdVjRg4G0/wsP8MUcDaf4WH+GKz0VBg4G0/wALD/DFcTEMxZZwvEjY3pRJU2dc6WTvFb7vN62VUKRa/wDfZeRB7KoqhcYw3G0jzLhFlgzXsWYGZob4TxLFb9ZCkTCZWYP5O3UbFfUEDkabrZZ8Daf4WH+GK1bCTCcTjmeyihlWCd7eQ9TptkQ7WHMeojt7Ki8RyRI4xy8ODRX9xPiMD7WaPrb2zRIN8O5joAxjbVGKqxXRuR1qbv8AIGL3eFwIMv3sFgLm+eLCbaaxZ7dpHVoXPXCSNQFDDdGS6btF1GtI1+O3efmE2zm9i4G0/wALD/DFHA2n+Fh/hip3K2WRhmNYxid9Zxm+uJ1WK9kKySvCIIVI36agF0YkaDUjXTsqpqzZGDgbT/Cw/wAMUcDaf4WH+GKz0VFYOBtP8LD/AAxRwNp/hYf4YrPRQSnSLZ2q9F2amW2hDDBrsgiMcvyL1TzsOHk7p8Kn+kf/AKrM1/Yt59w9d6aaIwSaSJ5p+sPZQZGYbaGYbaVp4tvpE94UNPFt9InvCgZmG2lnYcPJ3T4UNPFt9InvClmmiMEmkieafrD2UGRmG2hmG2laeLb6RPeFDTxbfSJ7woGZhtpZ2HDyd0+FDTxbfSJ7wpZpojBJpInmn6w9lBkZhtoZhtpWni2+kT3hQ08W30ie8KBmYbaWdhw8ndPhQ08W30ie8KWaaIwSaSJ5p+sPZQZGYbaGYbaVp4tvpE94UNPFt9InvCgZmG2lnYcPJ3T4UNPFt9InvClmmiMEmkieafrD2UGRmG2hmG2laeLb6RPeFDTxbfSJ7woGZhtpZ2HDyd0+FDTxbfSJ7wpZpojBJpInmn6w9lBkZhtoZhtpWni2+kT3hQ08W30ie8KBmYbaWdhw8ndPhQ08W30ie8KWaaIwSaSJ5p+sPZQZGYbaGYbaVp4tvpE94UNPFt9InvCgZmG2lnYcPJ3T4UNPFt9InvClmmiMEmkieafrD2UGXcPbRS9fF+tT3hRQfWYbaGYbaGYbaGYbaCc6RmU9FuatTy+RrvXQf/JelbEs7IhY5ey/oBr/AJ+n/o6+9I7D5q81/Y139y9dDH8bXCLSNUsrrELm6YxQ21rs3uQpYnWRlUABSdSw9g1JAoOecRzsP0ey/wDHp/6Og4jnYfo9l/49P/R1ojpMwtswQYI9hfwX9wmqQzmCOQv1ZfZ1Zl6z6pG/b1ev19OdaUHS7g8ceEQYzE1le39rDcSxvc26iDreS+S0u99dNfyauQCNdDypF9Myho7ZxHOw/R7L/wAen/o6+NiWdkQscvZf0A1/z9P/AEdYfnBsdZGlwzEorUxSzW12Y42ju1jYKdgVywJLKAHVSdeXrr5PntFZbKTL+LpiMrtHwJFuZEGzf1hYSlNugPYxOqkaa8qlYpUbBxHOw/R7L/x6f+joOI52H6PZf+PT/wBHWvcZ6tZbnCxh2jWtxcIlzNKvJEa0luABoeTgIhOo7H/by2cDzVNjmMz2zYXdYfbrZxXMXFqgeUOzAMNjsApCjyTow9YGorVL0JtFc1o+HEc7D9Hsv/Hp/wCjr42JZ2RCxy9l/QDX/P0/9HVKzDbSzsOHk7p8KgnTiOdh+j2X/j0/9HQcRzsP0ey/8en/AKOqRmG2hmG2gmziOdh+j2X/AI9P/R18bEs7IhY5ey/oBr/n6f8Ao6pWYbaWdhw8ndPhQTpxHOw/R7L/AMen/o6DiOdh+j2X/j0/9HVIzDbQzDbQeeZ9vs3v0b5lW9wPBIrZsJuhLJDjU0jonUtqVU2qhiB2AsNfaO2vQZ2HDyd0+FTvSOw+avNf2Nd/cvVFOw4eTunwoGZhtoZhtoZhtoZhtoBmG2lnYcPJ3T4UzMNtLOw4eTunwoGZhtoZhtoZhtoZhtoJzpGZT0W5q1PL5Gu9dB/8l6VsSzsiFjl7L+gGv+fp/wCjr70jsPmrzX9jXf3L1s5tzLb5YwGa9uLe6uPJIVLe1ll1On1jGjbB+1tBQaxxHOw/R7L/AMen/o6DiOdh+j2X/j0/9HW7iGZLazy/HiqWl9cJNJHHFbrbmKZ2dwijZLsK8yPO007TXKfpDskcxS4Tikc0cMst1GUiLWuw7draSHczEqF2btd4OumpDehtVsHEc7D9Hsv/AB6f+jr42JZ2RCxy9l/QDX/P0/8AR0rZ3Xb1BwDFhinWiMYYeH64jbv6zd1vVbdAee/XUaaa8qTDs6QXmWxd3kEqzcLbzSrHHoPy7MigBjqNCvMHs/bQZjiOdh+j2X/j0/8AR0HEc7D9Hsv/AB6f+jrSxXP8ttGGw/LeK3UL3sdrFdhYRDKTOsT6ayhl5kgF1UEgaEjnWG4z9cQYHeyphc19ewyX522iLshigneNZJN7qSDtGoTVj5Wi1NqrSZdM4jnYfo9l/wCPT/0dfGxLOyIWOXsv6Aa/5+n/AKOu3bXclxZmRoGRtqldSNJNVB1XQkgakjnodQfVoTBDPeN2mG4lJjEELXkNhNcLhvyZPZvHIg1KLNI5iuQNTq0bLyXUA66CzaaJF4iY3UZxHOw/R7L/AMen/o6DiOdh+j2X/j0/9HWFM7pc30FuMPvLReO4OR7iKNhJIIJJWRSsuo27BqxBB10GupZccHSJbXNoHOB4tDNNHBJZ20gg33iylthQiUqPNJIcqQKZ96DaOI52H6PZf+PT/wBHXxsSzsiFjl7L+gGv+fp/6Oupg2NR43hrXSWtzaMkrwyQXKqHR0YqwO0sDzB5gkHtHKt+dhw8ndPhQTpxHOw/R7L/AMen/o6DiOdh+j2X/j0/9HVIzDbQzDbQeeZ9vs3v0b5lW9wPBIrZsJuhLJDjU0jonUtqVU2qhiB2AsNfaO2vQZ2HDyd0+FTvSOw+avNf2Nd/cvVFOw4eTunwoGZhtoZhtoZhtoZhtoBmG2lnYcPJ3T4UzMNtLOw4eTunwoGZhtoZhtoZhtoZhtoJzpGZT0W5q1PL5Gu9dB/8l6VsSzsiFjl7L+gGv+fp/wCjr70jsPmrzX9jXf3L1s5tzLb5YwGa9uLe6uPJIVLe1ll1On1jGjbB+1tBQaxxHOw/R7L/AMen/o6DiOdh+j2X/j0/9HW/e5itrbA4sRitb244hkSC1FuYp5XY6BdkuzafX5e0ADU1yH6Q7JHMUuE4pHNHDLLdRlIi1rsO3a2kh3MxKhdm7XeDrpqQ3obVbBxHOw/R7L/x6f8Ao6+NiWdkQscvZf0A1/z9P/R1yb3pQtsHju5MwYfPh7LdpawWlxNbRSkmESEtI8wh005gh/WB52op7zpGt73DzJl+1luI91nuu5AhgC3E6R7QQ+4vtZyCAV1XtOo1ReafA6hxHOw/R7L/AMen/o6DiOdh+j2X/j0/9HWKLOct7jsVpZ4RecJJFcvHcSLGBdmIqv5L8py5k+kC66gjlqa283YpimGYXDLg8OpaYLcTmykvOHj0PldRGyvJq21dFOo3btCAaisJxHOw/R7L/wAen/o6+NiWdkQscvZf0A1/z9P/AEdcgdIslpb2z3tm9/FwtzLc3FlCYSrxSRoFMEzLJGx3jVG10LLzI1Nb82dWjF1CcIxC5uuLFpHYwxwrLGxtVnIZ2m2NoCdWDAa8gDpua51okXbJxHOw/R7L/wAen/o6DiOdh+j2X/j0/wDR1r/OFZSxQS22FYpPbyJAZ50SLbaNMQESQGQMTzGuwMBrqTpVYzDbQTZxHOw/R7L/AMen/o6+NiWdkQscvZf0A1/z9P8A0dUrMNtLOw4eTunwoJ04jnYfo9l/49P/AEdBxHOw/R7L/wAen/o6pGYbaGYbaDzzPt9m9+jfMq3uB4JFbNhN0JZIcamkdE6ltSqm1UMQOwFhr7R216DOw4eTunwqd6R2HzV5r+xrv7l6op2HDyd0+FAzMNtDMNtDMNtDMNtAMw20s7Dh5O6fCmZhtpZ2HDyd0+FAzMNtDMNtDMNtDMNtAMw20s7Dh5O6fCmZhtpZ2HDyd0+FAzMNtDMNtDMNtDMNtAMw20s7Dh5O6fCmZhtpZ2HDyd0+FAzMNtDMNtDMNtDMNtAMw20s7Dh5O6fCmZhtpZ2HDyd0+FAzMNtDMNtDMNtDMNtAMw20s7Dh5O6fCmZhtpZ2HDyd0+FAzMNtDMNtDMNtDMNtAMw20s7Dh5O6fCmZhtpZ2HDyd0+FAzMNtDMNtDMNtDMNtAMw20s7Dh5O6fCmZhtpZ2HDyd0+FA+4e2ijcPbRQfGYbaGYbaVp4tvpE94UNPFt9InvCgnekdh81ea/sa7+5eunjmD2ON2HVX6zfkiZIpILiSCSNtCNVkjZWHIkHQ8wSDyNcrpHmjPRZmoCRCTg13oNw/UvVFNNEYJNJE80/WHsoJ+xyHlzC7qO5sba6jeKTrlQ4hcNH1mmhkMZcqXI11cjc2pJJJOrxZJwO2S0Fr8oW4tEWOMQ4rdJuVSSqvpIOsA1IAfXQchy5V32ni2+kT3hQ08W30ie8KCKw7o5itsbvLvE78X9lNFPDFZlJVCLM4ZhzlZF83T8kkQPaQSBp2oMq4ThkbTWUcxu4+skS4u7qa5k3smzVmkcsw2gDQnQerSu208W30ie8KWaaIwSaSJ5p+sPZTahvVw8JynYYdhdrBdiO6ngupL0yqhjQzyB1YhNTou2RlCktoug5ka1sYRljCcAllmwyO4V5I1iJmu5pwqKSVRRIzBFGp0VdANeyus08W30ie8KGni2+kT3hQ1MzDbSzsOHk7p8KGni2+kT3hSzTRGCTSRPNP1h7KDIzDbQzDbStPFt9InvChp4tvpE94UDMw20s7Dh5O6fChp4tvpE94Us00Rgk0kTzT9YeygyMw20Mw20rTxbfSJ7woaeLb6RPeFBO9I7D5q81/Y139y9UU7Dh5O6fCpvpHmjPRZmoCRCTg13oNw/UvVFNNEYJNJE80/WHsoMp8peVfGYba4OY7E315glzAbiQ2uIIxWGRtgBBBZ1XkdP+9yGvtruNPFt9InvCkXivPt3J1pm5mYbaWdhw8ndPhQ08W30ie8KWaaIwSaSJ5p+sPZQZGYEVq4fiuH4zatcYRf2t/CrmNpLWZZFDDtUlSRqPZRiCi8w25toZ1SSaJo0YMPJJGgP/vU/lmPErSa9u7rALiy6y3iRLYSwMWaFAv1X2+Vu0Xn2J5W3kKRrJOzL0iyxv0W5tCOrFcHvFYA66HqG5Gu/eRw3FjNDcRpLG6EMjruVhp6wajM35dwTLnRfnX5GsYLF77C7ya4EfIyuYnO48+3matZpojBJpInmn6w9lBz8xYLDmHChY3ErRx8RDMxQsGPVyK+gZSCp8nkwOoPMdlYIso4FBaSQLZtIksD28pmnkleRHbc25mYsxJ57iS37a7LTxbfSJ7woaeLb6RPeFM/g4JyVgXAm32XpPXdfxJxK5Nzv27dev6zrNNvLTdppy0rHcZFy60cDcJMotII4o41vZ1RliJaPegfbJtYkguCQaomni2+kT3hSzTRGCTSRPNP1h7KCfu8h5du55J57e6LPL1youIXCpFJvDl40DhYmLDUsgUnVuflHXLf5KwC/tupntp0TdMzdReTwl+ucvKrFHBZWY6lTqv7K7rTxbfSJ7woaeLb6RPeFNqFWKO1ghhkjQMUk01R3ZwAFC6AEnQaAchy11PaSa4a5Iy/a2d1FHb3LxTWslsIpr+4lSKJl0ZIlZyIhpy8jbyAHqFULTxbfSJ7wpZpojBJpInmn6w9lDTRzYss4PbwwpHbu3UXBukaSeR260xmIuWZiWJRiOZPbr2860cdydaYjgq2mGycBPDFDDBPrI2xIm1RfJdXHafKV1bn51UTTxbfSJ7woaeLb6RPeFNRyMr4EMtZeTD2uuKl6ySaWbaw3u7lyfKZm9fazMx7SSSTXXnYcPJ3T4UNPFt9InvClmmiMEmkieafrD2VZmoyMw20Mw20rTxbfSJ7woaeLb6RPeFQTvSOw+avNf2Nd/cvVFOw4eTunwqb6R5oz0WZqAkQk4Nd6DcP1L1RTTRGCTSRPNP1h7KDIzDbQzDbStPFt9InvChp4tvpE94UDMw20s7Dh5O6fChp4tvpE94Us00Rgk0kTzT9YeygyMw20Mw20rTxbfSJ7woaeLb6RPeFBO9I7D5q81/Y139y9d68jhuLGaG4jSWN0IZHXcrDT1g1P9I80Z6LM1ASIScGu9BuH6l6oppojBJpInmn6w9lBgxXDbPGMPezv0Z4mZWBjkaN1ZSCGV1IZSCAQQQRXPiyjgUFpJAtm0iSwPbymaeSV5EdtzbmZizEnnuJLftrstPFt9InvChp4tvpE94UHAGScCSykgVb/AFkmE7XHypdcRvC7Neu6zrB5PLTdppyrYkyxhC2M0TQyyh+pd3muZZHdoGDREuzFiQwB5nn69a67TxbfSJ7wpZpojBJpInmn6w9lBx4soYLbX817bxXUc0qyr5N9PsiEh1fq037YyTzJQKdedbmMYLh+OW0cWIJKepfrIpYLiSCWNtCNVkjZWXUEg6HmCQa3mni2+kT3hQ08W30ie8KDhS5LwCW3t4pLaZlt1kVSbybc/WFS/WNv1kJKqdXLHUA1uyYLhqXU18tvpcvMbln3tzk6nqd2munowF07PX2866DTxbfSJ7wpZpojBJpInmn6w9lBGYp0cxXeNWlxZYjwmHwcP1lkFlO/qX3rzEqofUNZEkI+qV5aW7MNtK08W30ie8KGni2+kT3hTSKG9TMw20s7Dh5O6fChp4tvpE94Us00Rgk0kTzT9YeygyMw20Mw20rTxbfSJ7woaeLb6RPeFBO9I7D5q81/Y139y9UU7Dh5O6fCpvpHmjPRZmoCRCTg13oNw/UvVFNNEYJNJE80/WHsoMjMNtDMNtK08W30ie8KGni2+kT3hQMzDbSzsOHk7p8KGni2+kT3hSzTRGCTSRPNP1h7KAubmG2tZZ7mVIYYkLySSNtVFA1JJPIAD11xmzzlLb9KMG+IRfirW6R5oz0WZqAkQk4Nd6DcP1L0Y/itrg151clsFi6tGBgwia9Yli/aIQSo8ntI9dBstnnKW36UYN8Qi/FSzZ5ymYJAMz4MSVP9/i9nercwcW2I4XHcva2+rM66iDZqFcqDtPMdnYeyt7gbT/Cw/wAMUHHbPOUtv0owb4hF+Khs85S2/SjBviEX4q7HA2n+Fh/hijgbT/Cw/wAMUHHbPOUtv0owb4hF+KlmzzlMwSAZnwYkqf7/ABezvU2NY3gGAXEMGI20rTTxvKkdphk102xCAzERI20DcvM6dtdO2iw29tIrq0itpoJkEkciIpV1I1BB9hFNYqOY2ecpbfpRg3xCL8VDZ5ylt+lGDfEIvxV2OBtP8LD/AAxRwNp/hYf4YoOO2ecpbfpRg3xCL8VLNnnKZgkAzPgxJU/3+L2d6u1wNp/hYf4YrXtvku7muoreKB3tJRDMBEPIfar6dnPyXU8vbQc9s85S2/SjBviEX4qGzzlLb9KMG+IRfirscDaf4WH+GKOBtP8ACw/wxQcds85S2/SjBviEX4qWbPOUzBIBmfBiSp/v8Xs71drgbT/Cw/wxRwNp/hYf4YoOO2ecpbfpRg3xCL8Vd1mG2pbpFs7Vei7NTLbQhhg12QRGOX5F6p2ni2+kT3hQMzDbSzsOHk7p8KGni2+kT3hSzTRGCTSRPNP1h7KDIzDbQzDbStPFt9InvChp4tvpE94UDMw20s7Dh5O6fChp4tvpE94Us00Rgk0kTzT9Yeygy7h7aKXr4v1qe8KKD6zDbQzDbQzDbQzDbQTfSOw+avNf2Nd/cvWbNCYnc/J1rhV/dYfHNO4uri1hjdkQQuw9IjqoLBRqR69PXWHpHYfNXmv7Gu/uXqinYcPJ3T4UHl1/mHOkV9gUcK4kz9TbG8T5PYRzEvpKzFbdxrtBO3rINvqDagV0LkZyeOaaPGsTi6yK/lWGPD4NImhlAt0XWIny1PPduLaartr0NmG2hmG2pNaU91i01eb2mO5xfP8AFBexyw2EjoBDw0xh6sxglty2hAfdu864AHYV9vo07Dh5O6fCmZhtpZ2HDyd0+FaqzEGZhtoZhtoZhtoZhtqKGYbaWdhw8ndPhTMw20s7Dh5O6fCgZmG2hmG2hmG2hmG2gGYbaWdhw8ndPhTMw20s7Dh5O6fCgZmG2hmG2hmG2hmG2gm+kdh81ea/sa7+5elmhzt1D64pl/Taf9Wz+z/x6bpHYfNXmv7Gu/uXqinYcPJ3T4UE6Yc7af51y/8ADZ/+fQ0Gdtv+dMv/AA2f/n1SMw20Mw20E20Gdtv+dMv/AA2f/n0s0OduofXFMv6bT/q2f2f+PVMzDbSzsOHk7p8KCdaDO23/ADpl/wCGz/8APoaDO23/ADpl/wCGz/8APqkZhtoZhtoPO8/Q5vHRtmU3eJYG9uMJuutWLD5ldl6ltQpMxAOnYSD+6qbOdvjt3lu5iyxeW9rdFDr1sDOzjTsVhImw/tOv7qw9I7D5q81/Y139y9UU7Dh5O6fCg4eNjGly3bwwXxXEZLiCKa7sbQDajSqHZY5OsC6KT5xbTtqKzNjGdcNwqC1w2fFbm8jlulW4GHj/ACkLJpFvMdrKo1Gn1YlYc940Nepsw20Mw20VCy/2qv8AFOsTF8QsLae/Ft1MVjFthg4USGUF4y27rdV3MSo10Kk1wrrMGe0vcLEqXEcL2sQcG0lKzPuZZDMI7OXadNp06yEDXXs7PV2YbaWdhw8ndPhTeGdnJxdBeZTxODfiUwkjnjPDosdxpqw0j3BRqOxSe0AHVtdT5vZ2NxbYPerg9nJYWqXFjI9xg2XJ8Nditwu9Tayh+sITyjIijkAp1A0r2BmG2hmG2kW9VVm8UebvLmpbNL1nu5798NxJ0kkw6PdbSdZCIY10jBAIUttOu8gk6gABsYxDHMHmfDb/AB7GGtHumCYhBh0U1269QrBFjSAqyb92rCMkaAEjtr0ZmG2tHGsKwzG8Ne1xnD7XELceWIbuBZUDAHQ6MCNefbUvSIjL1X3amUsRuMUyXhV/fy9bc3Nqksj7Au4ka66DkP8Adyrssw20qJFDAsUKLHGihURF0CgdgA9QpmYba1OtmY0DMNtLOw4eTunwpmYbaWdhw8ndPhUUzMNtDMNtDMNtDMNtBN9I7D5q81/Y139y9UU7Dh5O6fCp3pHYfNXmv7Gu/uXqinYcPJ3T4UDMw20Mw20Mw20Mw20AzDbSzsOHk7p8KZmG2lnYcPJ3T4UDMw20Mw20s88cMDyyttjRSzMfUBzJrm4Fj8eOxzf5DeWE0JUtBeKgfYw3I/kMw0I19eo0IIBFBz+kdh81ea/sa7+5es2c7fHbvLdzFli8t7W6KHXrYGdnGnYrCRNh/adf3VxM9Zmw3Ecl55wW2ac3lhgt0Zg9tIic4G81yAraajsJ7RVvOw4eTunwprFTejiY1e4phWWoLiRzd3UNxBxTWFk53x9aokKQ6u3mE8gWPsqUnzHmmbFsOlsYcSa3nuZwLOSweDWLrCI3kZrdgq7dDtaSFtP9onaPSGYbaGYbam+Zkm1Hk+CYxnvEbfhb65vraWS4t1mnFi5kgDNpJs6yyij2AevWUjkdxHbdZhhmvsi4zb2puLueS3uEjWWMRuzeVooGijT1KfWNDqddT3mYbaWdhw8ndPhV2ob1ebZixfEb64vscy0mLWYjtYLYPJhNxHLI3WuzKiPbSsNBt1fqWXnpqDqV1v7Q56OZGSWC5t4XiBjtmtpJECmENqWSzKdZv17Z1XXls7NfVGYbaGYbalLUzKrW9UJlzCXvLrEvlq5uZcSuMNs1ubzatvcaN1jtGGjVSgBOnLQjTt3c6+YRhsVjb5KE1p1N3b4VJbkyR6SoohTVCT5XaOw+sVacDZJfyX6WsC3skYie5EQEjIDqFLaakAknTs50tzY2Ulxx8lrA15FC8cdw0QMiIeZUNpqAdBqP2VqZrMzx892YikUbTMNtDMNtDMNtDMNtRQzDbSzsOHk7p8KZmG2lnYcPJ3T4UDMw20Mw20Mw20Mw20E30jsPmrzX9jXf3L1RTsOHk7p8Knekdh81ea/sa7+5eqKdhw8ndPhQMzDbQzDbQzDbQzDbQDMNtLOw4eTunwpmYbaWdhw8ndPhQTvSOw+avNf2Nd/cvXYvsFscRmE13EzSBQu5ZXTkCSB5JGvaf+NcjpGZT0W5q1PL5Gu9dB/8l6+HEc7D9Hsv/Hp/6OgoLS0hsbVLe1TZEmui7ie06nmefaazVMnEc7D9Hsv/AB6f+jr42JZ2RCxy9l/QDX/P0/8AR0FPRUycRzsP0ey/8en/AKOg4jnYfo9l/wCPT/0dAmYMu4hjGbMPuLTEr3C7aKwuYZbmz6gsWd4iEIlR+RCsdQPV2+2ObI17a9IVjcw4M64ZZTrbm5Z7YxNYCzMe1ndjOSGOhQbY9PK2ltWNocRzsP0ey/8AHp/6OvjYlnZELHL2X9ANf8/T/wBHSLRTNarqjcJy3NmXLfWO0eL2dvd22H2MgmDpcWEF0rPLuJAbco0bt3dUNNQRWve9G+JQ4eY8HwpbXrFuluktWgV7iHjUeKEBwUYdQGCq42AHadoJq7OI52H6PZf+PT/0dBxHOw/R7L/x6f8Ao6v+9Mn3RFr0dXFzgKWtxgskkUOG4iLS3v5LVmtp5HjMO1YlWKNvJYjYNE1Plc6sco4LJhOM5imnwpLV767juBdoI/8AKR1KA67Tu1DiQncBzbUa6mnOI52H6PZf+PT/ANHXxsSzsiFjl7L+gGv+fp/6OkTT861RT0VMnEc7D9Hsv/Hp/wCjoOI52H6PZf8Aj0/9HUVTUVMnEc7D9Hsv/Hp/6OvjYlnZELHL2X9ANf8AP0/9HQP0j/8AVZmv7FvPuHqiZhtrzzPt9m9+jfMq3uB4JFbNhN0JZIcamkdE6ltSqm1UMQOwFhr7R216GzDbQDMNtLOw4eTunwpmYbaWdhw8ndPhQMzDbQzDbQzDbQzDbQDMNtLOw4eTunwpmYbaWdhw8ndPhQPuHtoo3D20UHxmG2hmG2laeLb6RPeFDTxbfSJ7woJ3pHYfNXmv7Gu/uXrr4xi+G4Phsl1i9/a2Fv5nXXUyxJuPYNWIGp9lcbpHmjPRZmoCRCTg13oNw/UvW1mPDpsRW1ucLxG1tL2yd3ja5g4iNgyFGBQOh10PIhhp+0EigyW+bcDuY8PD4lbW1xiUYktLW4nRJpR/3U11b/drTS5ty5HZXN1Jj+Frb2k3UXEzXkYSGTXTY7a6K37DzqOboyCSWDQY5GI4ba3t7mJuJRJxESV2pDcxoO08mVwP+IO5bZJvrGV7u1zFarcx3XX2kb20sttbrtdCoie4LDUSHzHRRoNFHMEKRM14JdXEMGH4nZXryOqMLe7iYxhkd1YjdroQjaaAk9umgJGte55yxFhVxdJj2HzwxTR20jQXUbiOSRtqq2h5e3n6gT6q5OG5IXDLC3RsUt5pocUmxSQw2iQJI8kLxlAobRRrJqDzOg0Op1atLD8mYkMr20d/jFjFe21laQWyx2WiwLDIku2QLL+VbVNuqlAOZA51YpW/Lz9eeUp5ZftfpzVk+a8EtLVZsUxOyw5ZLiS2i4u7iTrHRypCncQTqOzXcOwgHUDMcxYIcY+Rxi9h8p6a8DxKdd2a+j13dnPs7Km5snXMUchwvHLOKWc3iTtc2PXqYricylVHWLtYa6akkHTmvZp0LfK9raNH1V8pWLEEvV3qC3k24hCk68zoNd3+7SpHPM16e71azTnn86qVmG2lnYcPJ3T4UNPFt9InvClmmiMEmkieafrD2UGRmG2hmG2laeLb6RPeFDTxbfSJ7woGZhtpZ2HDyd0+FDTxbfSJ7wpZpojBJpInmn6w9lBkZhtoZhtpWni2+kT3hQ08W30ie8KCd6R2HzV5r+xrv7l6op2HDyd0+FTfSPNGeizNQEiEnBrvQbh+peqKaaIwSaSJ5p+sPZQZGYbaGYbaVp4tvpE94UNPFt9InvCgZmG2lnYcPJ3T4UNPFt9InvClmmiMEmkieafrD2UGRmG2hmG2laeLb6RPeFDTxbfSJ7woJ3pHYfNXmv7Gu/uXrt4le29hhlxdXcnVwxRlnbaToP3DnXC6R5oz0WZqAkQk4Nd6DcP1L1uZny/geasHkssbtbW7jCkxmWNHaJtPOTcDof20HTv7+zw6xlu8QuobS2hG6SaeQIiD2ljyFcmLO2XZcPivJcYsra3uJ2gtpbi5jRbllOn5M7tHB7Rp2givuJ4HaS4BBh2CyWeFizljmtFS3VoYmRtwBiUrqv7AQfWCCKlcQ6OJry3ikGYLeO+3XJuHijuYIZVnk6xgI4LqNhz/ANp2B9Y151L1zM3Ns5+FpNmTA4pL6KXGcPSTD1D3iNdIDbKeYMg18gftOlakuc8vT2v/AEfjOH37yqpSO2vYWZlaRY941cAqGYDlzJ5AEkA8E5EmS7up4MeggQ9U9rbJDK8Mckbo4d43nYMdUGuzqydSSS2hDR5IkEOLz3+MWct5il5aXk0lrYLAgNvIrhQu9idwUDVmJBJPMaAailq5ma2bu9e50y3Z22IySY3YO2GQtNdwx3KNJEo5Hcuuo58ufrIFPLmzBILK4vL3E7Ozs4ZEj4qe7iWJy8auujbuWocaBtCe0AggmXt8mX13hl5b4jilpbwv8oLaQx2o6yI3Mj+W7iTSQaNqFAQ8xqSRrXQkyteJdSYlaY3ZJib3i3Qklsi8IPDJA46vrQ3PZuBDgjXTmNdZnVXcnzRgEN1a2k2OYdHc3iq1tC92gecN5pRddWB9WnbWTE8ZsbHAL/E5Z1a1tIpXleM7tNmoYcvWCCCPURXBt8mW9th01v8AKUbtLFaIz9UBo0MzSkga8gS50H1f21QXgmnwi7gGIRw3EiSCOeGNfyeuu3yWLAkDTXXkSDyGugTpZI5uS2d7O1w9rrH7C8wKPrIY0OINDtk6xtqlXjkdO3tG7UAa6aaGt0ZrwWWZ0gxOzmjiSVp547uIpB1ezcH8rUECRSeWg9ZGq6zFnkA2Nrdm2v8ABLG6me3dBhmE8LbaxTLKGkhEx3uSNu7cNAa2pcjQPhcNn8qxgR2F7Zk9SNG4mRHLabvVs009evaKtv38t1Ids5xyycJOJjMWFGwEvUm742PqhJ27N+um7T1a610xcwXVgZ7aZJopIyySRsGVhp2gjtqKzThOKWWKDHMsrHd3jXO9ohHG/VoYBGfIeaIOfIHPrFI17G5138sWbYRkfDcOu2iW4t7JI5FRlIVgvMDTQcjy5DSpF6juMw20Mw20rTxbfSJ7woaeLb6RPeFBO9I7D5q81/Y139y9UU7Dh5O6fCpvpHmjPRZmoCRCTg13oNw/UvVFNNEYJNJE80/WHsoMjMNtDMNtK08W30ie8KGni2+kT3hQMzDbSzsOHk7p8Km+keaM9FmagJEJODXeg3D9S9LL0f5DEL7cpZd12nTTDYPw0FHdwRXllNbT84pkMbj2gjQ+NcfAsFv8KeSe+xSC9uJiiSulmYlMUaFUULvOjancW1IPMBRy01W6P8h7eWUsufDYPw0N0f5D28spZc+GwfhoDpB6wdEmZ1uJEkmGCXYd40KKzdQ2pCknQfs1P7zXexK9t7DDLi6u5OrhijLO20nQfuHOoLP2R8lWnRvmW5ssr4DBcw4TdSRSxYfCro4iYhlIXUEHmCKrMz5fwPNWDyWWN2trdxhSYzLGjtE2nnJuB0P7aSOlf4hZ4bZPdYjdw2lvH5808gRF/ex5CtMZpy/JFbvHjmGut2jSW7LdoRMq6lmTn5QAVtSOzQ+yudmPBUkyvbYXlyOysxb3ltJDGkSdVCscyuT1eqggaa7QQT6iDzrnjIyypfS32LwS3V/bTRTSQ2wjQPJIH3KhdtFG1QVJOvMk86R3/Ldc4J0d45vy02DHFVzBhZw4SdUbwXsfU7/9nfrt1/ZrrT22YMOxHBhex3CRJJCsm2V1VkD6hNw15akED2nsrgtlfE2uvlVsew040JxIJhhx4bZ1Zj29T127doT5XWa+rs5Vqf2Hu7WwgtLPMFrHaLaWsFyhsdWl4eRnUxkSARg7tCCrcuwig7+J56yvhc0tveY9hy3MMscUtvxUfWRs7qo3LrqBqwJ19XOt+2x/B8QZ47DFbK5eOc27rDcI5WUAkxkA8mABO3t0BqVvMm4hMqwQY/h0dpbXhvbNXwsPKkhnEpDydaNy67h5ARjy1Y6EN0suZfusAnu3fGYJ4bmYMLZI5RHCgDeTGJJn2HVh5uiaLoEGutI0vmnkl08XzHY4Ne4faXnWb7+Xq0ZF1WPmFDOfUC7onr8p1/aQt3mnAIp5bGXHMNS7VhCbdrtBIHbUKm3XXcT2DtNcrHMmYdmHEry9xPErvfLAkFulrezW6wKuralUkAkO87vKGnJRpyJOK3yibdkurnF4Z7pJri5kkS2Cb5JYRGSAWOmmmvr7dKkaXzl9VJ2o7tpmbAcS3rh2NYfdtHKIHEF0jlZDroh0PJvJPLt5H2Vvx3MNxCZLeVJU3FdyNuGoOhGo9YIIP7RXmy5FxHBMJxCS3xMYriNxFBDaiLfGls8Um+OTSe4kCorHVkj0G0aKnqN/hlra4Tg9rh8EwZLaJYwzPqzaDmxPrJPMn2mtbZme5vmf43mYbaWdhw8ndPhQ08W30ie8KWaaIwSaSJ5p+sPZUGRmG2hmG2laeLb6RPeFDTxbfSJ7woJ3pHYfNXmv7Gu/uXqinYcPJ3T4VN9I80Z6LM1ASIScGu9BuH6l6oppojBJpInmn6w9lBkZhtoZhtpWni2+kT3hQ08W30ie8KBmYbaWdhw8ndPhQ08W30ie8Kx3V1BHbMZJ40D6opZwNzEcgPaf2UHB6R2HzV5r+xrv7l6281Zmt8r4JJf3FvdXOgO2O2tZZdT/AN4xo2wftOgrS6R5oz0WZqAkQk4Nd6DcP1L1QXHC3Nu8Nx1MsTjRkfRlYftB7aDnYhmS2s8vx4qlpfXCTSRxxW625imdncIo2S7CvMjztNO01wcd6T8KwTBkusTsb22aRpYpYJpLeJrd0A1Vi8oRm0IIWNnZhzANd/MWFWuYcKFjcXIjj4iGZijkMerkV9AykFT5PJgdQeY7K5t3kjLU1ksTJcARRyIWTE7hXmDnc4lYSazAntDlqZ+ec1ZmeMl9nrC7KG5aSK6d7YTNJFGil9kcayFwN3NSJI9PXq6ggc9MEef7Y3nDX2C4rhwWfh5pblYdkEnV9YqsUkYncnPVQwGujbTyrYjyvYNiOKXWITQXCX1slksSAx7LddfJLbiWYk835ahVGnLU9C4wjCLiV5Zoo3d7lbpiZToZVQRhtNdPNAGnZ+yk8syOvIjmmcN6WsBxqxnlwuC4upo2iEdrBPbSyyiVwiEbJiE8phqJCjD1ilxjpCuY8NuZLHBbmFkwvELl+M6v8hNbELscJIdQSe1Se1dD26d60yvglihWF7t4+sjkWK4xO4mSMxsGTYjyEIAQOSgDQadnKvmI5YwG+hlNxEW3R3KMqXciB1uB+VDBWAYNoDoewgEaGrFP3x5yF9Ot2rc5xkON2eH2eG3LQyXotZr90TqN/VM5RfL37hoPKK7e0a68q6GP4liVrliS8wqxZrzRCYZI+taFSRvYojDrCq6nYjatpop1IrG+WcCbGlxbbILpJBKAt7KIus27N/VB+rLbeW7brp6627/DMMxHBxht6TLbqE2k3L9YpUgqwk3bwwIBDA7teeutTbMzXdI1vmqUt8+3cNvardwjEna9aC4kt7KSxeGMQPKGa3uGDqfJOmhYMASNDotbbZ+je1mnbDMQAe0tZobLqYhO3ESyRod3XbOewHQ7do7TqSF6Byhl7glt2E8gSfiOtlxGd5WfYU8qVnLsNrFdrEjQ6aVsS4DggQusKb0hgiU9c3JYGZ4h2/VZif2689att+XnwbWy/ZypukO2SyMq4Hi8ssKTS3dsiwGSzSJyjM/5Xa3NToIy5OnIVVxzpPbpKmoV1DAHt0POovNmQoMf0+TsVTDUkWZLlfyjdaJWDN5kqa89fJffHz8z22SPBFAsaSJtRQo8odgqR/5vqTrbRlZhtpZ2HDyd0+FDTxbfSJ7wpZpojBJpInmn6w9lBP8ASOw+avNf2Nd/cvVIzDbUz0jzRnoszUBIhJwa70G4fqXqkaeLb6RPeFAzMNtLOw4eTunwoaeLb6RPeFLNNEYJNJE80/WHsoMjMNtDMNtK08W30ie8KGni2+kT3hQMzDbSzsOHk7p8KGni2+kT3hSzTRGCTSRPNP1h7KDLuHtopevi/Wp7wooPrMNtDMNtDMNtDMNtBoZgwuLHst4lg88rRRYhaS2ryIPKQSIVJGvrGtcibBMx9Q+ucZj5J5fJ8Hs/dVMzDbSzsOHk7p8KCdbA8x7fpjN8Og/lQ2B5j2/TGb4dB/KqRmG2hmG2gm2wPMe36YzfDoP5Us2CZj6h9c4zHyTy+T4PZ+6qZmG2lnYcPJ3T4UE62B5j2/TGb4dB/KhsDzHt+mM3w6D+VUjMNtDMNtBNtgeY9v0xm+HQfypZsEzH1D65xmPknl8nwez91UzMNtLOw4eTunwoJ1sDzHt+mM3w6D+VDYHmPb9MZvh0H8qpGYbaGYbaCbbA8x7fpjN8Og/lSzYJmPqH1zjMfJPL5Pg9n7qpmYbaWdhw8ndPhQTrYHmPb9MZvh0H8qGwPMe36YzfDoP5VSMw20Mw20Ehi+UcaxnBb3C77N9w1re2728yrYQqSjqVYA6cuRNVs7Dh5O6fCmZhtpZ2HDyd0+FAzMNtDMNtDMNtDMNtAMw20s7Dh5O6fCmZhtpZ2HDyd0+FAzMNtDMNtDMNtDMNtBN9I7D5q81/Y139y9UU7Dh5O6fCp3pHYfNXmv7Gu/uXrNnPHrvAMt3N7h+F3GIyKh5RGMLFy85t8iaju6n9lB3mYbaGYba42J49PZZdivhhskd3PJFDHZ3cyJtkkcIod0LqBqRqV3fsBPKpm86Sr2wxSKwvcChLx3EVvfPaXklysDSSBV0ZISo5MraTGEnXkD20i80Nqr9mG2lnYcPJ3T4V55J0i4vYRRwXOB8ddyXN5qLTiZlWGGcxjTqrdzv9WjBVOmpYE6DozZ7uDcBvkhUwuS5ezE0l0VuVlWFpG1gKaaaKR5+vYdNOdSsUqtL0WjMNtDMNtQzZ+xVYrZJMCsuKxAQSWSR4oXRo5W2gyP1PkEcjoocHnoTpTYjna6ntGhsoOFu7a8tYb0ht4iL3qwmMaro25BIdeRAKnTygRqImZiOdMzlqzWM5rdmG2lnYcPJ3T4VH2uasXxLMFskFlaw2FxFeG2Bu9zTtE6oOtHV6xcyfNL8iddCAK6Oa7u73Ydh1niBwwYhM8b3cao0i7Y2cIgdWXc23tIPINoNdCIqhZhtoZhtqBxrPM+VMKEcUi5oltzObmdQ6SRrGRydbeKQbxroWKxx6jmV7KXEOkDFMNuL9ThC3u/EVt7FITO5EfDJMxkEMEjg+V6lbmxGoC6lrFcy5vR6AzDbSzsOHk7p8Ki5OkC8eNZ7fAtlrEbZLwXty9tPE87hVCxNF5QGoPlFCfUNeVY8R6Qby0w+e7kwaBrSZJxYlL/WWVon2kSJ1ekYPPmGfTkDoTTQXTMNtDMNtQ+NZyxBMNv8ADlt1sMZghkaVrebrlt0CIRKrPGA2rSKoDKOYbt2kUltjWKLm2FZMaae3kxWTC2w94YwFVLUyiXcEDdYWUE89m1+Sg6GkXmnyTaK5x/jr9I7D5q81/Y139y9UU7Dh5O6fCp3pHYfNXmv7Gu/uXqinYcPJ3T4UDMw20Mw20Mw20Mw20E30jsPmrzX9jXf3L1RTsOHk7p8Knekdh81ea/sa7+5eqKdhw8ndPhQMzDbQzDbQzDbQzDbQTfSOw+avNf2Nd/cvVFOw4eTunwqd6R2HzV5r+xrv7l6zZzx67wDLdze4fhdxiMioeURjCxcvObfImo7up/ZQd5mG2hmG2uHjGYbjDstw4guFsl1PPDAtnd3CRlHlkWMb3Teo0LA+Tu/ZqeVTmNdJd3hGFmVsDjnu7dpxewwXMsyxCIjUo0cDMwOvnOsagghmBpmfcC/ZhtpZ2HDyd0+FSWIZ+Fmt9HHhrTXNnFLctCJtusKRo6Prt0BYyKuh9YfmdprDJnfFbe5lgxfAra3hiueDuJbfEGmIdoetUopiXcNpAOpUg9gbtpNtSL6LVmG2hmG2oDDukjEMTwp7iPLU0U0j24tVnNzBFIJpFQbpZbdQGG4EhBINOwmt6yzRjuIY3Z2vybYwBre+FxFxrMOuhlRF2v1WpU7hz0B0Y8vJANpNaZZKwsWYbaWdhw8ndPhUpn3EcVtFwWDBZcRSS8vTFKuGLbGd1EMj6KbkdWOagnXQ6DlXGxHOmOZUy2hxXDZ8QuCs8zC5ccTHbrptMi2kUibjqeeixgAauDUV6MzDbQzDbUhiGfhZrfRx4a01zZxS3LQibbrCkaOj67dAWMirofWH5naax/23xS2vmgxjAra3hhuxaXEttiDTEO0PWqUUxLuG0gHUqQewN20m2pF9FmzDbSzsOHk7p8KgsO6SMQxPCnuI8tTRTSPbi1Wc3MEUgmkVBullt1AYbgSEEg07Caw4znDME1m8cVtbYaRY34uHiueuaKaGWOMNHuiAceVr5QHnHUeToVJzkVh6KzDbQzDbU5NPi8WdLSxkxFPk2bDpyqLAOuaVGhHWs/m6+W2ihQPWddQF3Mr3dxd5Vspr64a5uGQh5nVVaQhiNSFAXXl6gBQaXSOw+avNf2Nd/cvXy7zrhN9heIjKmKYTjWI21s8wtYr9SAo0BLFNxAGo9X7PXX3pHYfNXmv7Gu/uXrv3McMljNDIgaFo2VkHLVSOY5dlZ9UTPpmI1X00iYq4L53wm2iiivnuTdmGN5I7XD7ibaWQNy2I3qPtr42ebF1/ybCsfm/+y3Mf3iLVDHHFb2yQwjbHGoRBqToByFOzDbXT1TEzMwz6axEVTbZuu3X/ACbKGYJvZ5FvH95MtamMwXuPYfZYm2W5be/w28MkMF3NCZAmw6sGR2VdfN7de3lpVezDbSzsOHk7p8KzvE8L/S7TCCzviGY7jo6zOuIYHY2docGvd8q4m0ki/kH00QRAHnoPOGg58+yr9mG2pvpHYfNXmv7Gu/uXrPnG3x28y9PFle9t7W7KnnLAzsw9isJE2H9p1/dQd1mG2lnYcPJ3T4VNZqv8UwrJ0UhvyL43NvFNc4fZana8yq5jhYyc9pOg8o69gPZUbmHMGcYcAthhD4zLIxuTDPJhhjkuVBAj65VtZOrPb5JSEMNDvXmKZ+dx6yzDbQzDbUDiON5mafFbGwdxPa2T38Trbq7flIwIYtm3mRIJjp26IgOu407DNuH4m2zFb/E4YcQW3jiuLOFVniaAOXdkjU+TIdoZdoGmjbjzpNtc2Ivnyu2YbaWdhw8ndPhXluA4vnjEbC4tsQuL23uGltVebgn6yAtKqy9X1llFGUC7vXLppruI5npx2eI3WO2NtmK4xDEbQ2+JWki3FghhuV6xOrM22IKNyA6HyQ2wadpBRFevQegsw20Mw215hY4cMjZdlxLAcDtbK5lxW7tpII7RIWuEkuJUtdTt3bQzRaacgjE6EAVtxYxmIZpubOHEMRvp7W7W3Fs2HItnJFw6M0jzrH5L72JC7x6hsIOtM/O8LMUl6IzDbSzsOHk7p8K89yPjOZ73io8zy3ibepYk2c29ZC4DIu6yiTqz2EgyEDnvA8qtjpKw+1vZLCW8tWuUijlCrcYE+LWoJ2+dDGQ6ycvJk80DeDzIpNqJF14zDbQzDbXlsSZkTErSO3mxfDHurGwidIbbr4rdBLKJCJJI32uFKnR2Yjfz12jTekTM8llcR2F3fYV1XyrcKLXD4fy8i3R6gMGiIO5STy0Z9ddT2089Lnjq9EZhtpZ2HDyd0+FedQ5nxWTOVrbTYlfI0uJG1ksFsFNoIhAz6ifq9et1AJXrCRz8gAaj0Wdhw8ndPhV2qlb0zLJ3pHYfNXmv7Gu/uXqkZhtqb6R2HzV5r+xrv7l6pGYbaihmG2lnYcPJ3T4UzMNtLOw4eTunwoGZhtoZhtoZhtoZhtoBmG2lnYcPJ3T4UzMNtLOw4eTunwoH3D20Ubh7aKD4zDbQzDbStPFt9InvChp4tvpE94UC3NzDbWss9zKkMMSF5JJG2qigakknkAB664k2ecpmCQDM+DElT/f4vZ3qwdI80Z6LM1ASIScGu9BuH6l6MfxW1wa86uS2CxdWjAwYRNesSxftEIJUeT2keug2WzzlLb9KMG+IRfiobPOUtv0owb4hF+KtrBxbYjhcdy9rb6szrqINmoVyoO08x2dh7K3uBtP8LD/DFBx2zzlLb9KMG+IRfipZs85TMEgGZ8GJKn+/xezvV2uBtP8ACw/wxRwNp/hYf4YoOO2ecpbfpRg3xCL8VDZ5ylt+lGDfEIvxV8vMey3YYuMNuurW43IrlbN3ihZzoiySqpSMsSNA7AnUadors8Daf4WH+GKbVHHbPOUtv0owb4hF+KlmzzlMwSAZnwYkqf7/ABezvV2uBtP8LD/DFHA2n+Fh/hig47Z5ylt+lGDfEIvxUNnnKW36UYN8Qi/FXY4G0/wsP8MVrp8lyYjNYpFAbmCNJZI+qHkq5YKddNOZRv8Ah+6g57Z5ylt+lGDfEIvxUs2ecpmCQDM+DElT/f4vZ3q7XA2n+Fh/hijgbT/Cw/wxQcds85S2/SjBviEX4qGzzlLb9KMG+IRfirscDaf4WH+GKOBtP8LD/DFBx2zzlLb9KMG+IRfirtzsOHk7p8KmOkWztV6Ls1MttCGGDXZBEY5fkXqlmmiMEmkieafrD2UGRmG2hmG2laeLb6RPeFDTxbfSJ7woGZhtpZ2HDyd0+FDTxbfSJ7wpZpojBJpInmn6w9lBkZhtoZhtpWni2+kT3hQ08W30ie8KCd6R2HzV5r+xrv7l6op2HDyd0+FTfSPNGeizNQEiEnBrvQbh+peqKaaIwSaSJ5p+sPZQLfWtpiFjLaX9vDdW0y7ZIZow6OPYVPIiuSuS8qQvbyQ5aweN7VdsDLYRAwjUnRTt8kasx5esn212mni2+kT3hQ08W0/lU94U0HJvcpZZv4Wjvsv4Vco07XDLNYxuDK3nSEFfOOg1btNcx8gYPHmxsyo8vEoCUi6qHap6vYPL6vrdoHYhfYDoQvIaUMGLYdeAC0v7WctEkw6qZW1jbXa/I+adDoew6Gs000Rgk0kTzT9Yeymkk8JaFplzAcNEhw7BsPtDLKs8nUWiJvkHY50HNhqdD286WywCys47zry1/JeXQu55btEYvIu3YdAoUbAiBdBqNoPM6k78t7axtGklzCrynbGrSAFyASQB6+QJ/cKEvrS4VzBdQyhHKNskB2sDzB07CPZSLaZlho/2bwBLy6vUwXDlurxSlzOLRBJOrdodtNWB9etbGLYfYYrhU9nilnb3tq6+VBcxLIjacxqrAg6EA1tNPFt9InvCuVc5qy8luN+PYYvXStbRa3kY3zDkYxz5uDy2jnTkc3y4ynlq5tbSC4y/hUsNiNLSOSyjZbcEgnYCui9g7NOynvMsZevop0vcDw24W4MZmWWzjcSlBom7Uc9o5DXsHZXTaeLb6RPeFavyzhb3MdquJWjXEyM8cInXe6qdGYLrqQDyJ9VBPYh0cYBe41YYiqG1GHrGsNrBBAI1WNtyqpMZeNde1Y2QMORB1OvYky7gMct9eR4Nh63V4hFzOLRA8/r8ttNW5gHn7K6bTxbfSJ7wpZpojBJpInmn6w9lBxr3K1pffLD3F5dGfFYVt2mHVhreJdSqR+RpoGZm8oMSW5kjQDejwbDIsQ+U+CtnxMwiF8Qa3QTyKNORcKDpy7Oz9lbrTxbfSJ7woaeLb6RPeFBLZ/tLS06K81cJbQwaYFcxDq4wuiLDJtXl6hqdB2DU1UzsOHk7p8Km+keaM9FmagJEJODXeg3D9S9UU00Rgk0kTzT9YeygyMw20Mw20rTxbfSJ7woaeLb6RPeFBO9I7D5q81/Y139y9UU7Dh5O6fCpvpHmjPRZmoCRCTg13oNw/UvVFNNEYJNJE80/WHsoMjMNtDMNtK08W30ie8KGni2+kT3hQTvSOw+avNf2Nd/cvVFOw4eTunwqb6R5oz0WZqAkQk4Nd6DcP1L1RTTRGCTSRPNP1h7KDUxrCbLHcO4LEUEtuZY5HjKgrJtYNtYEEFTpoR6xrWtPlLLM9raW8+XsKkhsdeEjexjK2+p1OwFdF1PPlpXWaeLb6RPeFJNd28MDyS3ESRopZnZwAoHaSfUKDnQ5esIby/uptbpr2JIGjnRCkcKa7YVUKBsBZjz1PlHnoABuXFlZOksjWsDSF+uLGIa9YF2h9dPOCjTXt05VkkvrRFjL3UKiVgsesgG8ka6D2nQE/wC6mmmiMEmkieafrD2UHOtMsZdw2SabDsCwy0lmdXleCzjRpGVtysxA5kNzBPYedZrnBMHumWS5wuymdOs2tJboxXrBpJoSOW4ed7fXW608W30ie8KGni2+kT3hTQJNBbzNFJLFG7wNuiZkBMbaFdVPqOhI5eomtHGcBwXGlSXGMJscQktgxge6tklMRPaVLA7ewdnsFbkOIWd3CZLW7gmQMyFo5AwDKSrDUesEEEeoikmxCyNlcSi7gMcSuJHEq6IV13anXlppz9lBpw5esIby/uptbpr2JIGjnRCkcKa7YVUKBsBZjz1PlHnoABvSWVk7mRrWBpDKJixjGvWBdofXTzgo017dOVZeIheMMs0bAjUEMOdfWni2+kT3hQcy0yxl3DZJpsOwLDLSWZ1eV4LONGkZW3KzEDmQ3ME9h51ix3LOE4xhs8U9rDFMY5equooU66BpB5bIzKdGPr5c/XrXQ+VcPa9ksVv7Y3ccYle3Ey9YqE6BiuuoBIPP9lYTjmEziOGDE7OSW6gM1vGlwhaaPTz1APlLzHMcuYptQbDW0ZjRnbfcxxGNbpkXrADpqQdNBqVBI001A5cqxYTh0WDYNb4fFPLOsC7etm273OupJ2gDXU+oAfsrbaeLb6RPeFDTxbfSJ7woJ3pHYfNXmv7Gu/uXqinYcPJ3T4VN9I80Z6LM1ASIScGu9BuH6l6oppojBJpInmn6w9lBkZhtoZhtpWni2+kT3hQ08W30ie8KBmYbaWdhw8ndPhQ08W30ie8KWaaIwSaSJ5p+sPZQT/SOw+avNf2Nd/cvVIzDbUz0jzRnoszUBIhJwa70G4fqXru32JWdhYy3V3cIkMS7nbt0H7hzoMs8UNxGFnjSVVZXUOuujKdQefrBAINNOw4eTunwrWxDE7extRNI6MrSxxadai83cIObMB2t2a6nsAJ0B51/m/BIsExC9tL+DERZsYZYbGVJpOtJ2iLQHk5YgaHTt56U2KVdWGzs7R7iS0toYJLmTrZ2ijCmV9ANzEDyjoANT7BWdmG2p7Ec8YPY2Md2HkuYJcMnxON4ApDQxBCQNSPKIkXQfv1IrdmzRgMN61jPjWHRXixdc1tJdxrKqAbixUnUADnr2aVaTBz4uozDbSzsOHk7p8K1JcbwqPrFfE7NWjbY4NwoKNs36HnyOzytPZz7K05s3ZbOBPiYzBhRw8kxi7F7H1Rf/Z37tNf2a1B0rmzs7qaCe5toZprVy8EkkYZomI0JUkeSdCRqPUadYoYetaGNEaV98hVdC7aAan2nQAa/sFaeGY7YYvYxXFrOg62JZhE7rvVWJ2kgE6a7T/wNcmxzxBiGIJb/ACRiNvbS3UtrDfSmAxSSRlwQAsrSAHq20LIBy9WoobVUzMNtLOw4eTunwrlpm3Lk9nd3MGYMLkt7I6XUqXsZSA+xyDov++sb5swaZ7eK2voLiG8s57qO7hmR4NkRRWJcHTtkH7OR7NKDtMw20Mw21yGzflr5H+VP7Q4V8nb+r4zjY+p3f7O/dpr+zWmmzVl6G5trWbHcMjuLxVa2ha8jDzhvNKDXVgfVp20GY4Jg4xhsYXC7IYoy7DfC3TriummnWabtNOWmtbs7Dh5O6fChp4tvpE94Us00Rgk0kTzT9Yeygn+kdh81ea/sa7+5eqRmG2pnpHmjPRZmoCRCTg13oNw/UvVI08W30ie8KBmYbaWdhw8ndPhQ08W30ie8KWaaIwSaSJ5p+sPZQZGYbaGYbaVp4tvpE94UNPFt9InvCgZmG2lnYcPJ3T4UNPFt9InvClmmiMEmkieafrD2UGXcPbRS9fF+tT3hRQfWYbaGYbaGYbaGYbaCb6R2HzV5r+xrv7l67F9gtjiMwmu4maQKF3LK6cgSQPJI17T/AMa5HSMynotzVqeXyNd66D/5L0rYlnZELHL2X9ANf8/T/wBHQUNpaQ2NqlvapsiTXRdxPadTzPPtNZqmTiOdh+j2X/j0/wDR0HEc7D9Hsv8Ax6f+joKaipk4jnYfo9l/49P/AEdfGxLOyIWOXsv6Aa/5+n/o6DAq41g+O4rBaZfbE7fE7yO6ju+KijhiBREdZQx3gr1eo2I4OoHLnpK3OSsXnTGkgwTqL2e1xGK4xATxg4oZn1gXUNuO1eX5QLs00XUHWrI4jnYfo9l/49P/AEdBxHOw/R7L/wAen/o6Rt9fzOq71+UTjfRrOsOJ/IOBW8Ly3NwkBhaOMi3ewKbQdRtUznUjlq3lH21lxPo3vYpL5ssYbb4bcSXk4trmFkiMUD2OzQEalVM/MgDzvKIPbVicRzsP0ey/8en/AKOvjYlnZELHL2X9ANf8/T/0dNvimZxRI4F0fMYbG2vsBmXC/lMzz2GJcCUC8K6buptkWIAyFeQ3EkBjpXYyNli6wTG0ucQwdY53wO0tWvQYmZXiLhomYNvJ2mPnoVIUc9QBXXOI52H6PZf+PT/0dBxHOw/R7L/x6f8Ao6tb1SlqZrVTUVMnEc7D9Hsv/Hp/6OvjYlnZELHL2X9ANf8AP0/9HUVT0VMnEc7D9Hsv/Hp/6Og4jnYfo9l/49P/AEdA3SP/ANVma/sW8+4eqCdhw8ndPhXn2fb7N79G+ZVvcDwSK2bCboSyQ41NI6J1LalVNqoYgdgLDX2jtr0Gdhw8ndPhQMzDbQzDbQzDbQzDbQDMNtLOw4eTunwpmYbaWdhw8ndPhQMzDbQzDbQzDbSTu620jW8YmlCEpGW2h205DX1fvoJ7pHYfNXmv7Gu/uXrNnPBbvMGW7myw/FbjDpGQ84ljKy8vNbfG+g7uh/bXGzJiVzi3QTj97fxxRXM2B3hkjhJKKwicaAnmRy7Tp+4VazsOHk7p8KCXzfh2KvkkWeGXWJ398jp+VhdIpZtDqd5SW2AHt2Oh7ORGoM7YYZnePO1vdYjJdcK3V9YYXMluidUoaMhrxRruDeXw7Nz13H1emMw20Mw21Ka8ybxR5X/ZfNNplhYsPjktrpcDwu0cRSjezQySmaNSssZB0deYkQHXk1b+BYNmHq45swNi7w21hcKlsLwwsZC2iqQt1LvbYW0Z5W01B1BA09FZhtpZ2HDyd0+Far/2n1Hq/wC3Tp/jiZlS8STCsQw+wlxFrC6aSS1hdFkdWiePVTIyqSC4JBYctfXoDIPg+aUxbD7zD7W8tjcXdxczwyXI6i2WSQkdZ1dwoZwumo6uZdeQK82r0xmG2hmG2s0vU2o8nwTL2dHt+Dxm4xdImuLc3Li6aIyAMetZJReyuoI+qqxDnyUHkCaxu8Vy9OcGsI8XW5ssQwl3juIxwUrXBO59zA7fW23V/JXkda9YZhtpZ2HDyd0+FWLUzWKfhvXNa/rWkkMkZtZrOWSJm6l3JTay7NS+m7Xbr5PZrr6tOdTFvg+A5XzHgODYBb21gm25nFpE2hI2KpfQnX1Aa+2rJmG2hmG2iUtTgGYbaWdhw8ndPhTMw20s7Dh5O6fCimZhtoZhtoZhtoZhtoJvpHYfNXmv7Gu/uXqinYcPJ3T4VO9I7D5q81/Y139y9UU7Dh5O6fCgZmG2hmG2hmG2hmG2gm+kdh81ea/sa7+5eqKdhw8ndPhU70jsPmrzX9jXf3L1RTsOHk7p8KBmYbaGYbaGYbaGYbaCb6R2HzV5r+xrv7l6zZzwW7zBlu5ssPxW4w6RkPOJYysvLzW3xvoO7of21h6R2HzV5r+xrv7l6op2HDyd0+FBOZps8XXJEllhU19iV9qimZZY4Z3XeCzao0K9naFaMka6MDUZNgebpsoRWeKWuM3svUXccUVpiawvFI76wtMWuG6xAp27Wkl00OofUGvWGYbaGYbalNVrSnJ5riOB5gmxqNls8Vklim3xXaYkgtEi4YqqCEyDSQSHzgmvr36HbWnfZfzlZ4hhRs7rFJraK0gDtxDXBil1JmMm+9iD6k+tJQANFA0APqzMNtLOw4eTunwrUWlmlqcqPJ5sIzsBNw8GLuFxHroOvvivWLz1Mu2+8lB5OmzyfO1t+Qr0TEWv48uXowW3kGIMZFt1uZQ+12cgOSWPkDXdt11C8gAfJrrMw20Mw21mlqZwa3q82hyxmTL+GXWGQMMQsZzBOxwjWwk8gokkal52Id0VW3BlBKvqVLanQvcvY/8A2Xkt/kvHXimS+MNrFi0aTQSSPrE9w/XATLt5EFpPXqr6616wzDbSzsOHk7p8KuZ7bcNdSuZ17PMcZy5mz5LmksJ8RaSTENZLaO9clrdYtEEYW6gCAOSTpIpPLUMABWK5wrOkkqMflqXfhnVTyCZISr6HQRot9t3a7QSQG03ETjkK9VZhtoZhtpN85UZiKZzq8/ynbcZJiWC5qiie8ewtjcWM0xlZ498oG8NJIWBGgYF3GuoLMOZ2LCNcK/sfg1yYoL22wyVWtQ6llCxKp0APYDy1HKrhmG2lnYcPJ3T4VZmskRSKGZhtoZhtoZhtoZhtqKm+kdh81ea/sa7+5eqKdhw8ndPhU70jsPmrzX9jXf3L1RTsOHk7p8KBmYbaGYbaGYbaGYbaAZhtpZ2HDyd0+FMzDbSzsOHk7p8KCd6R2HzV5r+xrv7l63syZawfNeFtY45Y293H2oZYUdoj2bl3A6H9tZ8wYXFj2W8SweeVoosQtJbV5EHlIJEKkjX1jWuU2B5j2/TGb4dB/Kg3MSy9Z3GX4MJw5YcOtre4t5o44IAEQRTJLtCjQAHZp+zXXn2VNx9HUhab5UxyeSx683KWVjJc2yxsFYIFfr2ZAN7EqhVSQuirod3YbA8x7fpjN8Og/lSzYJmPqH1zjMfJPL5Pg9n7qZ+doNqOfN0eBsPnsYsWkFrwF9Y2yyxtK8Mdz1Z5uzkvtaNtNeZDAa8tTuS5QnlxRzJiNu+EyXYvZLQ2R65pdgTTrt+mzl2bNdPJ3acqzNgeY9v0xm+HQfyobA8x7fpjN8Og/lTP7+msUy7ip0XW/A3NvdYrLPxFk9u79WUZpCSFlJDecI9E5aEgdo15NZ5DxLDLY3MON2z4pHMZVuLi3urhGUxGMqyzXTvroToVddPYRrr2GwPMe36YzfDoP5Us2CZj6h9c4zHyTy+T4PZ+6g6OAYVJgWB2mGNcxTw2ltHCpSDqyWXXVvOIAI00XTloeZ15SVp0XQ2+OG+mmwjbxk91xFrhHU3zdaZPIa5606qBIR5g1AHZXebA8x7fpjN8Og/lQ2B5j2/TGb4dB/Kk3mslbUc5ckYgbeNrjGrN7qyigiw948MKRxrE+5etTrT1h5DzSgHMqAaW8yBx1jP8pYoJJ7i1vY7hre3MKM9w0TbkAclAvUgabiTqTuBrptgeY9v0xm+HQfypZsEzH1D65xmPknl8nwez91PPXX7Is4R6N8SGFtEuYYxdtdCdrnZfMWUIUA3temVSNTzSVQRqCp1rqWGRI7DBeAN/1ultZW4kaDnpbys4J1Ykk7tO3lprzrbbA8x7fpjN8Og/lQ2B5j2/TGb4dB/KgpGYbaWdhw8ndPhU62B5j2/TGb4dB/KlmwTMfUPrnGY+SeXyfB7P3UDdI7D5q81/Y139y9UjMNtSGL5RxrGcFvcLvs33DWt7bvbzKthCpKOpVgDpy5E1Xsw20AzDbSzsOHk7p8KZmG2lnYcPJ3T4UDMw20Mw20Mw20Mw20AzDbSzsOHk7p8KZmG2lnYcPJ3T4UD7h7aKNw9tFB8ZhtoZhtpWni2+kT3hQ08W30ie8KCd6R2HzV5r+xrv7l62c25lt8sYDNe3FvdXHkkKlvayy6nT6xjRtg/a2grU6R5oz0WZqAkQk4Nd6DcP1L13rzhbmymhn6mWN0IZH0YN+8HtoNK8zDbW2ApiaW95MszIkNtw7RTyOzBVXZLs2kk/W2gdpIFcn+3sXWOk2X8ZgFuVF88scIWy3Nopc9Z5Y08rWLeADz07K72KWdhi+HSWd+Q8LkHyJjGykEEMrKQysCAQQQQRyrix5FyvBMs8cU5k3rJKz4lcNxLK2qmfWQ9eR6us3aAADkAKRqTpZrXHSNbxNMEy/jUqRidkkRIAsqwPsmZd0oICn/a2ltfJDU95n63FxLa2mC4teqZOHjngSIJLMYRMEG+RSPIOu4gKNCCQeVdh8DwVoTGYk29XPFp1zebOwaUdv1iNf2erSvnyNhFvEDBEitHLxCflWOkgi6rXt/2OWnZ6+3nSOeZHUnlnDz0Ts/S3lqC9sbSaR4nvIY5W62aCMwCQkKGRpA7nUEHq1fT/AHisuI9Ighw/EpbbAsSLW1vdS20kvUiK6a3ba4XSXcNDz8oLqAdNTyrpnKeAo9s9ubq1NsqqgtcTuIFYKxIDhJAJNCT5+vaR2VsXGX8DuLFrWWFTC0c8ZUTsPJnOso1Da8ye31erSpenNY15OUmdJ1usQt5cJubq4jvUt7aytBH1xBtYpnLs8gj8kuw13adgGp7epgOMzY1lu2vbi3aJri0WYsF2oS2uqgElgRoNdR6xzPPTDcZUwCe3aNhMrNMs5njxCZJt6xLEG61XDg7FCnyufr11Nb1nYYfhOHC2w8mOGK3EMcZnZ1VV100DE8+Z1PaeWpOgrVs9k2S8GfLsyQWt7Bbx3MuJyQqFVtstqJJUDrqfPBjAYakDUHkGArrXWdrGCwhuI7O+uGuLe2nihiRN7id9ka82AB17dToO3WtufLuAz8EZrWF2w+5e6tWMh1ilfdvIOvMHe2oPLs5chpq2GTst4Wp4OGTXWHaZr6aYoIn3xqu9ztVW5hRovM8udT08+PQnjHDrVzLvpFU4XeSW+DYha3EdtcvCbyONkeWA6SRaRyMxIPrA2n6rGvuM9JuF4NhrtjNjeYfdmXqBZXc1tE51QuH3tMItpAP19dRppryrtXmW8BvbVoLm3R42FwCOvYenOsvY31if93q0rWkyhgC4ZLbqbvVpDNxHypccRv27fT9Z1mm3lt3aactKl8zOpvnx5PgecrDMt20WEwXMtuttHcG8/J9T5fmoCH1Lcm7AV8nt5jWgZhtrnWGGYbhXWPZsxklREkkmunmdwgIXVnYknQnmTqfXW+08W30ie8K1PJIrS6d6R2HzV5r+xrv7l6op2HDyd0+FTfSPNGeizNQEiEnBrvQbh+peqV/ykD9WQ25SBoe2or6zDbQzDbX1zopJ5AUjTxbfSJ7woMWIX9thuG3N9fTLDbWsTTTSt2IijVif3AE1wJukHLZgcC9m1Kn+5T+zuUdI80Z6LM1ASIScGu9BuH6l6oppojBJpInmn6w9lBPt0g5a2/ns3/kp/wAFfT0hZaA/PZv/ACU/4KoWni2+kT3hQ08W30ie8KDzfOWbcsR9FeYsMwy4mUNhN3HFGbWftaJ+W5l9p7Sar825lt8sYDNe3FvdXHkkKlvayy6nT6xjRtg/a2grU6R5oz0WZqAkQk4Nd6DcP1L13rzhbmymhn6mWN0IZH0YN+8HtoNDEMyW1nl+PFUtL64SaSOOK3W3MUzs7hFGyXYV5kedpp2muJf9IkEVldrHheIwXVtZXFzcCWGJxZ9UDr1gEwDknboEY67hzA1I7mYsKtcw4ULG4uRHHxEMzFHIY9XIr6BlIKnyeTA6g8x2VrplTLsVjPaiDfHcW0lrMZLqR3ljkOrhnZizEk+cTu/bSNb8/wAt1zjeGb36Zw1MWz9ZYOt5LdYbiT4fYjS5xGKOMwxPsD7SN+/1qN23aCebDQ6ZcvZ3w3NuHTS4SjOYnMU6LcW83UaoWDM0UjoQdNNFYkEjUDmQ+I5Py3id5Jc30DSmQhpIeNlWF2ACh2hD9WXAA0cruBVSDqoI2rPBsOwq0dLW6vpAGMg4rFLi4O7aV01kkY6aHzezXQ6agGkc2b2cfH843OCYxiVvLDBwcNgklvOQ2q3LCUqj89NrdWADy8rlzLDTo2ubLWaxieaKUSNcJavtUadYYRNqOfm6HT26/wDGtrE8FwXF7bEIMSghuIsRgW3ukdzpJGu7QdvLTe3MaH9vIVp/2Ry6uKLiKxP16MrqvGy9UHEfVh+q37N+zyd23XT11L3+Gp2+fGd3Nh6SbWeON3wHGYIZEgmMsscIVIJm2xynSUnQkEbdN405rpzpR0hQ22GXs+YMPurGGEXZjvCiCG4ELsNqeWXDbQD5SqDoSDpXdfAMDa04cwp1XUQ223rm9HCxaNe31Ek69p9etaf9kMuwG8mSF3a5SYMkt7LJGnWHc5RGcrGWPMlADV9W9E8ec4c2hhPSdhGOtaw4Xa3N1cXFybdoree2m6nRdxd3jmZNu3U+SxblpproDZMw21xbLLuD4dJFLDLdTywOzxPeYlPdMhZdp0MrtoNPV2evtrsNPFt9InvCrKRXczMNtLOw4eTunwoaeLb6RPeFLNNEYJNJE80/WHsqKyMw20Mw20rTxbfSJ7woaeLb6RPeFBO9I7D5q81/Y139y9UU7Dh5O6fCpvpHmjPRZmoCRCTg13oNw/UvVFNNEYJNJE80/WHsoMjMNtDMNtK08W30ie8KGni2+kT3hQTvSOw+avNf2Nd/cvVFOw4eTunwqb6R5oz0WZqAkQk4Nd6DcP1L1RTTRGCTSRPNP1h7KDIzDbQzDbStPFt9InvChp4tvpE94UE70jsPmrzX9jXf3L1s5tzLb5YwGa9uLe6uPJIVLe1ll1On1jGjbB+1tBWp0jzRnoszUBIhJwa70G4fqXrvXnC3NlNDP1MsboQyPowb94PbQcrGsytZZct8Uw7D7q74i5t4RC8RgkVZJVQkpKUKnyuw6HXT1amuZinSCtrheIXNtguIMIbeeWznlEQivGi13Bfym4DkT5YXUAka8taLFbKwxjDns79i0LOj/krhomDIwZSGQhgQyg8j6q5jZPy5vvHMUjC8ilikja+maNFl9J1aF9sRb1lAppn55WNqtVukPDEzZbZcuba4tr+4UbRLLByYx9Zt2CQyEaAjeEKagjdUvJ0hY/eW9rw7W8LTYLa3zRRZfvL/AKyWUPqu+KQCJfIAG/XtJ1OlWUOUMv22IJfRcSZ43EiiTE7h494XZv6tpCpcryLaanU6k6mtyxwfCMGt2GGRpDttI7RfyrN+SiDdWvMns3Nz7Trz1ptnPPhIs5MOdhcXdvbzWFzYHjeDneZEkjaQW8krojLICNuwauVIPYBzJXSxLpVwzCrKC4xTCcSso7wg2TXT20KXSkFtyyPMETkNdsjI3MaKTrpSNg2D9as3VRl0u2vVJlPpmQxs2mvrViNOzn2a1yv7BZXTykS7SRBthkTFrkPbr/sQsJNYkPrRCqkAAjkNGvTyZ17dXZwjG7XHcOhvsODSWdxCssU+qlX1JBUaE8xpzPZzGhPPSUTPl2VS1vILeO5lxGWFQqttltQ8qB11PngxgMNSBqDyDAVX2ltaWEKpBcTOFjWIdfdyTHRSdCS7Ek8zqx5nlqToNNC7y7gM8NqZbWF2w+eW6tWMhJjlfdvIOupB3tyPLs5cho9WtiNKS17rO1jBYQ3EdnfXDXFvbTxQxIm9xO+yNebAA69up0HbrXNu+kVThd5Jb4NiFrcR21y8JvI42R5YDpJFpHIzEg+sDafqsa6dhk7LeFqeDhk11h2ma+mmKCJ98arvc7VVuYUaLzPLnWxeZbwG9tWgubdHjYXAI69h6c6y9jfWJ/3erSk8szsZ3cfFek7C8EsS+M2N5h9314hFldzWsTnVC4frGmEW0gHtfXUaaa8q6GD5ysMyyyxYTBcy262i3BvPyfU+WDtQEPqW5N2Ar5PbzGocoZfFi1sDd6tN1xuPlS44jdt2+n6zrNNvLTdppy0rftMMw3C4rhrNnMksSpJJNdPM7hAQurOxJPM8ydT66Jd02YbaGYbaVp4tvpE94UNPFt9InvCip3pHYfNXmv7Gu/uXqinYcPJ3T4VN9I80Z6LM1ASIScGu9BuH6l6oppojBJpInmn6w9lBkZhtoZhtpWni2+kT3hQ08W30ie8KBmYbaWdhw8ndPhQ08W30ie8KWaaIwSaSJ5p+sPZQZGYbaGYbaVp4tvpE94UNPFt9InvCgZmG2lnYcPJ3T4UNPFt9InvClmmiMEmkieafrD2UGRmG2hmG2laeLb6RPeFDTxbfSJ7woGZhtpZ2HDyd0+FDTxbfSJ7wpZpojBJpInmn6w9lBkZhtoZhtpWni2+kT3hQ08W30ie8KBmYbaWdhw8ndPhQ08W30ie8KWaaIwSaSJ5p+sPZQZGYbaGYbaVp4tvpE94UNPFt9InvCgZmG2lnYcPJ3T4UNPFt9InvClmmiMEmkieafrD2UGRmG2hmG2laeLb6RPeFDTxbfSJ7woGZhtpZ2HDyd0+FDTxbfSJ7wpZpojBJpInmn6w9lBkZhtoZhtpWni2+kT3hQ08W30ie8KBmYbaWdhw8ndPhQ08W30ie8KWaaIwSaSJ5p+sPZQZdw9tFL18X61PeFFB9ZhtoZhtoZhtoZhtoJvpHYfNXmv7Gu/uXqinYcPJ3T4VO9I7D5q81/Y139y9Zs52+O3eW7mLLF5b2t0UOvWwM7ONOxWEibD+06/uoO8zDbQzDbU9mCfGLLKiEXTtdiSNbq6wyxLOkZcb3igbrCSB6vL9Z0PZUBc4nm/DMKtGwk4lw011eSvcS4fKk8zddrGZYks5mUFdSdEi1J5FfNqVubVzd7AzDbSzsOHk7p8K8txbEsyYcMXNpPjPE3WIwSbocOdoo4zapqI3FrKQu8EejcjYA2wtuOS4OP4rhKS4ph03FPa4K8xWz2sZVvWaYFtoJCqAxHYoJOg3GtRF6e3XsbVzWj1BmG2hmG2ovKOKYzd3l/Fjc2JMkd7pbzSWbRxzKVfyNrW0bIgAB1Jca7QJW1Irk9IWGw3GYhdHD2vLnhFS3F3gM2IRbgzEdRLCwa1k1I3OxA8wjzSazXTmvF6UzDbSzsOHk7p8K89shmH+2dxbi8xa1t5r9Z7hGtUkiWMWkZEaTNFoylwyEgk+T2gnU4rH+1XyBYSpc3tgLTDcOLYfDh8KRyu7ETqymLcu1QPJQrtrVP51SLw9JZhtoZhtrz3LGZMSv8229tc4pfTi4iu3uLWWxVLaFo5EVRBMI1Mi+UQSGk9WpU8j6EzDbU2iTcMw20s7Dh5O6fCmZhtpZ2HDyd0+FAzMNtDMNtDMNtDMNtBN9I7D5q81/Y139y9czFrHrOkC3nGGzy4h19u1rfpauUhtlDdchm02rr5WqEgtuXkdNR0+kdh81ea/sa7+5ellhzsIXPyrgHJT2YbP/AM+m8TwNphtXGE2mPYtYYuLrFrd8OOscKyS28chZVby42A38jpzHLVgeYIHcZhtqbaHO23/OuX/hs/8Az6Ggztt/zpl/4bP/AM+m1Deo6R2HzV5r+xrv7l6op2HDyd0+FR2PYHnHHsu4jhFzjGBRw4hay2sjx4bNuVXUqSNZ9NdDVjOw4eTunwoGZhtoZhtoZhtoZhtoJvpHYfNXmv7Gu/uXqinYcPJ3T4VO9I7D5q81/Y139y9Zs52+O3eW7mLLF5b2t0UOvWwM7ONOxWEibD+06/uoO8zDbQzDbXBxsY0uW7eGC+K4jJcQRTXdjaAbUaVQ7LHJ1gXRSfOLadtTtzjuYcEs3hu/lbEX6m/ht54sM6x5ZlkXh2cRR7V1UnRiFQ6ammZmqxFaPQGYbaWdhw8ndPhUPIma7zFAy4ziFlby34tTFHYwlYoOFDmUF4yd3WgruJK89NpNcQX2Ykvo7qaTGYcRuLG0TqY8J3QXbrJKHE8nVkReSQToY9N2o15KKzW1XqrMNtDMNteTnHs/Nf4zA3ERyAS9Si2csixaSaRmI8GsbHaRrrNJrz0A9XZiw7HY8av7O1xHErSO6xdOuxFLaIySxrh8Y3+VEYxrIgBIUDXUDSpF4ryr1XeYX7MNtLOw4eTunwryXH7K4vkw++xfD5b3Fzhsaf5dl2W9QygtzheEqbSUk+UzaDzCvmmuhdXONWN5i4mu8fs7ee+jeaS0w7i2t0NomixHqGEi9YCrMA5G0a7Sxakb5vQ3zM93pjMNtDMNteXY5imZ5cFCXU+N29xJhq8NBY4MLhb2Vi4YXHkHqiR1eq74gNzeVy8moybPiZwi2ix5rqG+jV1e26j8goGzbtk6sE6KRpqdSWk1Hk6Ki9eXlJnTmqWYbaWdhw8ndPhXmmYsNxe3bHrnD7K5uYMQxaBJ7dEYttAt9twg9YG1lbTtGh+podu9zHmKazvbOyt8SS9toMR6yWTDGEe8Sf5NtYoFk1XmNhOunPnTaJXd6EzDbQzDbUI0eabPEnWTF8RxG1jxBbYJLZQgTQPAGaRmSJT5LnaCu0DTRtxrgWWJZssslmHBpMXuDb2dqkpv8LNs9o+4LIkCi3ZpAEB57JtNBzbXSpE1Jstukdh81ea/sa7+5eqKdhw8ndPhXml9iWNYh0NZtbHusLLgd0I2kgkjZvycwJbrIISW0C66RqOzQc69LnYcPJ3T4Ui4ZmG2hmG2hmG2hmG2qJvpHYfNXmv7Gu/uXqinYcPJ3T4VO9I7D5q81/Y139y9UU7Dh5O6fCgZmG2hmG2hmG2hmG2gm+kdh81ea/sa7+5eqKdhw8ndPhU70jsPmrzX9jXf3L1mznb47d5buYssXlva3RQ69bAzs407FYSJsP7Tr+6g7zMNtDMNtT2YJ8YssqIRdO12JI1urrDLEs6RlxveKBusJIHq8v1nQ9lQFzieb8Mwq0bCTiXDTXV5K9xLh8qTzN12sZliSzmZQV1J0SLUnkV82pW5tXN3sDMNtLOw4eTunwrz+K3xd8dlk4Z4WuscSR7gWm9Y1+SgvWIZF1UCQBd3Lnqp7SK0caxzPT5dW8jguLImdba4jggYuuyI75EAtp22vKSAerYbFUgruJqzbp1Xhzz+PUGYbaGYba8wucUz1Jgd5fxTXKyx29oqQRWbKujN+VlXfbNKXAAGnVkDcfyZ5Aa2IYtmi+yeseIT4tD11rcojWOEyzyXMvIJHOr2qMikE+UscQPqYac07xwzPrVIvTm9YZhtpZ2HDyd0+FeWTYXhz4liK/2fuhmWW+t2ssTTCJQ0SiKAbuK2bVVdr6rv5gMuh10OC/xbN+J3GZrInF0sXw+9EQ4FkaKRfRLHrbAHcAw1Es27tG0kCk59Hpu9cZhtoZhtrzayxvNhz5DbSNdnCnaNYxPZzKrwmIHrG22eiyltdQ06AHkUHr72cIre9yTbLe2tzitrxNo9xFJYNNJLGJULF4FTUnQElQnt5CnD3SLqtmG2lnYcPJ3T4V5Zez3mD4TdyZIsMTwjDLq9jEEFvhckWzbEesZYTbytCrNoNeoILKx5bwxx3WI5xjsJ79PlIYncYNY9dEbNhFEwlkE5Qi3f8oAQdu1jo5OwgDRnSq51o9ZZhtoZhtqfyXf4nf5XjmxwsbnrGUNJFJG7KDyLCSGE7v2iNR7KoGYbasxRImqb6R2HzV5r+xrv7l6op2HDyd0+FTvSOw+avNf2Nd/cvVFOw4eTunwqKZmG2hmG2hmG2hmG2gGYbaWdhw8ndPhTMw20s7Dh5O6fCgZmG2hmG2hmG2hmG2gGYbaWdhw8ndPhTMw20s7Dh5O6fCgZmG2hmG2hmG2hmG2gGYbaWdhw8ndPhTMw20s7Dh5O6fCgZmG2hmG2hmG2hmG2gGYbaWdhw8ndPhTMw20s7Dh5O6fCgZmG2hmG2hmG2hmG2gGYbaWdhw8ndPhTMw20s7Dh5O6fCgZmG2hmG2hmG2hmG2gGYbaWdhw8ndPhTMw20s7Dh5O6fCgZmG2hmG2hmG2hmG2gGYbaWdhw8ndPhTMw20s7Dh5O6fCgfcPbRRuHtooPjMNtDMNtK08W30ie8KGni2+kT3hQTvSOw+avNf2Nd/cvVFOw4eTunwqb6R5oz0WZqAkQk4Nd6DcP1L128SxG0scMuLm6nRIY4yXbt0H7hzoNtmG2hmG2ta+xTD8Os3ucQvra1t086WeZURf3knQVpjNWXpI7do8ewxlukaS3K3kZEyrqWZeflABTqR2aH2UHVZhtpZ2HDyd0+Fck5wyy2EHE1zFhJw8SdVxYvo+q3/7O/dpr+zWntsx4XiODC8ju4okkhWTZLIoZA+oXcNeWpGg9tB1WYbaGYba4OJZ6ythkksF3j+GrcQyxxS24u4+sjLuqjcu7UDVgTr2DnW5imYLDDcAvcVMouYLOOSSRbd1Zm2a7lGpA3agjQkc+2m1TejpMw20s7Dh5O6fCpyHPWHrJNHj9vLlxo4hMDitxbKroTpqHjldRofUSDz5A866JzLgVxJe2kGNYdLc2kbPcwpdoXhUDmXUHVR++gy22CYPh9/c39hhdlbXt2dbi5ht0SSbnr5bAatz58632Yba4+GZtwTG2lXDMStbmNJREk0U6PHM2zeQjAndoNdfZofZT3ma8u2PULe49hlu10u6AS3kamYe1dT5X+6mljW7qsw20s7Dh5O6fCpyyz7g2JWst3aGaWxjtIrrio1WRX6wkLGqoS7SaqRtC9vLmeVZrbNtniUOFmG2ukjxeya5hkk2AR+SG2ON24No3qBHI86Dvsw20Mw20rTxbfSJ7woaeLb6RPeFBO9I7D5q81/Y139y9UU7Dh5O6fCpvpHmjPRZmoCRCTg13oNw/UvVFNNEYJNJE80/WHsoMjMNtDMNtK08W30ie8KGni2+kT3hQMzDbSzsOHk7p8KGni2+kT3hSzTRGCTSRPNP1h7KDIzDbQzDbStPFt9InvChp4tvpE94UE70jsPmrzX9jXf3L1RTsOHk7p8Km+keaM9FmagJEJODXeg3D9S9dvEsRtLHDLi5up0SGOMl27dB+4c6DbZhtoZhtrUxDE7extRNI6MrSxxadai83cIObMB2t2a6nsAJ0B0Z855XgeeOfMmERvbsFmV7+IGMk6AMC3Ik8udB2WYbaWdhw8ndPhWi2YcF+Vvkr5XsPlErvFnxKdcV0112a7tNOeula39r8t3OHXlzbZhwqWC1U8RLHexssPq8ohtF/30HZZhtoZhtrTt8Zwy+hhkscRtLlLhDJC0M6uJUBALKQeYBI5j2iuVJnG3ON3GH22G393FazJBc3sHVNHA7KrAFes608nUkqhA17eR0b0NqqFmG2lnYcPJ3T4VPjP2WprCae3xixlaNp1WDjIUeUw7t4Xc4HYpOpIGnMkDnW7JmXAnv3woYzh/ykUJFlxcfXebr5muvZz7Oyho6rMNtDMNtc7D8x4JjHWjCMYw+/MR0kFrdJLsPsO0nSt9p4tvpE94UDMw20s7Dh5O6fChp4tvpE94Us00Rgk0kTzT9YeygyMw20Mw20rTxbfSJ7woaeLb6RPeFBO9I7D5q81/Y139y9UU7Dh5O6fCpvpHmjPRZmoCRCTg13oNw/UvVFNNEYJNJE80/WHsoMjMNtDMNtK08W30ie8KGni2+kT3hQTvSOw+avNf2Nd/cvVFOw4eTunwqb6R5oz0WZqAkQk4Nd6DcP1L1RTTRGCTSRPNP1h7KDIzDbQzDbStPFt9InvChp4tvpE94UE70jsPmrzX9jXf3L1RTsOHk7p8Km+keaM9FmagJEJODXeg3D9S9dvEsRtLHDLi5up0SGOMl27dB+4c6DbZhtoZhtrTxLGMMwmxe7xTEbSytkIDTXM6xopJ0GrMQO2tG3zhgN3i02Fpilol/G+1LZ7iMSTDYr70Xdqy6N26eo+yg7TMNtLOw4eTunwrkxZuwKRLFJsWsLa5xCNHt7WW8h6yTcNQFCsQ371JB9RNc+LPFvdXHUTYViFpazTy2kF/MYDDLKpZdAElZ11KNoWVR2DtIBb0FQzDbQzDbXBuc9ZXhsZbpcfw2aKG4jtpWhu436uR32qraNy56nn6gT6q3BmXApbi8tosaw557FS11Et2ha3A7S411Ufv0pqOkzDbSzsOHk7p8K5WO5ijwdLRYbG5xOe7lMUUFm8IbUIzkkyyIoGin11qjO2AthAucSxC3wh5JHtzb4jPHDIsy8mj84hj3SQQQQSCDQULMNtDMNtcOTOuW4ziIucbsLZcNuFt7l7i6jjVJGUMBqT+3T94I9Vdhbu3mhWSGeKSN1DKyuCGB7CD6xQZGYbaWdhw8ndPhQ08W30ie8KWaaIwSaSJ5p+sPZQZGYbaGYbaVp4tvpE94UNPFt9InvCgnekdh81ea/sa7+5eqKdhw8ndPhU30jzRnoszUBIhJwa70G4fqXqimmiMEmkieafrD2UGRmG2hmG2laeLb6RPeFDTxbfSJ7woGZhtpZ2HDyd0+FDTxbfSJ7wpZpojBJpInmn6w9lBo5lxgYBlXFcY6niPk+ymuup37es6tC23dodNdNNdDXON7ncj6PZf8Aj0/9HSdI80Z6LM1ASIScGu9BuH6l6182w4k2Jh8NhtmJhQb7rCXvk5M+oASRNp5r2k6+yrF0ltm9zuR9Hsv/AB6f+jr495nd42X+z2XxuBGvy9P/AEddLLiSx4DAtxF1Um6QlOrMegMjEaKfNGhGg9VdSpKxomje53I+j2X/AI9P/R0G9zuR9Hsv/Hp/6OqWigmje53I+j2X/j0/9HXx7zO7xsv9nsvjcCNfl6f+jrtYrikOD4eby6WRoVkjRzGAdgZwu46keSN2pPqANci2ztht7cPb20dyZRfS2IBjHNo4y7SDyuceg0B9Z05VJmkVCm9zuR9Hsv8Ax6f+joN7ncj6PZf+PT/0dc7Aekmxxu9iw22t7ma64VJpZ1SJUQtCJQWiErSopBA3EFNSF3k6a61l0jXN7lu0uXw2Szv3XD5JBcRr1csdzIEMkQWQnTk+gfQjlqOdWbdOo7Rvc7kfR7L/AMen/o6+PeZ3eNl/s9l8bgRr8vT/ANHXNwbpNssXuFsbSyvLy7W0SeVolhQbmhEoBj64yRgggBmGzcQu8nTWhypi9xj2UcLxW9tTaT3lskzxHTkSNdRozcj2jnroRrodRVpOfPYaJvc7kfR7L/x6f+joN7ncj6PZf+PT/wBHVLRUE0b3O5H0ey/8en/o6+PeZ3eNl/s9l8bgRr8vT/0dU1FBGY5mPOOBZfxDF7zLeBvb4fayXUqxY7MXZY1LEKDaAa6DlqRVizDbU70j/wDVZmv7FvPuHqgaeLb6RPeFAzMNtLOw4eTunwoaeLb6RPeFLNNEYJNJE80/WHsoMjMNtDMNtK08W30ie8KGni2+kT3hQMzDbSzsOHk7p8KGni2+kT3hSzTRGCTSRPNP1h7KDLuHtopevi/Wp7wooPrMNtDMNtDMNtDMNtBN9I7D5q81/Y139y9bmaMt4PmnBpLLHLG3u4wpMbSwo7RNp5y7gdD+2tPpHYfNXmv7Gu/uXqinYcPJ3T4UE9mPATJle2wvLlva2Yt7y2khjSBeqhWOZX16vVQQNNdoIJ9RB51zxkIypfS32Jxy3V/bTRTSQ2nVoHkkD7lQs2ijaoKknXmSedWbMNtDMNtItf36xQm8UR7ZTxdrr5VbGrA40JxIJhhjcNs6sx7ep67du0J8rrNfV2cq1TkK+tcPgtLPHLeO0S0tYLlDh+rScO7OpjIkAjB10IKty7CKumYbaWdhw8ndPhQRd5kjFJlWCDG7GO0trw3tmr4TvlSQziUh5OtG5ddw8gIx5asdCGoccwp8cyviOEXVzGpvoZYOtSE6IrageSW5kAjXmNSD2a6Dqsw20Mw202otb1Tb5IwK2gt48Dw3D8IEV5DdS8HZJH1xjJIB26e3kTrpXNuciT3FpPa3WLQtYRR3PBRx2O2WNpiWJkcuRKBqeQVdfrannVszDbSzsOHk7p8KZn0zSEf/AGRxoTviIx3DxizXwuzKuFOICBB1G0x9fuJ2892/tHZpypUyRf2lrFbWWNWvVSWkNpem6wwTPMsbMQ0flhUJ3t5yuuuh07dbRmG2hmG2k3VJ5TwbEMAvJrG+HEwx2FrDFfxxrHHJ1e9duzrGcMAV1PYeeh9QeLCLnDZ8vWMUUlxbYZYyxy3vkKmvVqijbu3anQnkCB7aqWYbaWdhw8ndPhVmZmayGZhtoZhtoZhtoZhtqCb6R2HzV5r+xrv7l6S46PsiRW0skmUcvxoiFmf5Lh8kAdvm0/SOw+avNf2Nd/cvXfvIobqxnt7jnFLGyP3SND/7VJrSyxSt0XgWV8iY7HNpkDC8PmhKloLzCbYPsYbkfyNw0I19eo0IIBFfMFy/0a5ha+XDMoYOTYzmCXrsCSLygdPJ3xjcNQRqPYa7WDYHimF8TNdYva3V1PEIhILFo1XYoEXk9YddNXLc/KLDTYBoaBmG3trU0rZmK0u87z9kPJ1n0bZlubPKmBwXEOE3UkUsWGwq8bCFiGUhdQQRqCK9CnYcPJ3T4VO9I7D5q81/Y139y9UU7Dh5O6fCopmYbaGYbaGYbaGYbaCb6R2HzV5r+xrv7l63M0ZbwfNODSWWOWNvdxhSY2lhR2ibTzl3A6H9tbOYMLix7LeJYPPK0UWIWktq8iDykEiFSRr6xrXImwTMfUPrnGY+SeXyfB7P3UG9iWXrO4y/BhOHLDh1tb3FvNHHBAAiCKZJdoUaAA7NP2a68+yua+SYDbhBcoGEGIRB+HGoN3IHLdv1dNP+9+yszYHmPb9MZvh0H8qGwPMe36YzfDoP5VJisTE5WyxMxSjhXXRtdT4wLyTG+sto/KS1SOaIs3UdTzImMWuhOj9UXHIbiBz5dlk/MGYLC+XMi/JckNpaQWciRiIkwO7gnqLhmIGo8oSRk68lTTnYtgeY9v0xm+HQfypZsEzH1D65xmPknl8nwez91XeqbUbOWcCuMvYWtpLexXOrySzOEnLSOxGjbpppWGgB1BY66jTbpoeZjuSJMbzCmIXF3hrRo8bRSyYUDfWwUg7IboOuxdQTzRj5Tc+Y03GwPMe36YzfDoP5UNgeY9v0xm+HQfypvE8Dajny5DkmhxmOfFYiMQtb21iKWhBgS4lMmpJc7ypY9m3Xl2Vt4llGO5s70cSCZrxrzQJtP5t1Gzdz09u7Q6dmlauEQ47jWGcZb5uukTrpYSsmHQBg0crRt2A+tDW7NgmY+ofXOMx8k8vk+D2fuqUrFM1r+rW9c0p+OZkTD8wxYldXmZbRLXq7G3sYAIYoy6xs5+pLLqBuHlErrr5i6c7lmG2ptsDzHt+mM3w6D+VDYHmPb9MZvh0H8q1M1ZiKKRmG2lnYcPJ3T4VOtgeY9v0xm+HQfyrkZohzPguAPeRZtklbr4Idr4fCBpJMkZPIeoOT/uqKu2YbaGYbam2wPMe36YzfDoP5UNgeY9v0xm+HQfyoDpHYfNXmv7Gu/uXqinYcPJ3T4VJYvlHGsZwW9wu+zfcNa3tu9vMq2EKko6lWAOnLkTVbOw4eTunwoGZhtoZhtoZhtoZhtoJvpHYfNXmv7Gu/uXqinYcPJ3T4VO9I7D5q81/Y139y9UU7Dh5O6fCgZmG2hmG2hmG2hmG2gm+kdh81ea/sa7+5etzNGW8HzTg0lljljb3cYUmNpYUdom085dwOh/bWzmDC4sey3iWDzytFFiFpLavIg8pBIhUka+sa1yJsEzH1D65xmPknl8nwez91Bmx7LEV9ldMHwM2uEpC6tAY4JFWDTXzBDLEyHmeasORIIINYLLJ62UUW+/NxLHfx3rTSQjfIVthBzOvaQNdf26aeunbA8x7fpjN8Og/lQ2B5j2/TGb4dB/KnHmOFbZDxG3lXD0xCBMMTDbCynlezDSXIgZyerIkHVHmObBx5XLQgmukmVMVVDb3mN2smFw3M93DBDhxSXe7O6h5GlZWCs+ugRdSq+rUHbbA8x7fpjN8Og/lSzYJmPqH1zjMfJPL5Pg9n7qTeayOHhvRvf4fb3TNmCKa6lFqIna1naOMQTCVR1clw2gPMbUKKNRoBpz28HyDcYJjs1/bYsksQ69rWKcXchheVixJBuTERqTqFjQn2g866bYHmPb9MZvh0H8qGwPMe36YzfDoP5VajbzDhd/iJw+fCL+2srqxnMqtdWjXCODGyEFVkQ/X113eqpfH+jq+xfDdj5gWOaVLg30qW0sfXGUjXZ1U6FVAAUI5kUhV1BI1PdbA8x7fpjN8Og/lSzYJmPqH1zjMfJPL5Pg9n7qzRauXi/R9dYi0skWNrBILqO5t2SK4jMbC3WBwzQ3EbMCFBGjLpqQd2tVOB4aMEy/aYd1iyG3j2l0EmjHXUkdY7t2n1sx/bXMbA8x7fpjN8Og/lQ2B5j2/TGb4dB/KtVZpEKRmG2lnYcPJ3T4VOtgeY9v0xm+HQfypZsEzH1D65xmPknl8nwez91RVMzDbQzDbU22B5j2/TGb4dB/KhsDzHt+mM3w6D+VAdI7D5q81/Y139y9UU7Dh5O6fCpLF8o41jOC3uF32b7hrW9t3t5lWwhUlHUqwB05ciarZ2HDyd0+FAzMNtDMNtDMNtDMNtAMw20s7Dh5O6fCmZhtpZ2HDyd0+FBO9I7D5q81/Y139y9U1TXSM4HRbmojTUYNd9o1/0L18OQ8B05fKfxi7/AObQU1FTJyHgOnL5T+MXf/NpZciYCsLlflMEKSP+mLv/AJtBUUVMnIeA6cvlP4xd/wDNoOQ8B05fKfxi7/5tB3cRsIMVwu6w+8UtBdRNDIAdDtYaHT/jXGwzJWGYXfwXkElzJNBh4w9TK6ncuupkOgHln1ns/ZWM5DwHTl8p/GLv/m0suRMBWFyvymCFJH/TF3/zalBrQ9GmFxX2FzyYhiFxHhKgWkE5icRkRiPVXMfWLqACUVwhI831Vt/2DwzhraDr7vbbW1pbId66lbaTrEJ8ntJ7f2dmlByHgOnL5T+MXf8AzaDkPAdOXyn8Yu/+bVGpB0a4XDf4VPJf4hcxYSqi0t7honEZEYj1D9X1iggAlVcISPN9VUWB4SmBYFaYXFcz3UVpEIo5LjZvKjkoO1VHIaDs9XPU865ByHgOnL5T+MXf/NpZciYCsLlflMEKSP8Api7/AObVrIqKKmTkPAdOXyn8Yu/+bQch4Dpy+U/jF3/zagpqKmTkPAdOXyn8Yu/+bSy5EwFYXK/KYIUkf9MXf/NoMnSP/wBVma/sW8+4eqJmG2vPM+5MwWz6N8yXMHyh1sOE3UidZil066iJiNVaQhh+wgg+uvQ2YbaAZhtpZ2HDyd0+FMzDbSzsOHk7p8KBmYbaGYbaGYbaGYbaAZhtpZ2HDyd0+FMzDbSzsOHk7p8KB9w9tFG4e2ig+Mw20Mw20rTxbfSJ7woaeLb6RPeFBO9I7D5q81/Y139y9Zs549d4Blu5vcPwu4xGRUPKIxhYuXnNvkTUd3U/srX6R5oz0WZqAkQk4Nd6DcP1L1nmzzlIwSAZowUnaf8AWEXs71BtXmONaYPaXlxYS2z3FxBA1tcSIHiMkipzKFlJG7XQE6+2uDe9IJtb+FGwzXD2uprWW9DysFeOQxhRsiZdxI7HZBz0BY6gb+IZryNilhLZ4lj2Xry1lAEkFxeQSI4115qSQeYrRjxDoxt5rSa3u8pRTWIItZEltg1uD2hCD5P+7SpeuZ/ps59j0mYjiNgkkWWJY5rmWBLUXBuYIWEp0G6SS2Xyh2kIJBp2MfXXYzismFZYxHEbqCMtawyydUkpIZV108oqNCRoTy5Hlz01PAtL/oww6aSfDrvKVpNK4keSCS2RnYHUMSOZIJJ1/bW9Nm3JBw64tRj+XzBMsnWQ8bDtffqW1Guh3Ekn26mrtzN2rj+enwi5uUgw1bi3s7pIbq5MkhWBWiWQswjikK8m+sAvLUuuo15h6UbhkxKWPLl01vb9bw8pS4RZSj7PLd4BEuvq2vJ+3StsT9FUdtBBHLk5YreXroI1a1CxSf7aj1N+0c6yNf8ARh8oT4hxeUuNuQRNc9ZbdZKCQTubtPYO32U3J0YL7E8y/wBks0XsGIQW1/au+xXjE8VoEgViI9FQuSxOjP7ddNBtPcW6uv7VTwPeSSWsmGLMLdkTbG+4gsCFDcx2gkjly0rnW2P5LtmxTfm7CbqHEpetltp7+2aNNUCsoA0JBAGoYt/w5V9bMeT0xi4xT+2OGO8lqLdLc4hb9XGoJOq6eVqSfWSOXICka+n2v/8Amn73J0n3n9ifyquZhtoZhtrhNnrKW36U4L8Qi/FQ2espbfpTgvxCL8VB3WYbaWdhw8ndPhXEbPWUtv0pwX4hF+KlmzzlIwSAZowUnaf9YRezvUHfZhtoZhtrhNnrKW36U4L8Qi/FQ2espbfpTgvxCL8VBg6R2HzV5r+xrv7l6op2HDyd0+FQnSBnPK910aZmt7XMmETTS4RdJHHHfRMzsYWAAAbUkn1VczTRGCTSRPNP1h7KDIzDbQzDbStPFt9InvChp4tvpE94UE70jsPmrzX9jXf3L1RTsOHk7p8Km+keaM9FmagJEJODXeg3D9S9UU00Rgk0kTzT9YeygyMw20Mw20rTxbfSJ7woaeLb6RPeFAzMNtLOw4eTunwoaeLb6RPeFLNNEYJNJE80/WHsoMjMNtDMNtK08W30ie8KGni2+kT3hQMzDbSzsOHk7p8KGni2+kT3hSzTRGCTSRPNP1h7KDmYTmSDGL+e0Szu7YopkhkuFQLdRhipePaxOmo+sFPMHTQ600mZsNXNAy8Wn+UGg68DhpOr28/9Jpt15Hlr6jXPwnAJ8KvnnOL2sqRJw9lHwu3qYDJvZWIk8ttAFDDaBoDtPPXvxS7bZBcXEMkwUB3jGxWb1kKSdB+zU/vNI0iuZb5N5cDJbCOxxe1/w+M3vL2dZMZv/wCLVHOw4eTunwqay3NHDmPNtuZEAOJxTp5Q7HtIAf8A/ZWqjmmiMEmkieafrD2UGRmG2hmG2laeLb6RPeFDTxbfSJ7woMOISSphly9oN06xMYhprq2nLl++vI0xKC5ypfCxxm6xSzHyM80t1ctP1d412vXJuYnY2gjJiGgUkaAa17E08W30ie8KmOkWeMZJncNvEd1aSMIwWO1bqIk6DmdACaRauZ4gm8UzbPmW8tjd3eZIcbtcxzSYU9sFXDo442gk11PWB9Nx11UjQ+r2Gu2zDbUy3SJlsr5NxeP3MMuW8I6+N0h4CV8lMYfuYFet4Q0FOzDbSzsOHk7p8Kmm6QMIZfIssdb/AOxXa+MYpZc+WTwuI8Jx1tVOn/Rcq+IFBUsw20Mw21MNniJl8jAMdb/+zC+LChs6yMvkZXx1v/04F8ZRQP0jsPmrzX9jXf3L1RTsOHk7p8K87z9mu7uejfMsP9lMZhWTCbpDNK9oFjBiYbiBOW0HbyBPsBruy5sxV4XC5LxddVPn3diPC4NBUsw20Mw21MNmfG2XycoXY79/ajwkNDZizCy+TlVR38UhHhrQU7MNtLOw4eTunwqabHc0Mvk5asR38YA8IzSy4xm5oXC5fwUaqfOxx/8A8WxoKlmG2hmG2phsTzky/wCZ8uJ/98mb/wDlRQ17nJl/NMuJ/wDcJm//AIQoKdmG2lnYcPJ3T4VNNcZyZe3Lif8A6szf/gUsrZyaF9b7LqeSeyCZv/4goKlmG2hmG2phkzky/wCe8uJ/9smb/wDmBQ1vnFl8rM2Xx3MEl/8Azdmgp2YbaWdhw8ndPhU01jmsr5WbMLHcwgjxnNLLhmZGhfdnC3808kw1Br/xc0FSzDbQzDbUw2D48V8rO0o7ljbjxBobAsYK+VnvER3LWzHjCaCnZhtpZ2HDyd0+FTTZexEr5efccP7BFYD/APltaWXLVyYX351x1/JPLfajXl+yEUFSzDbQzDbUw2VtV8vNuOv/AP3kY8EFDZStivl5kx1v/ujDw0oKdmG2lnYcPJ3T4VNNk7DSvl41jrf/AHy4Hg4pZclYKYX3Yjjjnae3MV94ddpQVLMNtYru6itLKa5nOkcKGRz7ABqfCp1skZd2+VLiT9/HLtvGWmXJOWI3V+pldlII6zEJn/8AZnOtSa0ssUrdu5exu7xbiIcUw+OwuoBHIY4rnr1Mci6qd21efIgjTkRyJHOjCscmxePEVuMGxDC+GkaJDeoo4hRqN6bWPLUHt9Wh9dYcKy/FhEc/V47f3E00fVtPO0LOAAFj00jA8gA6cue5i249j41lvLmOSG5xjDbG+nSLq1knjVyFGpA5/tJ/41qaVszFaXa3SOw+avNf2Nd/cvWfONvjt5l6eLK97b2t2VPOWBnZh7FYSJsP7Tr+6pvO2Ucp4V0d5mvMKwHCLS8jwa8Ec8FrGsi6wODowGo1BI/cav2ni2+kT3hUVwsdusbwzLMd3AVxC/tnVp4rO1Ki5UnawVCzsNNwbQMT5OmvPSpjr81yW9kcVDSS2d7JbPMcPD67LW41ugAmqh2aMeTp2bR5xB9EaeLb6RPeFLNNEYJNJE80/WHspx5rDyyxObcXtEvnu8Xsr2zsL0JdGzQvcsGhZE2yW0eikhht6pWO3kxHlHqSJi0WNXV1HZyRmbGxM0rWJlCJ8lBesUbSQBIAuq6EnVdeZB9BaeLb6RPeFDTxbfSJ7wq7U5U61ItP3nw8duZMyYxl+U4n8uzSyYPilqkbWRK3LlIyhYcLEya+WF3IhJTQbtdWoL+fFrnOFpBcy4r1dvfBktFw0mzWAW7aS9eI/P3HQgyevTZ2NXoTTxbfSJ7wpZpojBJpInmn6w9lK6cu9Um/pp79bJ3NlvHiOQnilN/dRusLORZdbI4DKdZbfRS6nTy41AYruAANRVtBiNlhtk+E2txh9tBijNEMKwSazjm1tZB5VnKrtEok2qWG1WLFuR8qvWWni2+kT3hQ08W30ie8KzMa03Wujz2NMzr5Jur0XdxY4YJcR+T4RKrPcS9euvVbfIRh5LA7AdTzJJ52YMwY/g+H3NtfY3ikL2lteSwXEGGxSyXRSQiMzgRFY49u3ywI1Op8oaV6m08W30ie8K52MYTgmMxxti+H4fftbavAbqFJTE3tXcDoeQ5j2VqbzXMhIt06d29bSM9jC0p/KNGpbUac9OdZWYbaVp4tvpE94UNPFt9InvCk3lIikUMzDbSzsOHk7p8KGni2+kT3hSzTRGCTSRPNP1h7Kip/pHYfNXmv7Gu/uXqkZhtqZ6R5oz0WZqAkQk4Nd6DcP1L1SNPFt9InvCgZmG2lnYcPJ3T4UNPFt9InvClmmiMEmkieafrD2UGRmG2hmG2laeLb6RPeFDTxbfSJ7woGZhtpZ2HDyd0+FDTxbfSJ7wpZpojBJpInmn6w9lBl3D20UvXxfrU94UUH1mG2hmG2hmG2hmG2g+SbXjZWAII0II7a1prOz4eT/JofNP8Aox7P3VtMw20s7Dh5O6fCgxNZ2e382h/hj+VDWdnt/Nof4Y/lWdmG2hmG2gwNZ2e382h/hj+VJNZ2fDyf5ND5p/0Y9n7q2mYbaWdhw8ndPhQYms7Pb+bQ/wAMfyoazs9v5tD/AAx/Ks7MNtDMNtBgazs9v5tD/DH8qSazs+Hk/wAmh80/6Mez91bTMNtLOw4eTunwoMTWdnt/Nof4Y/lQ1nZ7fzaH+GP5VnZhtoZhtoMDWdnt/Nof4Y/lSTWdnw8n+TQ+af8ARj2furaZhtpZ2HDyd0+FBiazs9v5tD/DH8qGs7Pb+bQ/wx/Ks7MNtDMNtBgazs9v5tD/AAx/Kss7Dh5O6fCmZhtpZ2HDyd0+FAzMNtDMNtDMNtDMNtBN9I7D5q81/Y139y9UU7Dh5O6fCp3pHYfNXmv7Gu/uXqinYcPJ3T4UDMw20Mw20Mw20Mw20AzDbSzsOHk7p8KZmG2lnYcPJ3T4UDMw20Mw20Mw20Mw20AzDbSzsOHk7p8KZmG2lnYcPJ3T4UDMw20Mw20Mw20Mw20E1h7CHpIzBF6psPsbgftJa4Q/+0a/8ao52HDyd0+FTkrCHpSi/wD6vBX/AN/VTp/z/wD3qjnYcPJ3T4UDMw20Mw20Mw20Mw20AzDbSzsOHk7p8KZmG2lnYcPJ3T4UDMw20Mw20Mw20Mw20AzDbSzsOHk7p8KZmG2lnYcPJ3T4UDMw20Mw20Mw20Mw20E30jsPmrzX9jXf3L1RTsOHk7p8Knekdh81ea/sa7+5eqKdhw8ndPhQMzDbQzDbQzDbQzDbQDMNtLOw4eTunwpmYbaWdhw8ndPhQMzDbQzDbQzDbQzDbQDMNtLOw4eTunwpmYbaWdhw8ndPhQMzDbQzDbQzDbQzDbQDMNtLOw4eTunwpmYbaWdhw8ndPhQMzDbQzDbQzDbQzDbQDMNtLOw4eTunwpmYbaWdhw8ndPhQMzDbQzDbQzDbQzDbQDMNtLOw4eTunwpmYbaWdhw8ndPhQMzDbQzDbQzDbQzDbQDMNtLOw4eTunwpmYbaWdhw8ndPhQTvSOw+avNf2Nd/cvXdvr63w+xluruTq4Il3O20nQfuHOuF0jsPmrzX9jXf3L1vZky1g+a8Laxxyxt7uPtQywo7RHs3LuB0P7aDpz3MMEYaeVIwzKil201YnQDn6ySABWjdY/g8UyWUuK2SXdz1kcEDXCCSVl85VXXUkesDsrWxXL8UuXIsMwI22Ei2lhltQlqGhiMciuB1alfJOmmgI7e2p2fIN9K8E1xj6hllmmu5LW3lge43uXMY0n2bBroA6SEDUggnWm5spf7X5aexuLtMwYW1taydVPML2MpE/wDss2uinl2Gtm/xmzs8EusT6ziLe1R2fqCGJ2EhgOemoII017RUZg3Rk+FyW5uMXW6S0lt2g3LdOypE2oQ9dcyKPV5ioAR2achZYnhxxbAb3Db2cAXcckXWwptKK2oXQEnUgEc+wka6DXSraherBiWacJwm9ltsWvIrFIrdbh7m6kWKFVZygG5iOeop5sx4JxUmH/LFhxvDmbhuJTrOr2679uuu3Tnr2aVO4jk3F8Wt7mbEsbsXxKRYoobi3sJ7dYERmbVQlyJA5LnVhIBoNNvM66EnRhLHfSXAx2Se3dd8sdwbpmaUQiPrNFuVh15A84j7NezTN6ZmfK7qWLOmE3TXjWbvd2dpCkrXtptnikLMyiNBGWd31UjQL28hqeVZLHNVtiQwcw2d4kWL2huoZZFQCMbQ2xxu3BtG9QI5HnWtgOGXGEYvc2rW7taLh9pDFdjYEdowyldu7cDzB7NOfbSW2EXOG3uW7GKKS4tsMs5I5b3yFTXYqqNu7dqdCeQIHtrU0iZpmrMVmLqdmG2lnYcPJ3T4UzMNtLOw4eTunwqKZmG2hmG2hmG2hmG2gGYbaWdhw8ndPhTMw20s7Dh5O6fCgnekdh81ea/sa7+5eqRmG2pvpHYfNXmv7Gu/uXqkZhtoBmG2lnYcPJ3T4UzMNtLOw4eTunwoGZhtoZhtoZhtoZhtoBmG2lnYcPJ3T4UzMNtLOw4eTunwoH3D20Ubh7aKD4zDbQzDbStPFt9InvChp4tvpE94UC3NzDbWss9zKkMMSF5JJG2qigakknkAB664k2ecpmCQDM+DElT/AH+L2d6sHSPNGeizNQEiEnBrvQbh+pejH8VtcGvOrktgsXVowMGETXrEsX7RCCVHk9pHroNls85S2/SjBviEX4qGzzlLb9KMG+IRfirawcW2I4XHcva2+rM66iDZqFcqDtPMdnYeyt7gbT/Cw/wxQcds85S2/SjBviEX4qWbPOUzBIBmfBiSp/v8Xs71drgbT/Cw/wAMUcDaf4WH+GKDjtnnKW36UYN8Qi/FQ2ecpbfpRg3xCL8VbmIXGDYVw3ygtvDxU628OsWu+RuxeQ/Z2nlTYjJhOE2TXeIRQwwKyIX6ndoWYKo0AJ5lgKDRbPOUtv0owb4hF+KlmzzlMwSAZnwYkqf7/F7O9XQmkwm3xK2sJooVurtXeGPqdd4TTcddNBpuHb7a2uBtP8LD/DFBx2zzlLb9KMG+IRfiobPOUtv0owb4hF+KuxwNp/hYf4Yo4G0/wsP8MUHHbPOUtv0owb4hF+KlmzzlMwSAZnwYkqf7/F7O9Xa4G0/wsP8ADFHA2n+Fh/hig47Z5ylt+lGDfEIvxUNnnKW36UYN8Qi/FXY4G0/wsP8ADFHA2n+Fh/hig47Z5ylt+lGDfEIvxV252HDyd0+FTHSLZ2q9F2amW2hDDBrsgiMcvyL1SzTRGCTSRPNP1h7KDIzDbQzDbStPFt9InvChp4tvpE94UE70jsPmrzX9jXf3L1RTsOHk7p8Km+keaM9FmagJEJODXeg3D9S9UU00Rgk0kTzT9YeygyMw20Mw20rTxbfSJ7woaeLb6RPeFAzMNtLOw4eTunwoaeLb6RPeFLNNEYJNJE80/WHsoMjMNtDMNtK08W30ie8KGni2+kT3hQMzDbSzsOHk7p8KGni2+kT3hSzTRGCTSRPNP1h7KDIzDbQzDbStPFt9InvCvpdWjLKwIHaQeygm8ZYRdIGW5/1kF7a694RSaf8A/H/2qjnYcPJ3T4VN5smjjxjKtyJE/JYuVbyh2PbTp/8AuZf+FUU00Rgk0kTzT9YeygyMw20Mw20rTxbfSJ7woaeLb6RPeFAtzcw21rLPcypDDEheSSRgqooGpJJ5AAeuuZ/arL91HAtrjVjcG9mNrb9ROsnWS7dxUbSeYBBPsBGtaHSPNGeizNQEiEnBrvQbh+pet/FMOhumsGtDaxcNeJO5JC+SNdQNB29n/Cm8e8G0/LC2espbfpRg3xCL8VDZ6ylt+lGDfEIvxV02t8P2+itvdWhrfD9vorb3VoOY2espbfpRg3xCL8VLNnnKZgkAzPgxO0/3+L2d6uq1vh+30Vt7q0s1vh/USaRW2u0/VX2UHObPWUtv0owb4hF+Khs9ZS2/SjBviEX4q6bW+H7fRW3urQ1vh+30Vt7q0EZ0gZyyxddGmZre1zHhM00uEXSRxx30bM7GFgAAG1JJ9Vd6bPOUzBIBmfBidp/v8Xs71aXSLBYjouzSY4rcMMHu9CFXXXqWqgmt8P6iTSK212n6q+yg5zZ6ylt+lGDfEIvxUNnrKW36UYN8Qi/FXTa3w/b6K291aGt8P2+itvdWg5jZ6ylt+lGDfEIvxUs2ecpmCQDM+DE7T/f4vZ3q6rW+H7fRW3urSzW+H9RJpFba7T9VfZQc5s9ZS2/SjBviEX4qGz1lLb9KMG+IRfirptb4ft9Fbe6tDW+H7fRW3urQcxs9ZS2/SjBviEX4qWbPOUzBIBmfBidp/v8AF7O9XVa3w/b6K291aWa3w/qJNIrbXafqr7KDnNnrKW36UYN8Qi/FQ2espbfpRg3xCL8VdNrfD9vorb3Voa3w/b6K291aDmNnrKW36UYN8Qi/FSzZ5ymYJAMz4MTtP9/i9nerqtb4ft9Fbe6tLNb4f1EmkVtrtP1V9lBzmz1lLb9KMG+IRfiobPWUtv0owb4hF+Kum1vh+30Vt7q0Nb4ft9Fbe6tBzGz1lLb9KMG+IRfipZs85TMEgGZ8GJ2n+/xezvV1Wt8P2+itvdWlmt8P6iTSK212n6q+yg5zZ6ylt+lGDfEIvxUNnrKW36UYN8Qi/FXTa3w/b6K291aGt8P2+itvdWg5jZ6ylt+lGDfEIvxUs2ecpmCQDM+DE7T/AH+L2d6uq1vh+30Vt7q0s1vh/USaRW2u0/VX2UHObPWUtv0owb4hF+Khs9ZS2/SjBviEX4q6bW+H7fRW3urQ1vh+30Vt7q0HMbPWUtv0owb4hF+KsWIZ1woYTLdYLLBjojkjimSwuo36kOdN7nd5K8j7SdOQNdhrfD9vorb3VrDiFhh95hs9qxSKOTaXMG1WO0hh4UEt0kZry783ma8P+XsM435LvIOG4yPrOs6p12bddd2vLTt1rWy/015SxvFp8Gvb6HC8ThmMWyaZWhnIOgaKYeSwPLTXaTr2V1+keKyPRhmpwkBkOD3Z3ALrr1L8/wB9Tl/lTA+j+2vsz4bgcmYcemkeeS+laFmhYnXUK7oEUakAR+UBoOdB6czDb20s7Dh5O6fCuHi+ZZcPy3DiCYftup5oYFsru6jjKPJIsY3uhdRoWBO3d+zU8q4Nx0iXUfEwTYRbCSztp5L0piO5UZG2BY2MY3gll1LbNo3a810LWaZa5pFV4zDbQzDbUc2c8UFx8lNhOHfLJnEYiGKNw2zqzJu67qd27QEber19fZzrFhGey+W458QWOS4S2spXZplXe1xKY9NANBoR6tddfVQWzMNtLOw4eTunwqCxfPWNLDDLhuG4Ytrc4klnbzTYrtlfS4Eb7ouqOmoD6bWcgcyBoRXXwPNlxjkmIW1xYQ2M1nKUkhkmlDiIh9r6PCoYll08gsmmpDnTQovFc27ioZhtoZhtqBzhjmLWk+K/JeJ3adW+Hww29olsXHWz7ZChlXTeV5Dedo9g7aWwzJmDCJIbfFLW6u47uduqbFri1juYokj3yMRaq0bdnkLyJOupA0IlYpMztn9N4h6AzDbSzsOHk7p8Ki1z9fcPGtxhNil1exwS2CR4pvjdZX2jrX6odWRqPNDg8wpJpbHO9wmGX/yzFALiCHELhglypRBbyBerDbRuHlecQDoOY1Ogvnpqa6cuui4ZhtoZhtqBzJn3FbTBsWvMHw7Dzb2SdVxFziYjkWYxBxpEYyGXy1HnBmPYvZr38Ev7qTFsWhxC8EojMDpFuQrAWjBZFYKpZdddCw18BaJWHfZhtpZ2HDyd0+FDTxbfSJ7wpZpojBJpInmn6w9lRU/0jsPmrzX9jXf3L1SMw21M9I80Z6LM1ASIScGu9BuH6l6pGni2+kT3hQMzDbSzsOHk7p8KGni2+kT3hSzTRGCTSRPNP1h7KDIzDbQzDbStPFt9InvChp4tvpE94UDMw20s7Dh5O6fChp4tvpE94Us00Rgk0kTzT9Yeygy7h7aKXr4v1qe8KKD6zDbQzDbQzDbQzDbQTfSOw+avNf2Nd/cvXYvsFscRmE13EzSBQu5ZXTkCSB5JGvaf+NcjpGZT0W5q1PL5Gu9dB/8AJelbEs7IhY5ey/oBr/n6f+joKG0tIbG1S3tU2RJrou4ntOp5nn2ms1TJxHOw/R7L/wAen/o6DiOdh+j2X/j0/wDR0FNRUycRzsP0ey/8en/o6+NiWdkQscvZf0A1/wA/T/0dBo5nyxj2Zccme2vrHD7KGza1g4mze4d2k0Z5U2TR7CNqBSdTqG5AHnwMdy3j2LzRXGLZb+U8Rkis0ivI54VWweKbWYjc4ZVcDcNgJYEK4GgquOI52H6PZf8Aj0/9HQcRzsP0ey/8en/o6RbM4k3zOCFxDJGLXE98kOW2W+ktMSiuMWFzCBftMfyP19+unLywuzTapK863sf6P5zm6wkwrDJ1w6BIBZjDzZxR2MglZ5XYyxtIm7cDrDzYqQ3qNVhxHOw/R7L/AMen/o6+NiWdkQscvZf0A1/z9P8A0dItTkTeJjiioMk41Fj2YDBg0i2+JWt0k88k1tHJK0j7gIriPypAdRoLiElNCA+hINR0Z4LiOBYTf2t9hy4fbtdF7WMwwwyMpUAl44HeFTyA1j2BtCxQEkneOI52H6PZf+PT/wBHQcRzsP0ey/8AHp/6OkWinKn9JvNVNRUycRzsP0ey/wDHp/6OvjYlnZELHL2X9ANf8/T/ANHQU9FTJxHOw/R7L/x6f+joOI52H6PZf+PT/wBHQN0j/wDVZmv7FvPuHqgnYcPJ3T4V59n2+ze/RvmVb3A8Eitmwm6EskONTSOidS2pVTaqGIHYCw19o7a9BnYcPJ3T4UDMw20Mw20Mw20Mw20E30jsPmrzX9jXf3L1RTsOHk7p8Knekdh81ea/sa7+5eqKdhw8ndPhQMzDbQzDbQzDbQzDbQDMNtLOw4eTunwpbm5htrWWe5lSGGJC8kkjbVRQNSSTyAA9dcSbPOUzBIBmfBiSp/v8Xs71B32YbaGYba4TZ5ylt+lGDfEIvxUNnnKW36UYN8Qi/FQd1mG2lnYcPJ3T4VxGzzlLb9KMG+IRfipZs85TMEgGZ8GJKn+/xezvUHfZhtrhZlN0l3gsttfzW8QxBEmhi0AnDA8mOmug010BGp7deyhs85S2/SjBviEX4qDnrKW3lmjBviEX4qbxPCYNpj3YM9sEwSxuR22+L2D/ALgbqNGPuuaop2HDyd0+FQmfM45Zuci4otpmLCZ544hNHHHexsztGwcAANqTqvZXemzzlMwSAZnwYkqf7/F7O9Qd9mG2hmG2uE2ecpbfpRg3xCL8VDZ5ylt+lGDfEIvxUGDpHYfNXmv7Gu/uXqinYcPJ3T4VC5/zllm76NczW1pmLCZ55sJuo44o72NmdjCwCgBtSSeWld2bPOUzBIBmfBiSp/v8Xs71B32YbaGYba4TZ5ylt+lGDfEIvxUNnnKW36UYN8Qi/FQd1mG2lnYcPJ3T4VxGzzlLb9KMG+IRfirtzsOHk7p8KBmYbaGYbaGYbaGYbaCb6R2HzV5r+xrv7l6op2HDyd0+FTvSOw+avNf2Nd/cvVFOw4eTunwoGZhtoZhtoZhtoZhtoBmG2lnYcPJ3T4UzMNtLOw4eTunwoGZhtoZhtrjZyxSfBsiY9idgyrdWWG3FxCzLqA6Rsykj18wK5dxZY5bzdRJnG8aTaHKxYRHJoDrprtQ6dh/4UFazDbSzsOHk7p8KmbfCcfvLcSwZynZGJHPDYVIIOhBBXUcwaytgGY2Uqc4zaEaH/o+D+VBRsw20Mw21OHAcyH9MZvh8H8qDgOZD+mM3w+D+VBRsw20s7Dh5O6fCp44DmQ/pjN8Pg/lQ2AZjZSpzjNoRof8Ao+D+VBRsw20Mw21OHAcyH9MZvh8H8qDgOZD+mM3w+D+VBRsw20s7Dh5O6fCp44DmQ/pjN8Pg/lQ2AZjZSpzjNoRof+j4P5UFGzDbQzDbU4cBzIf0xm+HwfyoOA5kP6YzfD4P5UFGzDbSzsOHk7p8KnjgOZD+mM3w+D+VDYBmNlKnOM2hGh/6Pg/lQUbMNtDMNtQ+abfNGA5PxnF4c2SSyYfYT3SRvh8O1zHGzAHQdh0q4ZhtoBmG2lnYcPJ3T4UzMNtLOw4eTunwoJ3pHYfNXmv7Gu/uXrO2espbfpRg3xCL8VdyTa8bKwBBGhBHbWFrOz2/m0P8MfyoJvGsw5Hx3DuCxHMmCy25ljkeM30LLJsYNtYEkFTpoR6xrSpj3R7Z4ebayxTLUEK27QLFDcW6qIzzKAA6bSTrp2VTNZ2e382h/hj+VJNZ2fDyf5ND5p/0Y9n7qCVN50XDBjhKz5RGHGTrTZh7bqS/+1s83X9umtPLiPRnLNazyXeVHmskEdrI0lsWgUdioe1R+wVVNZ2e382h/hj+VDWdnt/Nof4Y/lQSVxedF9zdXV1cXGUZbm8AFzM72zPOAQQHY825qp5+tR7KyW2MdHOGQy/JeIZXsy0jTnh5rePWUqVL+SfO0JGvboSKqWs7Pb+bQ/wx/Kkms7Ph5P8AJofNP+jHs/dQTLY5kl8ZucRmzXhMwuEhVrWW9t2iVomLJIPrBgT/ALWnIEDXnW/LnHJkssc0mYsCeWHXq3a9hLJqNDodeWo5V2ms7Pb+bQ/wx/KhrOz2/m0P8MfyoJOO/wCjG3sry0t7rKcVvfHW7hSS2VLg69rqOTf79ax3N30XS4bDaPPlF4LTc1tCWtisLHtKL2KToOyrBrOz2/m0P8MfypJrOz4eT/JofNP+jHs/dQTF3iPRne3vG3l3lS4u+qMHESyWzSdWVKlNx57SpI07NCRTYXjuSsHnvJLXNmElLkpthN7brHboihVjjC6aKAPXqf21UNZ2e382h/hj+VDWdnt/Nof4Y/lQcls9ZS2/SjBviEX4qWbPOUzBIBmfBidp/v8AF7O9XYazs9v5tD/DH8qSazs+Hk/yaHzT/ox7P3UEZ0gZyyxddGmZre1zHhM00uEXSRxx30bM7GFgAAG1JJ9VXrMNtYGs7Pb+bQ/wx/Ks7MNtAMw20s7Dh5O6fCmZhtpZ2HDyd0+FAzMNtDMNtDMNtDMNtAMw20s7Dh5O6fCmZhtpZ2HDyd0+FA+4e2ijcPbRQfGYbaGYbaVp4tvpE94UNPFt9InvCgnekdh81ea/sa7+5etnNuZbfLGAzXtxb3Vx5JCpb2ssup0+sY0bYP2toK1OkeaM9FmagJEJODXeg3D9S9d684W5spoZ+pljdCGR9GDfvB7aCaxTpJwbCsSw2zuobxDiXV9U8yJbld77AOqmZJWOvaERiAQTprST5/RMRGuGXkWGiG4kF1JGp4rqmVfyQVy3Nm00dV3agjlqa6eJZXwLFMTOIXgmM5CbxHfzRxybDqheNHCOQeYLAkcvYKxHJ2W+IuZ2gZzcJLG8T3srRKsp1kCRl9ibiNTtA586bffg3c+HP7jEprTEcExC1kN0IUgYRb4VEKyPJIwlKFQCT5BJ05aFuVaCdMuWrzBby8txI4hVD1a3doSUc6B2YT7Ihr6pWRtdBpqQKo7HK2AYbKJrdJJZg7SdbdX0tw7MyBDq0jsT5IA0PICsLZQwOLDrm2iusUWGVRqi45eAKBroqflfIHPTRdBpoNNAKl65mfRzbnpHtbh7m2wqH/Kba5so36+WJgyTTxISESQyDyZNQzKFPIjcO3diznLe47FaWeEXnCSRXLx3EixgXZiKr+S/KcuZPpAuuoI5ams6ZOy3E+9YXfaIhGkl9M6QiN0dFjVnIjUNGhIUAHaNdayRZVwG2v5r23E8c8qyr5OITbIhIdX6tN+2Mk8yUCnXnWrUBm7FMUwzC4ZcHh1LTBbic2Ul5w8eh8rqI2V5NW2rop1G7doQDXAbpEktbOBr2za+iNndS3NzZQmEq8TogUwTMskbHeNUOuhZeZGpqrxjCsLxy2jixAsepfrIpYLp4JY20I1WSNlZdQSDoeYJBrnXOUMuyWUUTxSMLeOVVJvpi0nWEF+sbfrISVU6vuOoBqRrfLHBrtnZo5J4ThGIXV1xqWsdjBHCssbG2ScqztN1baAnVgwGvIA6bm+fOFZSxQS22FYpPbyJAZ50SLbaNMQESQGQMTzGuwMBrqTpXa+ScJS/e+WNBcvccUz9aecnVCHdprp6MAadnr7edS+KdH1td41aXFliq2mHwcP1lkOtO/qX3rzEqo3q5yJIR9Ury0bx8Gy6ZhtpZ2HDyd0+FDTxbfSJ7wpZpojBJpInmn6w9lBkZhtoZhtpWni2+kT3hQ08W30ie8KCd6R2HzV5r+xrv7l6op2HDyd0+FTfSPNGeizNQEiEnBrvQbh+peqKaaIwSaSJ5p+sPZQZGYbaGYbaVp4tvpE94UNPFt9InvCgnekdh81ea/sa7+5eqKdhw8ndPhU30jzRnoszUBIhJwa70G4fqXqimmiMEmkieafrD2UGRmG2hmG2laeLb6RPeFDTxbfSJ7woJ3pHYfNXmv7Gu/uXpcfxW1wa86uS2CxdWjAwYRNesSxftEIJUeT2keujpHmjPRZmoCRCTg13oNw/UvXavsFscRmE13EzSBQu5ZXTkCSB5JGvaf8AjVhJYMHFtiOFx3L2tvqzOuog2ahXKg7TzHZ2Hsre4G0/wsP8MV9tLSGxtUt7VNkSa6LuJ7TqeZ59prNSdVjRg4G0/wALD/DFHA2n+Fh/his9FQYOBtP8LD/DFa1ycLtLm0t7iKFJbyQxQL1Ou9gjORyHLyVY8/ZXQqfzTb33EYNiOHWEmIth16ZpLWGSNJHRoZI/JMjKuoLg6FhyB9egIdCxOF4lbG4sooZYhI8RbqdPKRyjDmPUykf7q2eBtP8ACw/wxXlGZMkY1fYFhrLgz3d7G93OsANtNHA80/WhJFkZCpCnb1sEqupB01GhreOTsal6Rji9/a3UsrSLJHeW81oIIYuo2tDueM3Pn7vIBCEPuJB1FTYek8Daf4WH+GKOBtP8LD/DFcfJGARZbydh1itjDZXItojeLGq6vNsUMzMPOblpu1PYOdd+teqKTRIvDBwNp/hYf4Yo4G0/wsP8MVnoqKwcDaf4WH+GKOBtP8LD/DFZ6KCU6RbO1XouzUy20IYYNdkERjl+Reqedhw8ndPhU/0j/wDVZmv7FvPuHrvTTRGCTSRPNP1h7KDIzDbQzDbStPFt9InvChp4tvpE94UE70jsPmrzX9jXf3L1RTsOHk7p8Km+keaM9FmagJEJODXeg3D9S9UU00Rgk0kTzT9YeygyMw20Mw20rTxbfSJ7woaeLb6RPeFAzMNtLOw4eTunwoaeLb6RPeFLNNEYJNJE80/WHsoJ/pHYfNXmv7Gu/uXozLlu6xm8EkEskcfVop6rEbi0bVS3rhILDyuwn1V86RpUfotzSqOrM2D3YAB1JPUtW1/bnKX/AGowX4hF+Kg3sFspcOwmK2uGDyKzsxDlvOct2nme3tNb9cL+3OUv+1GC/EIvxUf25yl/2owX4hF+Kg7tFcL+3OUv+1GC/EIvxUf25yl/2owX4hF+Kg7tcXNeIXeH4KvydIsNzc3UFok7JuEPWyqhfQ8iQGJAPLXTXUUn9ucpf9qMF+IRfirVxLM+R8Xw2awxHMWCT2067XQ4jENfYQQ2oIOhBGhBAI5ig1sWxfFcl4SBcXJzDPcXIjtOJHVTFdhZgy28TGQjaxHVwkgecNFZ64+I9ImMX+Vbu+y3hVvHswOLE2uLq8KmEyrJoqp1Tbypj9e0H/2rP1XRjw/Vf2gw/f1/ENcnML8Q77CnlT9b1jDYSu0sRpy0rYtp+jS0wmbDLfGsFS0nsksJI/lZTrAoYKmpk1Gm9uYOvPt5Cm05ssa5x7LS2aZ7SJrpEjnZAZEjcuqtpzAYgajX16D9wrLU9b5yyfbW0UEWacJKRIEUyYpG7EAac2ZyWP7SSTWT+3OUv+1GC/EIvxVZ1szFaXd2iuF/bnKX/ajBfiEX4qP7c5S/7UYL8Qi/FUV3aK4X9ucpf9qMF+IRfio/tzlL/tRgvxCL8VBg6R/+qzNf2LefcPVEzDbUJn7OOWbzo1zNbWmYsJnnmwi6jiiivomaRjCwCgBtSSToAKuWni2+kT3hQMzDbSzsOHk7p8KGni2+kT3hSzTRGCTSRPNP1h7KDIzDbQzDbStPFt9InvChp4tvpE94UDMw20s7Dh5O6fChp4tvpE94Us00Rgk0kTzT9YeygyMw20Mw20rTxbfSJ7woaeLb6RPeFAzMNtLOw4eTunwoaeLb6RPeFLNNEYJNJE80/WHsoMjMNtDMNtK08W30ie8KGni2+kT3hQMzDbSzsOHk7p8KGni2+kT3hSzTRGCTSRPNP1h7KDIzDbQzDbStPFt9InvChp4tvpE94UDMw20s7Dh5O6fChp4tvpE94Us00Rgk0kTzT9YeygyMw20Mw20rTxbfSJ7woaeLb6RPeFAzMNtLOw4eTunwoaeLb6RPeFLNNEYJNJE80/WHsoMjMNtDMNtK08W30ie8KGni2+kT3hQMzDbSzsOHk7p8KGni2+kT3hSzTRGCTSRPNP1h7KDLuHtopevi/Wp7wooPrMNtDMNtDMNtDMNtBN9I7D5q81/Y139y9UU7Dh5O6fCp3pHYfNXmv7Gu/uXrNnO3x27y3cxZYvLe1uih162BnZxp2KwkTYf2nX91B3mYbaGYba4GPz4xZZR3LctJfK0a3Fzh1kSyRlwJHihYyEsF1IXy/wBzdlS1rmjHYTc2mmYL5ZXthh11dYG0TSL1zCYybYwqaL/trGSBqq8wWRfMyvA2ekMw20s7Dh5O6fCvLoL/ADPeYlbvdzYxIlpjJ6uQWLJFMrQzBVKNao6RhtgLEuBv9KSNV2bbEs0XeHSxW2IY07SC1W4nvsISB7SRpQJVhBiUOgQsdxEgXQHc2tIvTNcysE2zM9pelMw20Mw215zPcZ3sLOaS2vbzEp2ivoo47mzjRFMT6QSkpGDvZef+y31UrHlvE83YpcYfDfXl9DbC7czzNZMJXRY9wRzLZwAKW5apHroSN2vMCbPSmYbaWdhw8ndPhU/mEu+VbS4iW8vOHuLS5k/yc9e6JKjO3VhQd20ElQoPLQLroKkMaxTGUuLzGcvRYrFDfX0ai3+TpYpblEhVTqHt5DGu7UeWsWumokUDUu/buPUWYbaGYba8nOPZ+a+xmBuIjkAl6lBZyyLFpJpGYjwaxsdpGus8mvPQD1dS7y9He5Ozla7rq4upZpRLLCeqnvWW2QKHMQXdqfqgAHs00JBRf6r1iP6sa0506PRGYbaWdhw8ndPhU9BbwRZ+edIY0nlwlBLIEAZ9sh0BPadNTpr2VQzsOHk7p8KbV9+kzH8Zia9OsRP9MzDbQzDbQzDbQzDbRU30jsPmrzX9jXf3L1RTsOHk7p8Knekdh81ea/sa7+5eqKdhw8ndPhQMzDbQzDbQzDbQzDbQTfSOw+avNf2Nd/cvVFOw4eTunwqd6R2HzV5r+xrv7l6op2HDyd0+FAzMNtDMNtDMNtDMNtBOdIzKei3NWp5fI13roP8A5L0rYlnZELHL2X9ANf8AP0/9HX3pHYfNXmv7Gu/uXrZzbmW3yxgM17cW91ceSQqW9rLLqdPrGNG2D9raCg1jiOdh+j2X/j0/9HQcRzsP0ey/8en/AKOunLjtqmF2191dz1V1NFCiyW7RSAyOEG5JArLzPPUa6equPedIOE2eMW+HXEc0bXEs0QlkkhjVTExVtA0gZ+Y7EViBoSBqKG1WU4jnYfo9l/49P/R18bEs7IhY5ey/oBr/AJ+n/o65OH9L2A4vas2F29zeTmSJIrW3ntZZJRIdFbyZiE59okKMPWKe6z9cRZfv5Vwue9vYmxDyLRF2QRQTPGskm9wT5o1CasfK0Wm1Vi+cXUOI52H6PZf+PT/0dBxHOw/R7L/x6f8Ao67VtdyXFmZGgZG2qV1I0k1UHVdCSBqSOeh1B9WhMGmfMcsrDEJsYgha8gsZrhcN+TJ7N45IxqUWaRzFcganVo2XkuoB10CbTRI/7RExuojiOdh+j2X/AI9P/R18bEs7IhY5ey/oBr/n6f8Ao6xJndLm+gtxh95aLx3ByPcRRsJJBBJKyKVl1G3YNWIIOug11LLhTpEtrnD2dsExaCaaGGS0t5RBvu1m3bCmkpUeaSQ5UgCmfeg3DiOdh+j2X/j0/wDR0HEc7D9Hsv8Ax6f+jrp4NjUeN4a10lrc2jJK8MkFyqh0dGKsDtLA8weYJB7Ryrosw20E2cRzsP0ey/8AHp/6OvjYlnZELHL2X9ANf8/T/wBHVKzDbSzsOHk7p8KCdOI52H6PZf8Aj0/9HQcRzsP0ey/8en/o6pGYbaGYbaDzzPt9m9+jfMq3uB4JFbNhN0JZIcamkdE6ltSqm1UMQOwFhr7R216DOw4eTunwqd6R2HzV5r+xrv7l6op2HDyd0+FAzMNtDMNtDMNtDMNtBN9I7D5q81/Y139y9UU7Dh5O6fCp3pHYfNXmv7Gu/uXqinYcPJ3T4UDMw20Mw20Mw20Mw20AzDbSzsOHk7p8KZmG2lnYcPJ3T4UE70jsPmrzX9jXf3L13Ws7Pb+bQ/wx/KuF0jsPmrzX9jXf3L1nzjgl3mHL09jh2LXGGyupGsSxlZP+62+N9B3dD+2g6zWdnt/Nof4Y/lSTWdnw8n+TQ+af9GPZ+6uVj9liIyjwlndX2IXCNH1zpMlvc3EYcGRVdOrVHK6gEbP3r21A3mFZ0fFLV8Msses7KCRGjW9xZbkrGJNXWQrdLzI3AB1udQV8pOYCLzQnSr1C6GFWcLyXYs4ESNpWaUKoVF85iT2Aa8z6qaWLDYhH1kdqnWsEj3Ko3tproPadAT/urzfEsn41LhZZ7fE77ELrCsVt5GlxQukcsu3qVKvLtClV0AUEA6E6HnXVnwjGJc7WtxPZ4pLHDfCYXYxBeDS3EJUJ1Bk1Dhz5wj1P+3odtIvTN8km0V9/xY3vyTh9jLd34s7W2hXdJNMFREHtLHkBWtbXmAYrhgu8KuMOvbeXckc1s6SI7AHUBl1BI0PL9lauYLJ73JywQYfeTyx9TIkAu1W5jZGVgwkYsrSKQCA7FWI0Y6E1H3WBZhu7OG8uLTFJZ48QaaMzT21veAG1kj6yY27pE6hygAGrbdRoeypNq5mXWj0Tq8Ma4e2VLUzxosjxBV3KrEgMR2gEqwB9eh9lZWs7Pb+bQ/wx/KodcuY8tqlk11iht3tMNWZzijmTrBPI11o+/cDtZdSpGo0C9gAnM4Xlzle04LEr7F9hivPkrq8ZaKQSdYTEzu8oafRSoEf5V+XmHWtTaaZbLJF+nXtu9bazs9v5tD/DH8qSazs+Hk/yaHzT/ox7P3VltiwsYRMT1gjXdu5nXTnTzsOHk7p8KTaaJE1irE1nZ7fzaH+GP5UNZ2e382h/hj+VZ2YbaGYbaisDWdnt/Nof4Y/lSTWdnw8n+TQ+af8ARj2furaZhtpZ2HDyd0+FBL9I1paL0W5pZLeEMMHuyCIwND1LVVMw21N9I7D5q81/Y139y9UjMNtAMw20s7Dh5O6fCmZhtpZ2HDyd0+FAzMNtDMNtDMNtDMNtAMw20s7Dh5O6fCmZhtpZ2HDyd0+FAzMNtDMNtDMNtDMNtAMw20s7Dh5O6fCmZhtpZ2HDyd0+FAzMNtDMNtDMNtDMNtAMw20s7Dh5O6fCmZhtpZ2HDyd0+FAzMNtDMNtDMNtDMNtAMw20s7Dh5O6fCmZhtpZ2HDyd0+FAzMNtDMNtDMNtDMNtAMw20s7Dh5O6fCmZhtpZ2HDyd0+FAzMNtDMNtDMNtDMNtAMw20s7Dh5O6fCmZhtpZ2HDyd0+FA+4e2ijcPbRQfGYbaGYbaVp4tvpE94UNPFt9InvCgnekdh81ea/sa7+5eqKdhw8ndPhU30jzRnoszUBIhJwa70G4fqXrt4liNpY4ZcXN1OiQxxku3boP3DnQbbMNtDMNtcfM+acMytgUmKYnMvVK6RqiyxqzuzBQoLsqjme0kAAEkgClOccBjgD3+K2NgzNKFjub2EMRGzB25ORoNpJ56gA6gEEAO0zDbSzsOHk7p8Kmb/pGy1aCQRYjFfGOO3lYWUiTHq5pNiuADzA7TpryI011Arcus4YHbx4hx2JW1lDZ7Ea5up0jicyJuXaxbQ8jQdxmG2hmG2uVc5qy9bSQxXOPYZFJcIJIUkvI1MqEa7lBPMac9RSyZuy2ljbXb5gwpba8bZbTG9jCTtrpojbtGOvqFB12YbaWdhw8ndPhWI39owmCXMLGA7ZQrglDoG0IHYdCDp7CKmY+kLDp8DucUu7G+sMMWza6hvrgwmK4jA7VKSMVJ1GiuEJ10A1BACtZhtrXhsbK0nubi1tYIZ7pg9xLHEFaZgNAWIGrEAaan1Vz1zZgdxcRW9lilldySOqMsF5ETFuRnUsN2uhCHTQE+vTQEgjzjlm4srq6t8x4TLb2mnEzJfRMkOp0G9g2i6/tpoOgLGyjvpb6O1gS8mRY5LhYgJHVexS2mpA1Og9WtZp2HDyd0+Fa9piuH4lZrdYdf2t3bv5ksEyujfuIOhrNNNEYJNJE80/WHsoMjMNtDMNtK08W30ie8KGni2+kT3hQTvSOw+avNf2Nd/cvVFOw4eTunwqb6R5oz0WZqAkQk4Nd6DcP1L1RTTRGCTSRPNP1h7KDIzDbQzDbStPFt9InvChp4tvpE94UE70jsPmrzX9jXf3L1RTsOHk7p8Km+keaM9FmagJEJODXeg3D9S9UU00Rgk0kTzT9YeygyMw219J1U6UjTxbfSJ7wrhZlseNusFuoTPJwmIIxWGRtgBB1Z1HIgf97kNde2m8RxmDaZ92LpHYfNXmv7Gu/uXrvXkcNxYzQ3EaSxuhDI67lYaesGp/pHmjPRZmoCRCTg13oNw/UvVFNNEYJNJE80/WHsoNfF8Ms8aw17LEEd4WZW/JyvE6srBlZXQhlIIBBBBrlpknAYUtlWC6aO2kMyRSX9w8byFt5eRGcrI247tzhjrzrvNPFt9InvChp4tvpE94UHFtcoYNZbeqF9IqSJLHHcYlczJEyHVdiPIVQDXsUAacuwVixPJeAX1k8U1tOi6zueovJoS/XMXlVijgsrMdSh1X9ld9p4tvpE94Us00Rgk0kTzT9YeygSO1ghhkjQMUk01R3ZwAFC6AEnQaAchy11PaSa4sWR8v29vPClvcvDNbvbdVNf3EqRRONGSJWciIacvI26AAeoV32ni2+kT3hQ08W30ie8KEW0cuLLOD28MKR27t1FwbpGknkdutMZiLlmYliUYjmT269vOufmHJ1niOAG0w6TgJ4YIooJtZG2JEdVXyXVx2nyldW5+d6qpGni2+kT3hSzTRGCTSRPNP1h7KajlZXwIZay8mHtdcVL1kk0s21hvd3Lk+UzN6+1mZj2kkkmuyzDbStPFt9InvChp4tvpE94VZmoZmG2lnYcPJ3T4UNPFt9InvClmmiMEmkieafrD2VBkZhtoZhtpWni2+kT3hQ08W30ie8KCd6R2HzV5r+xrv7l6op2HDyd0+FTfSPNGeizNQEiEnBrvQbh+peqKaaIwSaSJ5p+sPZQZGYbaGYbaVp4tvpE94UNPFt9InvCgnekdh81ea/sa7+5eqKdhw8ndPhU30jzRnoszUBIhJwa70G4fqXqimmiMEmkieafrD2UGRmG2hmG2laeLb6RPeFDTxbfSJ7woGZhtpZ2HDyd0+FDTxbfSJ7wpZpojBJpInmn6w9lBP9I7D5q81/Y139y9UjMNtTPSPNGeizNQEiEnBrvQbh+petrNWa7PK+CyX1xFcXJAOyO2t5ZtT/wB4xo2wftOgoO4zDbSzsOHk7p8K50uYrFcLtr4dd1V1NFEiyQtFIDI4QbkkCsvM89Rrp6q41/0h4Pa4lFh0yyo9w88QleWFEUxkqdA0gZ+Y7EViBoSBqKG1VYzDbQzDbUHY9L+AYras2GwXF3OZIkitbe4tZZJRIdFbyZiE59okKMPWBVLjeNPh+V8RxGGNY57aGR0jnZWDFddCdrdh017ddDz0PKrS1UrDrsw20s7Dh5O6fCpXMmeYcs4nMt7EJrKO1il3RyRowd5GXnJK6Rqui/WI58tSSBWnP0sZa+VpsK67WVY9N4ubc6uY94QR9b1hOh84Js1+tWYmJiqzaaLhmG2hmG2pLDM14jjTXtxY2UUcK2cEtrZXjLFKzyFtGkkR3VU2qDoFLAH2+TTYTmTEL6PLM109iqYpYGW6ijRtVlCK3kMX5LzI0IJ7OdapMTSUiYmKwq2YbaWdhw8ndPhQ08W30ie8KWaaIwSaSJ5p+sPZUVkZhtoZhtpWni2+kT3hQ08W30ie8KBmYbaWdhw8ndPhQ08W30ie8KWaaIwSaSJ5p+sPZQT/AEjsPmrzX9jXf3L1SMw21M9I80Z6LM1ASIScGu9BuH6l6pGni2+kT3hQMzDbSzsOHk7p8KGni2+kT3hSzTRGCTSRPNP1h7KDIzDbQzDbStPFt9InvChp4tvpE94UDMw20s7Dh5O6fChp4tvpE94Us00Rgk0kTzT9YeygyMw20Mw20rTxbfSJ7woaeLb6RPeFAzMNtLOw4eTunwoaeLb6RPeFLNNEYJNJE80/WHsoMjMNtDMNtK08W30ie8KGni2+kT3hQMzDbSzsOHk7p8KGni2+kT3hSzTRGCTSRPNP1h7KDIzDbQzDbStPFt9InvChp4tvpE94UDMw20s7Dh5O6fChp4tvpE94Us00Rgk0kTzT9YeygyMw20Mw20rTxbfSJ7woaeLb6RPeFAzMNtLOw4eTunwoaeLb6RPeFLNNEYJNJE80/WHsoMjMNtDMNtK08W30ie8KGni2+kT3hQMzDbSzsOHk7p8KGni2+kT3hSzTRGCTSRPNP1h7KDLuHtopevi/Wp7wooPrMNtDMNtDMNtDMNtBN9I7D5q81/Y139y9bmaMt4PmnBpLLHLG3u4wpMbSwo7RNp5y7gdD+2tPpHYfNXmv7Gu/uXqinYcPJ3T4UHJxLL1ncZfgwnDlhw62t7i3mjjggARBFMku0KNAAdmn7NdefZXFfIe2O+Md/C0lzHdIhltn0jM10bjXyJFbVdQAVZTqAwI7KsmYbaGYbaZ9xT8NqZZGWWSLy1aDicd4tUS260y27tI7w3LzAh2lY7SHK6NubkCWJ110b7o1mjgvVwjHeFhkuhcQRSQSf5PGsWwRI8UsUgA1OmjDRTsIYV6CzDbSzsOHk7p8KTc0R9n0fwWmELZSXizhYbCEu9vqWW1mMg11Y67tdOZ5dvPsrTxvo1kxG4e6s8ZNvNJLcs+4XKo0czhimkFxEToVHMkg+yr5mG2hmG2k3ms5X/DajVtLd7Wx4YypsjVUh6tCCihQOZZm3HUE6n1EA66amLPR1J/0pPcX2GJc3llcW7XNhhAtZZ2lXQyXJWQiYjztAEG7U8vVfMw20s7Dh5O6fCk3mskWikJeHJ7rw8lxiMbzx4m+IytHbFFkZ7doSoBckDy9dST2aftrnY3lK9scIsrjAiLu/wANtrOCGMRKN/Us3lbWkQNyc+QXT27tau2YbaGYbacPjpoZ1r+p7JVliFhlo/LUSw31zdT3MsSoq7TJKzdiswB0OugZtNdNzdp787Dh5O6fCmZhtpZ2HDyd0+FUMzDbQzDbQzDbQzDbUE30jsPmrzX9jXf3L1RTsOHk7p8Knekdh81ea/sa7+5eqKdhw8ndPhQMzDbQzDbQzDbQzDbQczM2F/L+UsXwdZhA2IWU1qJSu7Z1iFd2nLXTXXSuZNDnbqH1xTL+m0/6tn9n/j1TMw20s7Dh5O6fCgnWgztt/wA6Zf8Ahs//AD6Ghztt/wA65f8Ahs//AD6pGYbaGYbaDzvP0Obx0bZlN3iWBvbjCbrrViw+ZXZepbUKTMQDp2Eg/uqmznb47d5buYssXlva3RQ69bAzs407FYSJsP7Tr+6sPSOw+avNf2Nd/cvVFOw4eTunwoJrNlzmKwyQz4bJHc4qrRiaa1t3TRN43tHHtnYHb2DbJ7dD2VNRYhnTEMvxzJfXttNb2N3ODHYEvcyxsnUpIJraI6tq+oSNN31SNNa9MZhtoZhtpGtTg81x/E824VZXVrDd4tdMLyPqr2PDwW2NDuZNYraXRQ/IHqXP1SwJ3VhuDj+K4SkuKYdNxT2uCvMVs9rGVb1mmBbaCQqgMR2KCToNxr1BmG2lnYcPJ3T4VYtNecT9EWima1cnF0F5lPE4N+JTCSOeM8Oix3GmrDSPcFGo7FJ7QAdW11Pm9nY3Ftg96uD2clhapcWMj3GDZcnw12K3C71NrKH6whPKMiKOQCnUDSvYGYbaGYbakW9VSbxR5u8uals0vWe7nv3w3EnSSTDo91tJ1kIhjXSMEAhS2067yCTqAAGxjEMcweZ8Nv8AHsYa0e6YJiEGHRTXbr1CsEWNICrJv3asIyRoASO2vRmYba0cawrDMbw17XGcPtcQtx5Yhu4FlQMAdDowI159tS9IiMvVfdqZSxG4xTJeFX9/L1tzc2qSyPsC7iRrroOQ/wB3KuyzDbSokUMCxQoscaKFREXQKB2AD1CmZhtrU62ZjQMw20s7Dh5O6fCmZhtpZ2HDyd0+FRTMw20Mw20Mw20Mw20E30jsPmrzX9jXf3L1RTsOHk7p8Knekdh81ea/sa7+5eqC5mihtJpZ2YRojM5VSSABz0A5n9woMjMNtDMNtaWFYtb41g1viNqsqQ3C70WaMo4GunNTzB5dh51usw20E30jsPmrzX9jXf3L1RTsOHk7p8Knekdh81ea/sa7+5eqKdhw8ndPhQMzDbQzDbQzDbQzDbQDMNtLOw4eTunwpmYbaWdhw8ndPhQTvSOw+avNf2Nd/cvVDcRQ3Nu8NxGksTjRkddysP2g1PdI7D5q81/Y139y9UjMNtBp4vhlnjWGvZYgjvCzK35OV4nVlYMrK6EMpBAIIINck5KwGG2iVYLpo7ZmmSKS/uHjeQsXLyIzlZG3HducMdedUTMNtLOw4eTunwoOLa5Qway29UL6RUkSWOO4xK5mSJkOq7EeQqgGvYoA05dgrpzWVrNh89lcIZ7e4DrLHMxkDhydyncTy5kadgHIaDlWyzDbQzDbTahpNU+uSsFisri3RsT/AMo2dZMcXuzOyrrtXrjJvCDc3khtvM8udD5NwOLdLbxXduoh6vh4L+4jgZQmznCriMnaANSuvIeyqBmG2lnYcPJ3T4UHKsMF+TMXuLi3njFjLawW6WvVNvjMW4A9YW5jRtNNuvLXWlGArb4hhL2U0cFhhdu8Mdr1TM51AUflC3YAOwgk+2uyzDbQzDbTW8pSkUgMw20s7Dh5O6fCmZhtpZ2HDyd0+FFMzDbQzDbQzDbQzDbQDMNtLOw4eTunwpmYbaWdhw8ndPhQTvSOw+avNf2Nd/cvVIzDbU30jsPmrzX9jXf3L1SMw20AzDbSzsOHk7p8KZmG2lnYcPJ3T4UDMw20Mw20Mw20Mw20GO5uYba1lnuZUhhiQvJJI21UUDUkk8gAPXXEmzzlMwSAZnwYkqf7/F7O9WLpHYfNXmv7Gu/uXpcfxW1wa86uS2CxdWjAwYRNesSxftEIJUeT2keug2WzzlLb9KMG+IRfiobPOUtv0owb4hF+KtrBxbYjhcdy9rb6szrqINmoVyoO08x2dh7K3uBtP8LD/DFBx2zzlLb9KMG+IRfipZs85TMEgGZ8GJKn+/xezvV2uBtP8LD/AAxRwNp/hYf4YoOO2ecpbfpRg3xCL8VDZ5ylt+lGDfEIvxVu4nLhOD4fJe4hFDFAhAJEG9mYkBVVVBZmJIAUAkkgAa1o2GPZbxJoVtQolmuGthDPZPDKsojMhVkdAyHYCw3AajTTtFNR9bPOUtv0owb4hF+KlmzzlMwSAZnwYkqf7/F7O9XWWCxa5eAWib41ViTbkKQddNG00J5HUA6jlrpqKycDaf4WH+GKDjtnnKW36UYN8Qi/FQ2ecpbfpRg3xCL8VdjgbT/Cw/wxRwNp/hYf4YoOO2ecpbfpRg3xCL8VLNnnKZgkAzPgxJU/3+L2d6u1wNp/hYf4Yo4G0/wsP8MUHHbPOUtv0owb4hF+Khs85S2/SjBviEX4q7HA2n+Fh/hijgbT/Cw/wxQcds85S2/SjBviEX4q7c7Dh5O6fCpjpFs7Vei7NTLbQhhg12QRGOX5F6p52HDyd0+FAzMNtDMNtDMNtDMNtAMw20s7Dh5O6fCmZhtpZ2HDyd0+FA+4e2ijcPbRQfGYbaGYbaVp4tvpE94UNPFt9InvCgnekdh81ea/sa7+5es2c8eu8Ay3c3uH4XcYjIqHlEYwsXLzm3yJqO7qf2Vr9I80Z6LM1ASIScGu9BuH6l6oppojBJpInmn6w9lBwswYze2+V7a+ghmw65lvbOJ4ZxG7oslzGjqdpZdSrEagnt5HWuG3SRdti1/Y2+APP1UE8tm8TzsLnqnVTzEGw67tfyTSsNNNu7lVtcrZ3UPV3IgmQOrhZAGAZWDKdD6wQCD6iAa5T5UymXu5DgODF73XiW4OLWfU6nedPK1PPnTz+RRbUSc2c8wYsHOFcFZIyWHVtueQrLJdPFIjJJEjAeQynUKw07AT5P2TpHutmLPbWZu5Y7iO2XD5C4e1bqd0qkQxSSMVb/ZRhzB1C86s48Dy/btC9vheGxPbxLDC0dvGpjjVtyopA5KG8oAcgedY8VwDLuK29wMTwnC73rXEzi4to5N8irtVzqDqwXkD26cqTpSOOZ5Te6dHSJf3dnbXeG4BHNbSW1nNKZb4xOjXLmNEVerO7RhzJK8jqATyrDe9Jd7a9RbDLslxf751uorY3NxHGInCHY0Vu7MTry3rGPaRy1slw/CYYerhtLJE0QbViQDyG3Jy0+qxJHsPMVrYll7LeLwCLFcIwq+jWRpQlzbRyAO3nNowPM+s9ppOttDbm3YruSaze4kjW3RlDxdaSGClQfLBA2EHUEans1156Dzf+0uZMNwW9nvbu7ububC7i5tmuRaPYzuiBt9tJAOsEehJHXKSw2jUHXX0uJLK2V+GWCHeQX6sKu4gBQTp2+SoH7gB6q5iZbyzZR37WWDYTbvfRul0YbWNTcK2uofQeUDqdQde2k6zQjSKuKmcMQmxC3iurBLWIYm1iWgvBJ1rLbSSvuDRDRAVUDQhieZ0A0bFb59xWW1hFxgNpFdX0VrLYRriTNG4nLaCV+pBjI2+pX11AFVUWGYNa28UNtZWMMcL9ZEkcSKI227NygDkdpK6j1HTsrSx7LeD47gkmGzCK3iZI4w0CRHaiNqqbXVkZB/sspX9lJ7efszr2ZsvY1LjeFST3VtHazw3MttLFFP1yBo3KEh9q6jUHtAPtAPKupOw4eTunwrl5fwfD8s4DDheHzboYizbn2KWLMWPJAqgankFUADQAACulNNEYJNJE80/WHsqzQZGYbaGYbaVp4tvpE94UNPFt9InvCoJ3pHYfNXmv7Gu/uXqinYcPJ3T4VN9I80Z6LM1ASIScGu9BuH6l6oppojBJpInmn6w9lBkZhtoZhtpWni2+kT3hQ08W30ie8KBmYbaWdhw8ndPhQ08W30ie8KWaaIwSaSJ5p+sPZQZGYbaGYbaVp4tvpE94UNPFt9InvCgnekdh81ea/sa7+5eu3iV7b2GGXF1dydXDFGWdtpOg/cOdcLpHmjPRZmoCRCTg13oNw/UvW5mfL+B5qweSyxu1tbuMKTGZY0dom085NwOh/bQdee5hgjDTypGGZUUu2mrE6Ac/WSQAK05sfweK8gspcVsku7l2SCBrhBJKy+cqrrqSPWB2VpYrgltLlyLDMCls8JFtLDLahLcNDEY5FcDq1ZfJOmmgI7e2p98i3U1xazXGY4gyzyzXclrDLA8++QuYxtn2bBroA6SEDUggnWpubKX+1+Wnsbi7TMGFtbWsnVTzC9jKRP/ALLNrop5dhr6uaMAu5L20tMbw6e5tYne4hiukZ4VXkS6g6qB6yeypLBujcYXJbm4xuK6S0lt2g3cS7KkTahD11zIo9XmKgBHZpyHUv8AKEcuENBBicMcixXyrI1urgm5k381LcwOwj1+0GrtXcjV1znHLJwj5TGYcKOH9Z1fFi9j6reOZXfrpr+zWsn9qcvvbXkyY5hrRWIU3Ugu0K24PZvOvk6+rXSpzAMjfI9zHdX2NR38yXxvCWEratw7QaBpppXHIg82PrA0B5Yr3o6tp8GtbKDFlga0sbe2heNXjAeGTeHPVyIwBPqVlPr3UnWxGiytsWw7EIYJLC/trlLmMywNDKriVAQCykHmASBqPaK5Fxm2M4td4da4TiN3HayLBdXlusTRwSMoYBl39aeTqSVQga666A6NlnB5MvYWtpLiNvc6vJLM4ExaR2I0bdNPKw0AOoLHXUabdNDysw5N+W8c+ULi+wpo0KNFLJhitfWwUg7IbkOpRSQTzRj5Tc+Y0tqxmZ7JtLprn3Lc1hNPb4vZStG06rBxcSvK0O7eF3MB2KTqSBpzJA51v/2kwRsWGEDF7D5TI14HiU67TTd5muvZz7OypuXI5mhxmOfGbdhiFre2sRS20MCXEpk1Osh3lSx7NuvLsrdv8q291b3S8bGTNem80ACn826jZu1OnLnu0OnZpWa09Nc17X6NWrSMzTq7OHZhwbG+tGDYtY4gYTtkFpcpLsPsO0nT/fW9Ow4eTunwqFyJZ47FiV1eZlghtersbexgAjijLrGzn6k0uoG4eUSuuvmLpzuJpojBJpInmn6w9lamIhlkZhtoZhtpWni2+kT3hQ08W30ie8Kip3pHYfNXmv7Gu/uXqkZ1VSSeQGpqZ6R5oz0WZqAkQk4Nd6DcP1L0svR/kMQvtyll3XadNMNg/DQdrCLAYTg8Nj13XdUD5e3brqxPZz9tbzMNtTDdH+Q9vLKWXPhsH4aG6P8AIe3llLLnw2D8NA/SOw+avNf2Nd/cvVFOw4eTunwqabo/yHt5ZSy58Ng/DVHNNEYJNJE80/WHsoMjMNtDMNtK08W30ie8KGni2+kT3hQMzDbSzsOHk7p8KGni2+kT3hSzTRGCTSRPNP1h7KCf6R2HzV5r+xrv7l6z5xt8dvMvTxZXvbe1uyp5ywM7MPYrCRNh/adf3VrdI80Z6LM1ASIScGu9BuH6l6pGni2+kT3hQTmabzGcNyRJJBM8+KAojT4dZMdNXGrLHpMyjTlrtlI7dp0qJvMWzVe5IEeLyYzbPLa3iBrTCjO91Ju0iSYcOpRGQ+cI4tefNCND6y08W30ie8KWaaIwSaSJ5p+sPZUprVYmlKPNcTuMdfGbaLfi/W2txugs0wstarELZtsvXCP0m86FS/r02djViusWz1h+KYRC1xd3EMltA7vJaPtlkdiZVlENlJtC6hQN8RAGpLczXqLTxbfSJ7woaeLb6RPeFaib5l92aWpyo8nmzFnOMTbHxe46vEdE2Ye8fEodfya7rH8mo0Xz+R3crjka9DxTEJ7PK9/c2Mdzf3SCUQRSQlWeQsQq6BR5AJA3aeaN2p7T1Wni2+kT3hSzTRGCTSRPNP1h7KzS1Gt6vNbCPM+V8Hu8Lubea3WWSK5F5hZfEWiUsq3LLugX8oW/Kbdja9Y5AbTStG6nxtMqXEAuMfjguhftHJFgpea8kaQ9Ws8fVExKynXULHqSfKTQCvWmni2+kT3hQ08W30ie8KuuZnHQrSeuf15ji99nWywmWaynvxGcQ6jq0tQGt4Fi1UxhbWd23OdCxRxooA28zWG8zBnEkay3o63Ciz8Phs/VwSbSdxD2W5mPIcjqpbnAQpNeqNPFt9InvClmmiMEmkieafrD2Ums5yp5Z9MUznkIPKdvJjkmJT41FdW2IT2FtDNOT1V0UDy8t6xxsu4AHkkZGvYp7M2B4bFYrkcTWnU3dvhj25MkekqKIk1Qk+V2jsPrFWHDYcl/JfpDareyRiJ7kIokZAdQpbtIBJOnZzoltsOkvo7+SG1a8iQxx3DIpkRCQSobtAOg1H7KufvcjSjaZhtpZ2HDyd0+FDTxbfSJ7wpZpojBJpInmn6w9lRU/wBI7D5q81/Y139y9UjMNtTPSPNGeizNQEiEnBrvQbh+peqRp4tvpE94UDMw20s7Dh5O6fChp4tvpE94Us00Rgk0kTzT9YeygyMw20Mw20rTxbfSJ7woaeLb6RPeFBO9I7D5q81/Y139y9di+wWxxGYTXcTNIFC7lldOQJIHkka9p/41xukaaJui3NQ6xeeD3fYQT6F6VsWzkqlvkLLp0GvLME39HQUdpaQ2NqlvapsiTXRdxPadTzPPtNZqlziuch/qLLn/AKgm/o6Diuch/qLLn/qCb+joKiipc4rnIf6iy5/6gm/o6+Ni2clUt8hZdOg15Zgm/o6DpZptGvcvzQrhj4p5cbG2iuzbSHa4O6OQEbXXTVfKXmB5S9tSEeWcUx2TDocw4bc3GD2+JNIlnjMsE80UPDSJpIUZlkXey6bmdz2sT6u8cVzkP9RZc/8AUE39HQcVzkP9RZc/9QTf0dSmogLvLV9Z32Wo8dy+cWh6m0tWsTJC/XNFbXm5NHcI20Mh8ogH2kivsWWL98YTD5MD4nFLfDsO6i86+M/JJE8za7mYN5KDbrGGLbdDyOtXxxXOQ/1Flz/1BN/R18bFs5Kpb5Cy6dBryzBN/R1qt6k3/EO+Qcba8zI72d9Le3trfR8WZ7NIbsSn8igKoJ2IUgflWATZ5JI0r1fDcNs8Jw+Oyw20hs7aPXbDBGEUEnUnQeskkk+smuCcVzkP9RZc/wDUE39HQcVzkP8AUWXP/UE39HU0ihN5qqKKlziuch/qLLn/AKgm/o6+Ni2clUt8hZdOg15Zgm/o6CpoqXOK5yH+osuf+oJv6Og4rnIf6iy5/wCoJv6OgydI/wD1WZr+xbz7h6oJ2HDyd0+FeeZ8xLNcnRxmRLzBsBit2wm6EskONyyOqmJtSqG1UMQOwFhr2ajtr0GaaIwSaSJ5p+sPZQZGYbaGYbaVp4tvpE94UNPFt9InvCgZmG2lnYcPJ3T4UNPFt9InvClmmiMEmkieafrD2UGXcPbRS9fF+tT3hRQfWYbaGYbaGYbaGYbaCb6R2HzV5r+xrv7l6op2HDyd0+FTvSOw+avNf2Nd/cvWbOeC3eYMt3Nlh+K3GHSMh5xLGVl5ea2+N9B3dD+2g7zMNtLPPFDA8s0ixxopZ3c6BQOZJPqFTmabPF1yRJZYVNfYlfaopmWWOGd13gs2qNCvZ2hWjJGujA1GTYHm6bKEVnilrjN7L1F3HFFaYmsLxSO+sLTFrhusQKdu1pJdNDqH1BqcaLG1Xqkl1bosZeaNRMwWPVgN5I1AHtOgJ/3U07Dh5O6fCvN8RwPME2NRstnisksU2+K7TEkFokXDFVQQmQaSCQ+cE19e/Q7a077L+crPEMKNndYpNbRWkAduIa4MUupMxk33sQfUn1pKABooGgB1vme7NZp8PVmYbax8VbtcPbLNGZ0RZHiDDcqsSFYjtAJVgD69D7K8pmwjOwE3DwYu4XEeug6++K9YvPUy7b7yUHk6bPJ87W35CrVMCiscx47iFth5EeIWMIke2cRzXMqtMWG/cp3BWQBiRoNACAOUi8ZwWd83p5drFMXw7BrFrzF7+2sLZSFM91MsSAnsG5iBX2PErK/sEnsbyC5huITJDJDIHWVf9pSO0cxzHtrjZys7i6sbOaws76e5tbjrI5MOuIY7i3JRl3Is35J+TFSrnTRiRqQKjr/LmZJrS2uUtsQW9a1vohNDdRW8kPWSRurTrE6xNIwWTVo1I1269mtIvOcDg9QS6t5mmjhmjkeBwkqowJjbQNow9R0YHQ+og+usjMNtRMmXMTuMRks57nFFwgYkrI0eKypIbdbJUA6xZOs064Eka6k6sddSTJYliV/hmL4ZhGK3uKNjLJYR2nV4t1YA6wLL1kXWA3BYBtXCSaA82TQkN4jjQ2exsw20s7Dh5O6fCmZhtpZ2HDyd0+FAzMNtDMNtDMNtDMNtBN9I7D5q81/Y139y9UU7Dh5O6fCp3pHYfNXmv7Gu/uXqinYcPJ3T4UDMw20Mw20Mw20Mw20AzDbSzsOHk7p8KZmG2lnYcPJ3T4UDMw20Mw20Mw20Mw20E30jsPmrzX9jXf3L1RTsOHk7p8Knekdh81ea/sa7+5es2c8eu8Ay3c3uH4XcYjIqHlEYwsXLzm3yJqO7qf2UHeZhtoZhtrh4xmG4w7LcOILhbJdTzwwLZ3dwkZR5ZFjG903qNCwPk7v2anlU5jXSXd4RhZlbA457u3acXsMFzLMsQiI1KNHAzMDr5zrGoIIZgaZn3Av2YbaWdhw8ndPhUPiPSHf2t1iFvDl9pHgVJLdXNzumiJUNIQlu4KjcvojKRqNwTnosvSbFIohhw7rnlRlBjn1XrHUNbLrt10lUk6kDbtI50i+gvGYbaGYbahr3pCvbOzlvJMFt3tJRNwJS/JllaJ9pEidXpGDz5hn05A6E1mkzVjU+M2NtwFpa2vyitldSx3vWuZRAZGQI0S+Rrpo+oY6A7ADrSLzQ2rmlVmzDbSzsOHk7p8K4mZrvEocqs9lNBZ4hI0Scpk11Z1DJE0q7TIRqE3qAWK6gCpUZrxuwgitnF1cyxXrx3keMCCK4SLhZJQN1sGifXYSCNpGgB7d1SsREzOy0l6OzDbQzDbUMmdsUZWkbC4+LmtLCWKzN9+RU3M8ka6ydTuBAVS3Jh6lHIsxc5/xOKxuGXA7Q3VhDcXF/E+JFI0SGQoeqfqvyhO0nyggHLUjWtTFJpOU1SL6cuui5ZhtpZ2HDyd0+FLDOJ7SOXTb1iBtO3TUa007Dh5O6fCkxSaJExMVgzMNtDMNtDMNtDMNtRU30jsPmrzX9jXf3L1RTsOHk7p8Knekdh81ea/sa7+5eqKdhw8ndPhQMzDbQzDbQzDbQzDbQDMNtLOw4eTunwpmYbaWdhw8ndPhQMzDbQzDbQzDbQzDbQDMNtLOw4eTunwpmYbaWdhw8ndPhQTvSOw+avNf2Nd/cvXdvr63w+xluruTq4Il3O20nQfuHOuF0jsPmrzX9jXf3L1vZky1g+a8Laxxyxt7uPtQywo7RHs3LuB0P7aDNjeO4dgGHreYtdR20DTRwh5GCjc7BQNTp7dT+wE+qtPEs5ZdsrXFetxqxaXDIHlvII7lGkhA/2l11B1IHPTmQKfFMAily3HhWCcLhaQSwy26pa6xR9XKsgHVqV5HbpyI7a4Vzke7lsbu0mxi3NmtteR2SpYFZYjcA7jI/WaSAbjyCpryJJI1pn55WNqqNMy4HPfx4fBjFhJfSxCaO1S5QyvGRuDBAdSNOevZpXD+cOG4gjlw3AMXv4mw+HEJJITbKIYpQxXcJJlJbRG1Cg1rDImISZtgxu9x2ORYZ1uDbw200Ss/VdWdV68xnkToTGXA2gudOeTDujPA4DbPjdph+Nva4ba2ELXlgjlOp36uu7dpu3DkOzb2mm2c/CRzdyHNeDXs9vBYX9vdSzOqmOO4j3xbo2kUuhYMNQjcgC3adNAxGO4zplcWN5McyYSIrVupnc30e2FzqArHd5LHQ8jz5GtZsoRm6SbjNAuLS4kyrFoW3wPDs119QfXd+zTT11PYl0a4lfW9iZsw2yPg8PUYe1tYy27CPaVIleK4WRjt002PGmu7VDqAHjyZ17X6PQI721uDtt7iKVurWXRHDHY2u1uXqOh0Pr0NcW3zrhd3CrRrcKTiLYcyOgDJIpYbjz8w7CQRr/wAQQNzAcLkwTB7fD2nilighVBsSQEvqSzaySOxB1GgJJGh8o68uJcZChkusMuo8QeKazu5Z5ikQ0uo3eV1jYa8ijSkhvV5XLyjT1a2I0uobnHcJtbM3NzidnDAIlmMsk6qojY+S+pOm0+o9hrn3Oc8vHDLyazxeyv2t7NrtobO5jlkMWnngBuw+3s/bXIscjXscUCYtjVverapZxQLFYGICO2l6xd2sjauewsNByBC+18TyHHdYZcQx3scXWDEGY8KGDG6YtqRrodvZz879lJ0zP8M7u22bst/I7Yp/aDC/k5ZOqN5xkfUh/wDZ366a/s11rbjxrC7i9Fjb4jaS3bQicW6TqZDGdPL2g67eY59nMVIYp0f32LRm7u8diTFhcrKs9pb3FtCFEZjC7IrhZNdGPldb+zTQaV2cr5WXLSzniUmaaGGNtiSAAxhueskjudSxPlMSPaaJdRMw20s7Dh5O6fCmZhtpZ2HDyd0+FFTvSOw+avNf2Nd/cvVIzDbU30jsPmrzX9jXf3L1SMw20AzDbSzsOHk7p8KZmG2lnYcPJ3T4UDMw20Mw20Mw20Mw20E30jsPmrzX9jXf3L1s5tzLb5YwGa9uLe6uPJIVLe1ll1On1jGjbB+1tBWt0jsPmrzX9jXf3L13ryOG4sZobiNJY3QhkddysNPWDQcjG84WGC5XXHJ4bprZ2VQkiC1ddx0G/iDGI/8A/Mr6h2kA6Fjng3WNS2U2GXXCyXa29vfxCMwgm3WYK35TcW0J8pVK9g111qgxbDbbGLBrS8e6SIkEm1u5bd/fjZW0/ZroawQZewizgjitbRYo4plnjRWbRXWMRgga+pABp2f76nHp0J0cK06QYJbGxkfD7+5SWytru6vIYI44bdJtQrMrSlhzU6hd5UdpPbTXXSHh1vaX09/YYhZWUCXGy8nSMRztCSrqmjlgdVOm4KCBqDWZMhYLHiMdxsl4e3tra2t7VLiVUVYSxUOA+ko8oaBwdNNfWa+2eRsHsbe8e4WW7mueJ3mSeXq1Ezs7BIy5WM8wCygE6antrXq3pzzOq7tTC+k7CMc4aLCrW5uri4uDA0VvPbTdTou4u7xzMm3bqfJYty0010B1oukK5my1hdzHhc1xdXNtZTXc8KLw1s07KNpBkDnXU6bQ2moLECqOyyxheHyRSxG9nkhdnie8xC4uWQsu06GV2IBHq7PX21rSZHy8y2YW1njSziihijivZ0RkiOsYdVcCTaeY3htKWr9eUjR08QvL2PA7y4w+waa9jjk4e1kdV61l1289dAG0BGpHI89DrpFx57xODDLnikTE7oS2yLDHhc+GSqssojY9Vcv5ajXk6uRqQCAOZuLjD7O6w24sbqPiLa4DiWOZmcMGJJHMk6c+Q7ANANABXHfJeBpht1bsl9MJwhaW4xK5lmHVsHQLK8hdAGAOikDWpH/q+hOjRPSDbNHxbWN9DaLa3lwEkgjLzrbtGpZCJeQ1cgBhq2muqgDdn/t0rbrcZfxf5TE5h+TTw/XEBFkL7uu6vbtYfX11OmldGTK2CNapA1nrHHbzWyr1r8o5mVpF119ZVTr2jTlpXPzVk8Y4omw29+Tr3rxM8/5Y7/yfV6axSxOvLTzXAOnMGpNYiM37K7mFYrBjOC22I2ySxxXUYkRZl2uAfUR6jW1Ow4eTunwrSwTC4sCy7Y4VDIZEs4EhDldu7aANdByGvsrdnYcPJ3T4VqaVszGhmYbaGYbaGYbaGYbaipvpHYfNXmv7Gu/uXqinYcPJ3T4VO9I7D5q81/Y139y9UU7Dh5O6fCgZmG2hmG2hmG2hmG2gGYbaWdhw8ndPhTMw20s7Dh5O6fCgfcPbRRuHtooPjMNtDMNtK08W30ie8KGni2+kT3hQTvSOw+avNf2Nd/cvVFOw4eTunwqb6R5oz0WZqAkQk4Nd6DcP1L1s5tzVZ5ZwGa9njuLk7SEjtreWbU6fWMaNsH7W0FB3WYbaGYba42JZqw/D8rvjjrO1sqhurePqJNCwHlCYps7eZcqAOZIrgTdJ9jdZZOJYFYXV/I1vPMUiaGRbcREqWdll2uu4dkbOWGugNTRYitFwzDbSzsOHk7p8Kj73P4hubaOHDrh7frxFc3u1Op3CFpGRB1m/cNBzK7O0a61q3HS5gEU1paXsU9lLeQJLsubi1RokkJEZKddubdprpGHIBG4A8qrNYpVeMw20Mw21EN0r4Ht5wTL/AJbwR33Vou1va2s429no20lPqTka3IMcxqPMs9pdz4XfwrFLK1ph8TLNagEdUHleTYzOPUVTnqRqATTXPldFWzDbSzsOHk7p8K4ObsZxDDMLhlwdUJaYLcT8I95w8eh8rqImV5NW2rop1G7dpoDXAbpHa2s4GvLU38Rs7qW4uLKLqSrxOiBTBMyyRsd41Q66ErzI1NNRfsw20Mw21JNnkRyTxHC766uuMW1jsYFgWWNjbJOQztP1baAnVgwGvIA6bj8+cbD5IoJbfDcSnt5EgaedFi22rTEBEkBkDE8xrsDAa6k6UFczDbSzsOHk7p8KGni2+kT3hSzTRGCTSRPNP1h7KDIzDbQzDbStPFt9InvChp4tvpE94UE70jsPmrzX9jXf3L1RTsOHk7p8Km+keaM9FmagJEJODXeg3D9S9fJekTKRgcPjltESp9Nuj9X/AHgKCnZhtoZhtqeXpCyZL5KZtwMt/snEYgf+G7WtxM15duF/IY/hcvcvIz4Gg6rMNtLOw4eTunwrCmJWM6/kL23l7kqnwNZJpojBJpInmn6w9lBkZhtoZhtpWni2+kT3hQ08W30ie8KCd6R2HzV5r+xrv7l6op2HDyd0+FTfSPNGeizNQEiEnBrvQbh+peqKaaIwSaSJ5p+sPZQamNYTZY7h3BYigltzLHI8ZUFZNrBtrAggqdNCPWNa1p8pZZntbS3ny9hUkNjrwkb2MZW31Op2Aroup58tK373E7DD7KW6v723tbeIbpJppVREHtLE6CmhxCzu4DLaXcE8e4rvilDDVToRqD2ggg+wig5k+TsrXC3HX5bwiXiirT77CI9aV80tqvlaerXsrcnwvDCry8Ba9YArB+oXUFAQh10+qCdPZqdKy3OJ2FsP8pvbeHmi/lJVXm7bVHM+tuQ9p5V9e+tZVuIormF5Il0kRZAWQkajUerUc6DU/s5gKXd3dpg2Hrc3o0upxaIHnGoPltpq3MA8/ZTy4DgsmMDF5MJsXxNQFF61shmA00036buz9tbzTxbfSJ7woaeLb6RPeFBrz4dh8+FNhs9lbyWJjERtXhUxFOzbsI0009WmlaTZYy9Bg4sIcDw2OzhczxW6WcYjjk0PlqumgbmeY5866rTxbfSJ7wrlw5nwDElvYsOxzDbuS1RuISC7jdoe0eUAfJ7D2+ym43DhuHDRhZWwZVjQHqV1CxkmMdnYpJI9hJ0rgZpyBg2azA140lv1Jc7YIoWDFyCzflI22OSPPTa//e7Ko5r+0hMSS3UKNM+yJWkAMjaFtF9p0UnQeoH2VkaeLb6RPeFN6j6AiRBEGiqAAB6hXydhw8ndPhQ08W30ie8KWaaIwSaSJ5p+sPZQ0ZGYbaGYbaVp4tvpE94UNPFt9InvCgnekdh81ea/sa7+5eqKdhw8ndPhU30jzRnoszUBIhJwa70G4fqXrbuc5ZYjgkEmY8JU7T519EPV3qDtsw20Mw21JY/mCxxrLlzJlfMtvJJZywvO2G3McrBS+gRiNdobQ8+RIB0Nb13n3KlpczWtxmDD0uIXMcsXXgsjA6FSB2EEaaUHfZhtpZ2HDyd0+FTjdImVSvkYskn/AIcMj+Cmkm6Q8utC4jnvpCVIHV4XdP6v2R0FQzDbQzDbUw3SFgjL+Tgxt+7gN7p/xMOlDZ9sGX8nheOv/wDaZl//AHKKCoY+T6/+FJORw8ndPhXBwmeW0zDjy4libywi4g6kXDKqQ710WNAAPWQOepJPb2VrYw+I22IxY/h9/f4thk0AiTCbFLYxtuUnruskZdRyXsY/uIJ0DL0jsPmrzX9jXf3L1SMw215zn7M+I3PRvmWFso4rbJJhN0rTTXNltjBiYFiEnYkDt0AJ/ZVPnDMdxl/L817h2HS4lKik7YXiCx/95t8iEju6n9lB32YbaWdhw8ndPhXDxjMzYZlU4pwDLdNtVLC4mXfuZtNp6rrNTpz0jDk6cgTyqYuOke/xLKs0+E4XBFeraXc1wtzdND1AhYoTGJIQztrzCukf/eI1FSqxFaPRWYbaGYbagr/PGJJNbtb21twEV1w885ux10zrbtKy9Vs0VCdPKDbuQ8nQ61jHSdecbZW0uXZGM0EM9xwhubnqllJ2BWS3KEhQC29owNSAW01rVM92a2q9BZhtpZ2HDyd0+FQE/SddW4nFzgiwcNd9XcdZJc/kITu0lbS2PbtbmNYuR/Kj11eN388OV8SniubC0ukglMMs8/5FDodjOxA0GmhPI6cxz7TnarW9HWZhtoZhtrzWPM2P4bbzWry301+ZrMrDjptEbq5JxG7JJaBkK89NGUMNS2pHIbjdIF1w4v5sPSOPgb+5hto71WEwgeJQXJiBViWbTQkAdu4kbda6c+iL5mG2lnYcPJ3T4VHHOmLm6OFtg2HjF+IMYj+VG4coIlkLdb1O7XRtNuz1HnpXewbG4sdyva4mFSDjLcS9V1ofbqOzcOR/eKg6rMNtDMNtK08W30ie8KGni2+kT3hQMzDbSzsOHk7p8KGni2+kT3hSzTRGCTSRPNP1h7KCf6R2HzV5r+xrv7l6pGYbamekeaM9FmagJEJODXeg3D9S9Z4c+ZTu7uK0ssx4ZdzzSLGkdtdJKWYnQDySfXQd9mG2lnYcPJ3T4VNR56tFsTNiWG4naubmWBIIrKW6f8mQNW6lXCa7gdCf/cHRZc8RSwuLTAMdn1U6f5GIvV/81loKlmG2hiNtTttmbE7u7hiGVMQtopJFVprm6tAEBPNtqTMTp26aa1oYbdZjtbG6hsja4xKuIXCSXGKXxtigBXaFEcLAjmRp5OgA7ddaReacq9Yj+k2iub9m70jsPmrzX9jXf3L1RTsOHk7p8K87z9PmyXo3zLxbYBBB8k3XWJC8szleqbUKTtGunYdP91U2c48ZvMt3EWWMQtba7KHXrYi7ONOxCJU2H9p1/dQUDMNtDMNtTuP3mKWWUdy3okvlaNbi5w603OsZcCR4oWMhLBdSF8v9zdlR8OYcwPeFY8TzDKiyRrhonwNYlv1L+Wbluq1i083U9RyG4BtdSi80JtFXqTMNtLOw4eTunwrzu5fN0kc00ePYhF1kV/MsMdjBpE0MoFui6xE+Wp57txbTVdtJDmXG7jMVwgu8RkeO4VDh6YcvCCE2yO5M2zUSB2bRTICeQ2kHdUia58E2eksw20Mw215PgOPZyxOG9gubvEoVlktBFdSWOySHdNpNtWS1jUaIQdCJQP8AbbQ12ZMWzFh62dlJiEt1Je3c+HxT3EUSOpEu5JyFQA/kVkPIbSVTkNSa1EVzOJNl+zDbSzsOHk7p8K42LmK8ynicHX38wkjnjPDhY7jTVhpGGCjUdik9oAOra6nza3tpLfAr9cHtjYWqzWUjz4Pl6fDGcrcLvU2sofrCE8oyIo5AKdQNKkX9VCbQ9kZhtoZhtrzR7rMy2aXrT3M9++G4k6SSWEW62kEkIhjXSMEAhS2067yCTqAAMmKYpjGD3Rw6+zFizWbXhCYhb2EM12y9QrBFjjgKsm/dqwjJGgBI7abROa0V6OzDbSzsOHk7p8K42UsVlxTJmFX2IXCyXNxapJI+iruJGuug5D/dyrrzTRGCTSRPNP1h7Ks2miMjMNtDMNtK08W30ie8KGni2+kT3hUE70jsPmrzX9jXf3L1RTsOHk7p8Km+keaM9FmagJEJODXeg3D9S9UU00Rgk0kTzT9YeygyMw20Mw20rTxbfSJ7woaeLb6RPeFAzMNtLOw4eTunwoaeLb6RPeFLNNEYJNJE80/WHsoMu4e2il6+L9anvCig+sw20Mw20Mw20Mw20E30jsPmrzX9jXf3L13ryOG4sZobiNJY3QhkddysNPWDXB6R2HzV5r+xrv7l6op2HDyd0+FBp4xhVljeHm0xBZGi3rIphneF0ZTqGV0IZTr6wRXJnyHl2ewS1e3uxGnWAsuI3CvIJCC6u4k3SBiASGJBPPtqkZhtoZhtoODcZMwGe/N7JbT9ZrqY1vJliLbOr39UH2btnk7tuunrprvKuESGGdBeW72sKxJwuIXECsqeaHVHAk0/74PLUV3GYbaWdhw8ndPhQT02RcBmE3XLiEpncNN1mK3TdaBroj6yeVGNT+TOqczy5mnscmYLhc1xNYNicTXBkaRfle7ZC0nnMEMhUMdddwAI9RFUDMNtDMNtNBz8YwXD8cto4sQSU9S/WRSwXEkEsbaEarJGysuoJB0PMEg1zrnJeASWMUT20zLbxyqpN5MWfrCC5kbfrISVU6uWOoBqhZhtpZ2HDyd0+FBo/IuGpfvfLb6XL3HEs+9ucnVCHdprp6MAadnr7edTGKdHMV3jVpcWWI8Jh8HD9ZZBZTv6l968xKqH1DWRJCPqleWluzDbQzDbTeJ4AZhtpZ2HDyd0+FMzDbSzsOHk7p8KBmYbaGYbaGYbaGYbaCb6R2HzV5r+xrv7l6op2HDyd0+FTvSOw+avNf2Nd/cvVFOw4eTunwoOZjWKrY3WG2zYdJeJfXIgaUFQkGo11bXmdewAA/7hWhmVMOw2O2YZQbGuImEbi1tIn6le0u24jkAPVrz5V2r+xhv+GMzuvDTrOmwjmy66a6js508ETwgdZeTXGkSp+UVBqRrq/kqObajX1choBz1Rpfj0t5J1tw638ORPkfKFwp6/K+Cy9/Doj4rWvN0e5OWBzFlzDoTtOnUW4j05f93SqZmG2lnYcPJ3T4UE62QcthfyVpcQ/wDg31xH/wDtcVprlvLT4tNhdpi+MrfwRLNLbxZgvSY0Y6KSplIGvq9tWDMNtc35OZczPiSmMRNaCEgecX366nl7NB203jNu5tOb9kbn7KcVr0bZlmhxvHG6vCbp+rlxB5EfSFjowbXUH11TZzwW7zBlu5ssPxW4w6RkPOJYysvLzW3xvoO7of21h6R2HzV5r+xrv7l6op2HDyd0+FBM5ry9cYtk+3wviby/mjvbSR5zOLeV1S4RnYtF1YBCBj5IHMAgagVwLzAMy3CXjzz4x+TjvuGS1xAgsz3TGLVeujDfkSNAXXaOwqwBHo7MNtDMNtPPWKLW1HllvlPF75kGOYXdSG5trGO4Ml+ZIwsV27OrK87nf1ZRtQX57gHJPlY8WwPOUVrisSQ3d00l5EEu7O7CSXEKQbRI6rPA2uugYCRfKGoDKdtersw20s7Dh5O6fCk3inOqRaavO4st5nu8OtZMTvsUjvoLWwi/IYk0alhKwuWKq+1iY9Obbj2EeVzrRx7Ac6RRW8OFzYlLZ21xciJI7pppgpkBid3a8gLgLqAHd/YV9nqjMNtDMNtJvNTajQs0l4KZblJmnYL1jTPosrdWoJUBmCLry0GnMMdDrqfOZMuY9c4Ff4auHYpBaRYTc2sFtfXFo4iJQCOO1niIm26qATMRuUDdz109VZhtpZ2HDyd0+FJvMkWpyQtjg2PRT290DikXWYozyQXOJGTq7QWsiopHWMvpGXXTUk6EkgAjkYpY4llbLaXWIX2LGye2svlPrMYcuZdzCUJM8oEOuq6sHRNBpqK9TZhtoZhtpPbplzOtfHslujy9a/yct0ZLmSGW6nNs11c8Q/UiVggMmrb9FAG4MwPaGbzjTzsOHk7p8KZmG2lnYcPJ3T4VZmoZmG2hmG2hmG2hmG2oJvpHYfNXmv7Gu/uXrrNhWGRW8nVWFqnknzYFHq/dXJ6R2HzV5r+xrv7l6op2HDyd0+FAKscSkRKqD2KulMzDbQzDbQzDbQDMNtLOw4eTunwpmYbaWdhw8ndPhQMzDbQzDbQzDbQzDbQBYacjSzsOHk7p8KZmG2lnYcPJ3T4UE70jsPmrzX9jXf3L1SMw21N9I7D5q81/Y139y9UjMNtBrYlh9hi+HyWWK2dvfWsmm+C5iWRG0Oo1VgQeY1rnXeU8tT4XHZzZfwqS1tdXggeyjKRNppqq7dFPIcxXaZhtpZ2HDyd0+FBzpsuYDNiXylLg2HyXwTqxdNaIZQumm3fprppy017K+X2Wsv4hNaz3+CYbdTWYC20k1ojtAAdQEJHk6H2V1GYbaSO5hubdZreVJYnGqujblYe0EdtBx/7HZWVRty3hA2z8SulhFyl/WDyfO5Dyu2unJb2yWM8KQxrFIHLxhAFYtqWJHr1JJPt1NZpZo4490jqi6gasdOZOgH+8nSidhw8ndPhTag5MGU8tWeGXGH2mX8Kgsrllae2iso1jlKkEFlC6Eggaa+ytx8JwswiM4faFFjeJV6hdAjkF1A07GIBI9eg1rJ8o2T38lgl3A15HGJXthIDIqE6BivaASCNezlWwzDbQT+acnYXmqyEF5rARMJmeOCGTrGC7RuSaN0bQdhKkjTkRXTsrC3wjAYcOtN3UWtuIo951YhV01J9Z9prdZhtpZ2HDyd0+FNAzMNtDMNtDMNtDMNtAMw20s7Dh5O6fCmZhtpZ2HDyd0+FBO9I7D5q81/Y139y9UmqqoC6ADsAFTfSOw+avNf2Nd/cvVIzDbQatnYw4etz1LO3ETtO+866M3aBy7K2J2HDyd0+FMzDbSzsOHk7p8KcgzMNvbQzDbQzDbQzDbQTfSOw+avNf2Nd/cvVFOw4eTunwqd6R2HzV5r+xrv7l67eJXtvYYZcXV3J1cMUZZ22k6D9w50GyzDbQzDbWvf4hZ4bZPdYjdw2lvH5808gRF/ex5CuTc54y3a8G0+NWMdrfRPLb3rXUYgk2sqlVctoWJbkBr2H2U1mg7zMNtYWihhhuGhjRGl1eQquhdtoGp9p0AGv7BWs+YMGXFvklsWsRiWzrOCNwnXbdNd2zXdppz10rVXN2W7vDb66tMwYXPb2af5TNHeRskGuum8g6Lr+2g7LMNtYJLOze+S+e2ha7jjMSXBjBkVCQSobTUAkAkfsFJbYth2IQwSWF/bXKXMZlgaGVXEqAgFlIPMAkDUe0VyrjOeGQyYtE6XAlwuaKKVNg1k6zZoyc9CoLgHsIIPLmNW5s77MNtLOw4eTunwrXlxbDo4DJJf2yx6Od7TKBoh0c66/VPI+z11z0zfly+QRWGPYbdyzRyGGK3vI3aXYDu2gHnppz07KlR2mYba08WwnC8bsuFxrD7TEbcMHEN3Asqbh2HawI15nnWhYZzy7ieCy4nb4xYrbQRo90XuYxwm4ahZdG0Q+rQntFbUWY8EuWs0tsYsJXv1LWix3KMbhRqSY9D5QAB7New1Zi9JK7t9EihgWKFFjjRQqIi6BQOwAeoUTsOHk7p8KZmG2lnYcPJ3T4UDMw20Mw20Mw20Mw20E30jsPmrzX9jXf3L1RTsOHk7p8Knekdh81ea/sa7+5eqKdhw8ndPhQMzDbQzDbQzDbQzDbQDMNtLOw4eTunwpmYbaWdhw8ndPhQPuHtoo3D20UHxmG2hmG2laeLb6RPeFDTxbfSJ7woJ3pHYfNXmv7Gu/uXrNnO3x27y3cxZYvLe1uih162BnZxp2KwkTYf2nX91a/SPNGeizNQEiEnBrvQbh+peqKaaIwSaSJ5p+sPZQcTH58Ysso7luWkvlaNbi5w6yJZIy4EjxQsZCWC6kL5f7m7KiJ5cavY8Rm4jHWtojhphv3wVYbu4RbyQyAoItzBVIOmxeQ126MS/qjTxbfSJ7woaeLb6RPeFWJpNczybUSeD4pit3iWIWt/czrDhcy2rSwwqzXEjSB1JAQ6ARGIMRoB1j+btBGj0lYfa3slhLeWrXKRRyhVuMCfFrUE7fOhjIdZOXkyeaBvB5kVZWtvh+H2xgw+K2tYi7P1cCqi7mOrHQeskkk+sms000Rgk0kTzT9Yeys0tELW8vMYkzImJWkdvNi+GPdWNhE6Q23XxW6CWUSESSRvtcKVOjsxG/nrtGm9ImZ5LK4jsLu+wrqvlW4UWuHw/l5Fuj1AYNEQdyknloz666ntr0Jp4tvpE94UNPFt9InvCr565VPHTu86hzPismcrW2mxK+RpcSNrJYLYKbQRCBn1E/V69bqASvWEjn5AA1Hos7Dh5O6fCtA4TgYxhsYXD8PGKMuw3whTryummnWabtNOWmtbs00Rgk0kTzT9Yeym0Qm7IzDbQzDbStPFt9InvChp4tvpE94UUzMNtLOw4eTunwoaeLb6RPeFLNNEYJNJE80/WHsoMjMNtDMNtK08W30ie8KGni2+kT3hQTvSOw+avNf2Nd/cvVFOw4eTunwqb6R5oz0WZqAkQk4Nd6DcP1L1RTTRGCTSRPNP1h7KDIzDbQzDbStPFt9InvChp4tvpE94UDMw20s7Dh5O6fChp4tvpE94Us00Rgk0kTzT9YeygyMw20Mw20rTxbfSJ7woaeLb6RPeFBO9I7D5q81/Y139y9bObcy2+WMBmvbi3urjySFS3tZZdTp9Yxo2wftbQVqdI80Z6LM1ASIScGu9BuH6l6715wtzZTQz9TLG6EMj6MG/eD20HLxnMJtst2+J4fG35e7tYQl3byRMFluEjbVGCsp0Ykagc9OVcefpTwSHFMVw6SC5FxhsUkrr1tvq6xsqt5PW7ox5QIMojXTnrpzqpxC2scStRBe7JY1ljmC9Zp5cbh0PI+plB/3c64y5Ly7DLNLCbyN5A4GzFrlREHbc4iAk0iBPPyNvYPZTz+RRbUca56Qr68RmwHClkRorGWCWeeJ45eunaNk3RSMNdFOjDVdQTzGmr3XSZZW1hiV9PE0tjHJDDAVaOFlLxbmErTSIiEMCuhIOvk6E124MpZetJIpLeJw0SRqN17KwbZKZVZgXIdt7M25tWO46k6msN/kzLVzJd3Qge3ubmc3Us1ney27tL1ewtujdSNVGhA5HtIJ50nS3FN7tV+kjD3t7eezwvFLy2nt7a4M8EcZWMTsViU6yAklhp5IYDkSQOda2J9LOBYTBbfKUNxaXEzyrJbXE9rE8HVMFcsXmCNzI0EbOT6hXfhy7gVraC3ggRYgsChevY8oXLxjm31WJP7ew6isV7lXArzVibi3kMskpks8RntnZnILatG6kgkA7SdP2UnW2htzdWC+W8tWnt42MRAaFyRpMpUMGXnqBz05gHUHlpoTAjPeN2mG4lJjEELXkNhNcLhvyZPZvHIg1KLNI5iuQNTq0bLyXUA66C+SO1ijkQSl1k03CWYyfVC6eUToNB2DtOp7SSeGuTMuW1ndRRxzPFNayWwimxGeVIo2XRkiVnIiGnLyNvIAeoUnWaZmUI0irEmd0ub6C3GH3lovHcHI9xFGwkkEEkrIpWXUbdg1Ygg66DXUsuODpEtrm0DnA8Whmmjgks7aQQb7xZS2woRKVHmkkOVIFdWLL2CW8MKRx7uouDdI0ly7t1pjMRcszEsSjEcye3Xt51o47lOwxHBVtMNuUsJ4YoYYJ97tsSJtUXyXVx2nyldW5+dSe3nwZ17dXWwbGo8bw1rpLW5tGSV4ZILlVDo6MVYHaWB5g8wSD2jlW/Ow4eTunwrjZXweLLeXkw9r5bqXrJJZZtSN7u5cnymZvX2szMe0kkk115pojBJpInmn6w9lWaDIzDbQzDbStPFt9InvChp4tvpE94VBO9I7D5q81/Y139y9UU7Dh5O6fCpvpHmjPRZmoCRCTg13oNw/UvVFNNEYJNJE80/WHsoMjMNtDMNtK08W30ie8KGni2+kT3hQMzDbSzsOHk7p8KGni2+kT3hSzTRGCTSRPNP1h7KDIzDbQzDbStPFt9InvChp4tvpE94UDMw20s7Dh5O6fChp4tvpE94Us00Rgk0kTzT9Yeygn+kdh81ea/sa7+5es+ccEu8w5enscOxa4w2V1I1iWMrJ/wB1t8b6Du6H9ta3SPNGeizNQEiEnBrvQbh+petnH7+4GIYLZ2F8LYXF7rcuoTyoUjdigLAjVmCDQeVt3kabSQ1GlnBLyyyXDbxXmIXtxxdrE8sUyW9xcK06BlDoEVWZSRy2jn2jtrgDAczS2s8qyYraxxWNzwNtcYqXkjdn8lZWDsJH2FtGYuF1XmSoNejtPFt9InvCpvM+abnCrtLLDLKzvHeynu5GuL/hwkcRQMB5DbmO8aa6DlzIqWjXn+fy8rSZikZdPHC8c4E7cNzGMK4sMcMONg35HVEbuv4jzN+h2dd6iezyT9srPNeGYTZ4bHht9J1lnYoZkvYQlq8crGbf5YOpQjmisG7DoK6EWfb/ABGVo8KwizYzXRt7Q3eImHrNsfWOz6RNs0BAAG4k7tdANTrXufr+9sEkwiyt4Y0Nrxk0l4u+IyzbCsabCJF5Hyiy8jqoJGla3vlmYps5eNYBjt9cOJMMzDczR4gtxNPFjqx21xCtwrqsUXXDawQDlti5qTuY6bu5lWzxu1mxL5at8SMDXbSWstzdkvoUk1LqLmRdnNQAu0biD1S7d1bd1n61tsPFw9urax30hjW4G7S2k2esfW5c+W3X11qR5pzFNmtcHu8Owe30w+4uHSHFjMGI6sR8+pDKNWIOqjtJG7boZ6f/AJjMos8cy7r2F1b/ANvMbtuvj4jhbWTqtw37dZBu07dNeWtUDMNtSGfcVxG1XBoMFuL5JLu9MUq4ZwpnZBDI+im5/JjmoJ10Og5VzYM443glsbfGbE3Ritprxpb27hjuFiD7Y1cQqYi5YjUqVULzPMEFF7Zx/CbRV6CzDbSzsOHk7p8KkGzniguPkpsJw75ZM4jEQxRuG2dWZN3XdTu3aAjb1evr7OdYMMz2XyuJ79Y5LlbSzkdmmVS7XEjR6aAaDQj1duunKguGYbaGYbagMXz1jSwwy4bhuGLa3OJJZ2802K7ZX0uBG+6LqjpqA+m1nIHMgaEVmkxbHBlW0vbfGIiz4sq3Dzwoz9SbwR9VGFChRtJ8pgx0/adyovnt3N6LlmG2lnYcPJ3T4VxsMvZmx/G7e4vzcQxSRNArhB1QZNSoKgEjUa+VqefbXXmmiMEmkieafrD2UE/0jsPmrzX9jXf3L1SMw21M9I80Z6LM1ASIScGu9BuH6l6pGni2+kT3hQMzDbSzsOHk7p8KGni2+kT3hSzTRGCTSRPNP1h7KDIzDbQzDbStPFt9InvChp4tvpE94UE70jsPmrzX9jXf3L1uZoy3g+acGksscsbe7jCkxtLCjtE2nnLuB0P7azZgsLbHst4lg89yIo8QtJbV5EI3KJEKkjX1jWuRLhGP9S//AMaufJPLgYOf/tQZsx4CZMr22F5ct7WzFveW0kMaQL1UKxzK+vV6qCBprtBBPqIPOtSPJJaO5kvr+Ge7u7W7gmkjtNibrhkJZELEqoEY8kkknmTWdsIx/b9NX/8AIwfyobCMf2/TV/8AyMH8qcfnrFDhyYf7HXS32gxWD5M4pbwwcEevMwjCem36beQOmzXTyd2nKtbFej6O8wKO0TETDJbWFrbRSojp5VuxZXPVyK2hJ7AwI9tb7YRj+36av/5GD+VLLhGP9S//AMaufJPLgYOf/tTPpKUtnFuZZwK4y9ha2kt7Fc6vJLM4SctI7EaNummlYaAHUFjrqNNumh5+OZFixhLiRcQa2upMQS7SdItSqaRB4WGvlK3Ug+rQ7T9XnmbCMf2/TV//ACMH8qGwjH9v01f/AMjB/Km9cyytC4yJeXcd3bXeNwSWEkV5FbwrYEOguX3t1jGQh9vYNFXkTrrXQxDKUU9xd3SXKxNNfpfNpBz8i3EIQnXn2a6+rXTT118bCMf2/TV//IwfypZcIx/qX/8AjVz5J5cDBz/9qkxErVyZOji6usESzv8AG4GltLe3t7GWzs5LRY1hcMpcRzBmOoHmPHpz001rqZYyacv3i3k98l1P1EkTsqTHeXkDlt000r/VA0LH28uysjYRj+36av8A+Rg/lQ2EY/t+mr/+Rg/lWqzE19+urMxE65RTsw20s7Dh5O6fCppsIx/b9NX/APIwfypZcIx/qX/+NXPknlwMHP8A9qiqlmG2hmG2phsIx/b9NX/8jB/KhsIx/b9NX/8AIwfyoH6R2HzV5r+xrv7l6op2HDyd0+FR+L5WxbGcFvcLvs5yta3tu9vMq2UAJR1KsAdOXImq6aaIwSaSJ5p+sPZQZGYbaGYbaVp4tvpE94UNPFt9InvCgZmG2lnYcPJ3T4UNPFt9InvClmmiMEmkieafrD2UGXcPbRS9fF+tT3hRQfWYbaGYbaGYbaGYbaCb6R2HzV5r+xrv7l67eJXtvYYZcXV3J1cMUZZ22k6D9w51xOkdh81ea/sa7+5etzNGW8HzTg0lljljb3cYUmNpYUdom085dwOh/bQb2J4rh+D2D3mLX1tY2qEBp7mVY0Uk6DVmIA1Ncw53y0ExBpscsIIsPnSC4lmukREdlDKNxOnMH/iCPVSY9liK+yumD4GbXCUhdWgMcEirBpr5ghliZDzPNWHIkEEGuJfZBxOe2eK3zGigzxTiSS1lEpZbdYWJkinjfU7AdVK9rAhgeU45w8nBQvnHLy3d1bSYxZRm1tI7yWR7hAiwyEhX3E9nIc+zyl9ordixbDsQs0ksL+2uUuYWlgaGVXEqDQFlIPMAkDUe0VHTdG0rYPFh8eNbY4bK1t436mVXElvK7pIXSZW0IcggEHUAhh2V38u4FcZewU2kt7Fc7jLJM4SctI7EaNummlYaAHUFjrqNNumh1as5mcbS+Zn6SZtjON3GHWuE4jdx2syQXV5brE0cEjKrAMu/rTydSSqEDXt0B0Vc+5bmsJp7fF7KVo2nVYOLiV5Wh3bwu5gOxSdSQNOZIHOtDHckSY3mFMQuLvDWjR42ilkwoG+tgpB2Q3Qddi6gnmjHym58xpjlyHJNDjMc+KxEYha3trEUtCDAlxKZNSS53lSx7NuvLsqRtXMn/WrV+vKi/tJgjYsMIGL2HymRrwPEp12mm7zNdezn2dlFlmHBsbhuRg2LWOIGEFZBaXKS7D7DtJ0/31yr/KEd1b3Sm5BM16bzQJsP5t1Gzdz05c92h07NK5WScPzDFeXt5mW0S16vDoLGACGKMusZkP1JZdQNw8olddfMXTmi+uZNurN6Zx7X6LxmG2hmG2hmG2hmG2ihmG2lnYcPJ3T4UzMNtLOw4eTunwoGZhtoZhtoZhtoZhtoJvpHYfNXmv7Gu/uXqinYcPJ3T4VO9I7D5q81/Y139y9UU7Dh5O6fCgZmG2hmG2hmG2hmG2gGYbaWdhw8ndPhTMw20s7Dh5O6fCgZmG2hmG2hmG2hmG2gm+kdh81ea/sa7+5eqKdhw8ndPhU70jsPmrzX9jXf3L1mznb47d5buYssXlva3RQ69bAzs407FYSJsP7Tr+6g7zMNtDMNtT2YFxNcr2yP1N/fC9s+taCz8hl4mPewjYvtAXU66krpuBGmojGvM1Y/ZYjgU1jcYlHc3ujT34lsbdrYas8YbhVZQdEXTSXUOdJG0JD2zTuscZeqMw20s7Dh5O6fCvLsXv8AMv8AZVcLxE4vaTwWU9rI+HYe16L24UKIwzmEnq3Q6lwI9W3DcpXSurLDmme62xYviFlaNdi0EMdlCVit+EDmUM8ZO7rRt3Eleem0nnTXRNOvRfMw20Mw215zBPmi6Tc4urO7ns8NikvUw+MSgm5mWY6tGRqE0Yggqu7UAa86jL8mIJCLfF729uZ4pbmNZJrZUE8aygI7lEChtummm0MCx0OmoRcm0/XWKu8zDbSzsOHk7p8K8fxfCZj0hYpcw4VC94+L2stvM2W7h53jCwbtmIKRHEvkuDr2eVr2125MYzTvxIW0uKz3Sw3RmtJ8MCW1rofyRt5OrXrmI00G99eeu3sqV/6xJNpo9HZhtoZhtrziObGb+6wuSFsUxS3tMWL29zimH8JMf8inB3oI49EDsoDFF1Lac+Rrl4fmTO/9ncTOIcebpVh0ZLCZpIZC4DhAbFFKaa81W4K9vlDtu9Dhm71tmG2lnYcPJ3T4V5pZXmdcUy7E01/ieH3MNpeyl47GMtcOki9Qr9bbr2oTyEcZPsBBr0ZZGkw4PKNsjRasNNNDpzq0slWdmG2hmG2hmG2hmG2oqb6R2HzV5r+xrv7l6op2HDyd0+FTvSOw+avNf2Nd/cvVFOw4eTunwoGZhtoZhtoZhtoZhtoBmG2lnYcPJ3T4UzMNtLOw4eTunwoGZhtoZhtoZhtoZhtoBmG2lnYcPJ3T4UzMNtLOw4eTunwoJ3pHYfNXmv7Gu/uXrq4rhcWKNYyPPNBJY3S3MTxBddwVlKncpGhV2B00PPkQedcrpHYfNXmv7Gu/uXqkZhtoBmG2pTGBkvH8Wl+VbzCMRu8KgkWSzuJIZeGJKsXZG1KMNvI8tATVWzDbUBe5IxJ7hrQ39u+GGyv4YJEs9s1sZ2VvLYyHreYPYq9nPUnWmk1NqKDH/wCyCYVcx5mGCLY8QrXC4gIhF1xGoLh+W8jTTXnpWvfPkKTEsKjxA5da+EcYwtZ+oMoQ+Z1IPPQ+rb/urm4jkfGsRt5pLjMdsL6a7W4eWGxmgQARdWFTq7hZUOg11EvPVgQQdBtWGRI7DBeAN/1ultZW4kaDnpbys4J1Ykk7tO3lprzpFiWBMdyHax4jjtpa4UoZLpr6+hS3DydS4SQOdd7klxpyI5jUjcuu7BheQ7fCBPh9hl2G12zGN4YIFQFo/wAroQNOaL5XtVefIVrXGRp7iK8WXFotJYMSgh22hHVreSJJq35TyihU9m3cCOzTm1lgeIjMeKYlcaQ7bXq7dnQGKW5ZFWWdY1ckIRHEoVmDcn7NdSj+ZnlZ4825d5rwXr8QFxbSPPglxGnlQqW1kCqHiJPZpLtJ5EcxpoRr07q5wR0e4uprBg8MkTSyMh3RqdJFJP1QfOHYD21w8cyLFjEdw64g1tdSYgl2k6Ra7U0iDwkE+UrdSD6tDtP1eetcZEvLuO7trvG4JLCSK8it4VsCHQXL726xjIQ+3sGiryJ11prEeyM9ueji8wqPBcPTLF1Zzu88WHW627xyunnMsY5MRpzIHLSkt7vo+xjB0xqOPL5XC7ZR1siwbsNUjVUY8+qI1PLUc9a3rvKUVxfXF0lysTTYjFfNpBz8iAQhCdefZrr6uzT11wp+jm6ucA4TEMbgaW0tYLexks7OS1WNYWDKXCTbmOoHmsgHPQDWkTO+WyCeWcv67LWmQcSvVn4fLl3d40mqSdXA8l+qkNyPbIAUB9fm6+qurh2C22HYW1i0sl7BxDToLpUOwmTrABtUDRW5gnUjlzNcfLGTTl+8W8nvkup+okidlSY7y8gctummlf6oGhY+3l2VVsw21doS9WhZ4Yllf4hecVPPJfSK7LLt2xBV2hV2qOXr56nn21uzsOHk7p8KZmG2lnYcPJ3T4VFTvSOw+avNf2Nd/cvVIzDbU30jsPmrzX9jXf3L1SMw20AzDbSzsOHk7p8KZmG2lnYcPJ3T4UDMw20Mw20Mw20Mw20AzDbSzsOHk7p8KZmG2lnYcPJ3T4UDMw20Mw20Mw20Mw20AzDbSzsOHk7p8KZmG2lnYcPJ3T4UDMw20Mw20Mw20Mw20AzDbSzsOHk7p8KZmG2lnYcPJ3T4UDMw20Mw20Mw20Mw20AzDbSzsOHk7p8KZmG2lnYcPJ3T4UDMw20Mw20Mw20Mw20AzDbSzsOHk7p8KZmG2lnYcPJ3T4UDMw20Mw20Mw20Mw20AzDbSzsOHk7p8KZmG2lnYcPJ3T4UD7h7aKNw9tFB8ZhtoZhtpWni2+kT3hQ08W30ie8KCd6R2HzV5r+xrv7l6op2HDyd0+FTfSPNGeizNQEiEnBrvQbh+pes2c8xXGAZbuLzDsOlxKVUPKF4gI+XnNvkQkd3U/soKBmG2hmG2uJieYnssvRXwsCl3PJHDHZXVxGhWSRwih3QuoGp1JXd+wE8q4P9v8QFxeRT4Rh6jCpIo8TMeLiRozI3k9Uoj1k8kg6P1Z1OgBobLlmG2lnYcPJ3T4VJ32f4rbCzcx2kcsnVX0iw8SATw0mzTXb9blz05a+utDEc6Y5A0cM2GYdBLDevDdpHiLSq8XCPMCjGEHXl2EDmumpB1EmYiKysRM6L1mG2hmG2pDD88z3L2NriGGwW17iCwywQw3hlUxOHZmLdWuhRYzqNNNSo18oGuhma/v4sqs9jdWtniLtEnk3EeupZQyRNIu0yEahN6gFiuoArUxMfiRMS77MNtLOw4eTunwrzqLN+MYelvbubi5liv2S7jxgwRXCRcM8oG62DRPqUJBG0jQAjnuraOecQa3kkbDoeKmsrGSKz+UAYVNzNLGNZOp3AgKpbkw9QHIs0105dTaua0XrMNtDMNtQlz0hYhFYzsmC2RurGG4nv4nxQpGiQuUPVP1X5QnaTowQDlqRrVrDdxT2kcu9F6xA2m4HTUa01ipNpozMw20s7Dh5O6fChp4tvpE94Us00Rgk0kTzT9YeygyMw20Mw20rTxbfSJ7woaeLb6RPeFBO9I7D5q81/Y139y9UU7Dh5O6fCpvpHmjPRZmoCRCTg13oNw/UvVFNNEYJNJE80/WHsoMjMNtDMNtK08W30ie8KGni2+kT3hQMzDbSzsOHk7p8KGni2+kT3hSzTRGCTSRPNP1h7KDIzDbQzDbStPFt9InvChp4tvpE94UE70jsPmrzX9jXf3L1RTsOHk7p8Km+keaM9FmagJEJODXeg3D9S9dvEsRtLHDLi5up0SGOMl27dB+4c6DbZhtoZhtrUxDE7extRNI6MrSxxadai83cIObMB2t2a6nsAJ0B5OIZ4wa3iVcNuI8auXujZra4dcws/XBWZkJd1VSFViQzA8vbyoKFmG2lnYcPJ3T4VyP7W4RDh9vPjF3Fgr3MhiS3xOaOGQyA6FR5RVj+1SwPaCRWKfN2HfKEmHbZjNxvyfu0Xb1htuI17dduzlrpru5aac6DvMw20Mw21x/7YZZezuLpMxYS1vbP1c8wvoykT/wCyx3aA/sNZsUzBYYdl+9xbrVurezjkkcWzqzNs13KOYG7UEaEjn202qb0dJmG2lnYcPJ3T4VwbTONpLHeHGbWfAOEiSaQ4nNAE6tiQG3xyOgGqkaEg/srPd5uy3DhcN5NmDC47a8BW2na9jCTns0RtdGP7qDssw20Mw21xZs34JbfKJxHELfD4sPuVtpZ7yZIo2do0kG1i3scDnpzBrYuMy4Fb3Nraz41h8VxegG1he6QPOD2FFJ1bX9lDR0mYbaWdhw8ndPhXPtsyYHf381hY41h9zeQAmW2hukeSPQ6HcoOo58udb000Rgk0kTzT9YeygyMw20Mw20rTxbfSJ7woaeLb6RPeFBO9I7D5q81/Y139y9UU7Dh5O6fCpvpHmjPRZmoCRCTg13oNw/UvVFNNEYJNJE80/WHsoMjMNtDMNtK08W30ie8KGni2+kT3hQLc3MNtayz3MqQwxIXkkkYKqKBqSSeQAHrqfuekLJiQurZtwMMVIA+UYdTy9m6l6R5oz0WZqAkQk4Nd6DcP1L133a3jt5BEYl8k8lIHqoOE3SLk4r5GZMNk/wDDuFfw1obpCyuV8jFBJ/4cEj+CmqJp4tvpE94UNPFt9InvCg4dhid7d5udOIifCp8OjubWJYCjjVubOW56n2aDT16nsXNFzjlhNbXtjLb/ACRCDx8Aspri5l1IUCMR69mup8k6ac+WunXuIbC4EhuIraYyRGGTrFVt6HtQ69q/s7K+6WtvaSx2whiU722x6AFmJJOg9ZJJPtJpFojl3knWc2hCZ/zja3fRtmWCLCscBlwm6QPLhU0aLrCw1Yso0HtNehsw21M9I80Z6LM1ASIScGu9BuH6l6pGni2+kT3hQMzDbXltsczY9iCwXd5ilultiUjR4kLIJsjMEw0RJbZNo12DVhKPL0EjHs9QaeLb6RPeFSV90i2Fta3U0+G4itqqS8Pc7Yil4UO1hGBJuB7SN6rqASNag4V5iuYbOxa7ujdW1xJY4XDLeRYajTM7XMqzbQUO5gpBCaHaW5L5WhxXmYMfRLOBsTx6KN4LuS3mhwVXuropJGIeui6k9WDuYHyIxoFJKa8+9fZ2hmvbK2lwa4jtuMWO4ubxYXihkWMylBtkJ3qVHlAFNQQGJ0rTsuljLWLqbrDrSW7vQUhghgmtJZpElYAaFZiIwSBqshQjQajlysXnN4t3jbe56ppfLW/l+fBz7nHs9R5tnhmikhhKaRwR28skOnUg6hltGXfv103XAHYCvts8AN6uCRLi1/e3d61lHJPxNukYV23E6bUUag+Tt1JAVdeZJbgw5xxaLMj2uKiC3iaeSKKybDp0ZlAJjKXu828juADs8g+UQSCpBQdKmHQ4fgi4xZzWl1jFtFJtM1uBG0p2gBTLvk5kH8mHKgjdp2VfTePen9SYv7Z/jkWuGi1zvJLY4U81zJdzNPNdYHNDdKjbtSb9W6qaMajbHoTt2A+Uuo2bK0zHh+XbGynlu8Rj6jCZBDc2EZFq3EoJUUCMHRUGvl7mXbu3A863LjpbwvC7WM47avZzy3N1GsT3VrHpFDKY+s1eYA91SWJDaKRoTZJi9pJYyXjSpFaqgkWeSRQjx7Q28c+Q56eVoeR5aaEz0z/xiu0U6Z76tTf1U38vOZMz5iWwxm7tb/EppLeLECyT4YiW1t1cjLA0UmxRIx2gFS7evULppRi+N5ujwGRsHuMXurPiwpvrzDjb3ezqiSoiW0kOwPoN3UesjX61at7nbGbOwe1vYMOt0+So8QuLBMuXdyrtM0rNE7RyFYtNoBZwdSWbT1C2mzzYi4khe0uhZhupbE1MZthKU3bPP6w9um7Zt15a1JjbNcjKE2nOGTlUwzY1jkds2aGd7Pr8OC2b2e2CRzICznrYkkLDavIhQCT5PZp2cTwKBcUzZLcwzXVvf4RF1huy0sbFWuPIUN5KhQV8lQO3U8yScWLZws8VwdYrrAmj6y5snigxeKKRJ4pLmNOtVUdtCu7UBtrKdpIoPSTlPH5cUweeNL2KGKbfA7284uliJ3qIRIzjs/0iKD6qeqK+j1Rxr+R+eNj0zSYn26TXqrcIYfIFh/8ATR//ALRW3Ow4eTunwqLw7pNwnEsKjfBcMu7yTiuCSztJ7SQhhF1modZjFt2j1PyPLTWkuc6X0sZu7V7WPD5obS7jS4t2WUW7uUuAxEmm6PVXLAaKDoQdQ1dPVP8Ay9czx/rHoinpiODq9I7D5q81/Y139y9UjMNtTPSNNE3RZmrbIh1wa700Yc/yL1SNPFt9InvCsNGZhtpZ2HDyd0+FDTxbfSJ7wpZpojBJpInmn6w9lBkZhtoZhtpWni2+kT3hQ08W30ie8KBmYbaWdhw8ndPhQ08W30ie8KWaaIwSaSJ5p+sPZQZGYbaGYbaVp4tvpE94UNPFt9InvCgZmG2lnYcPJ3T4UNPFt9InvClmmiMEmkieafrD2UGRmG2hmG2laeLb6RPeFDTxbfSJ7woGZhtpZ2HDyd0+FDTxbfSJ7wpZpojBJpInmn6w9lBkZhtoZhtpWni2+kT3hQ08W30ie8KBmYbaWdhw8ndPhQ08W30ie8KWaaIwSaSJ5p+sPZQZGYbaGYbaVp4tvpE94UNPFt9InvCgZmG2lnYcPJ3T4UNPFt9InvClmmiMEmkieafrD2UGRmG2hmG2laeLb6RPeFDTxbfSJ7woGZhtpZ2HDyd0+FDTxbfSJ7wpZpojBJpInmn6w9lBl3D20UvXxfrU94UUH1mG2hmG2hmG2hmG2gm+kdh81ea/sa7+5eqKdhw8ndPhU70jsPmrzX9jXf3L1RTsOHk7p8KDHfWtpiFjLaX9vDdW0y7ZIZow6OPYVPIiubHlLLNu1m8GX8KiewJNoyWMYNtq249XovkcyTy05nWuwzDbQzDbQctct4BFdXd1FguHJc3gIuZltEDz69u9tNW1/bWXEcHwq/hkN9h1ncneJtZoFf8AKKu1X5jzgOQPaBW7LNHHHukdUXUDVjpzJ0A/3k6VjvbmC2w+4nuZUhhiiZ5JJGCqigakknkAB66G7SXA7RMajxPfIzQWxtba32oIrZCVLbAFB8rYmupOm0aac9dmfDsPnwpsNnsreSxMYiNq8KmIp2bdhGmmnq00rBc5iwW1xSHC7nF7GHELgBobSS5RZZQddCqE6nsPYPVXRZhtprA5SZYy9DhsVhDgeGR2cM3XxWyWcYjjk/21XTQNzPMc+dbE2G4cIWYWVtuWNEU9SuoWMkxjs7FJJHsJOlbQuYZHljjlR3iIEiq2pQkagEerkQa+zsOHk7p8KCYzTkDBs1mBrxpLfqS52wRQsGLkFm/KRtsckeem1/8AvdlVACJEEQaKoAAHqFa4xSwkhR4723ZJJjAjLKpDSAkFAdebAqwI7dQfZWyzDbSNKQTrcMw20s7Dh5O6fCvlxcw21tJNcSpFFGu55JG2qoHrJPYK+zsOHk7p8KBmYbaGYbaGYbaGYbaCb6R2HzV5q5/6mu/uXrvXFwDbyrb9XPNsbZCZNu86dmvq/f6qnek+C3u+ifNMdzDHMi4TcyBZEDAMsbMraH1hgCD6iAa37PKmWcHuFvcLy7hVncwglJrayjjddQQdGVdRqCR/voPmCY+t5l2zu8YltLS7mj3SRJL5KncR5JbQkcu3QfuFbcmYMHRTvxayX99wg/8AzWvJlbL8kcSz4PY3HUpsja4gWVlXUtpuYE6asTpr66b+zOXkXyMDw1f3WcY//FASZqy8infjuGr++7jH/wCawXGdMrLBIGzJhAO09t9F7O9W78h4Oi+Rhdkv7rZB/wDiuF0hWFjF0XZpaK0t0YYNdkFYgND1L/soKxmG2hmG2hmG2hmG2gm+kdh81ea/sa7+5etzNGW8HzTg0lljljb3cYUmNpYUdom085dwOh/bWn0jsPmrzX9jXf3L1RTsOHk7p8KDk4ll6zuMvwYThyw4dbW9xbzRxwQAIgimSXaFGgAOzT9muvPsqdGQb5cPxC2bGLGeG7nVxY3eHPc2QjBY7DDLOxHNgRsdFBRdF7QbpmG2hmG2mfnaB51d9FjPYWiWOLx2k0KTRyJDHcwW2yVgxSOKC5jKICOSl2H7NeddeTI8YdpDfERi9F51aREaAWPCbAxYn/vbjqfVz7armYbaWdhw8ndPhTaYItNUBg3Rk+FyW5uMXW6S0lt2g3LdOypE2oQ9dcyKPV5ioAR2achWY9hMmO5VxPCJ7mNGvoJYBKICVRX1C6oW8rQEa8xroezXQdVmG2hmG2msUItNYQFh0bHDkuJ7W4wWwu2aB4RheC8Nb7onLq0sXWsZDzI1DKQOznzrZuMl4klvNcW2NWa311FcR30kmGF4pFlIJ6qPrQYyNo7WcHtYE1bMw20s7Dh5O6fCmfZn0h8U6OOKikNji8ttOLxLmByZ12AWyW5VjDNE7EhNdQw7dCD69a46M7qV8PCY7HDb2iQB4o4bkdY0Uhk114ny1LeqYSkanQjWvQ2YbaGYbatZrVKWo4VhltLC5spxchzatdtoItN3ES9YeevLTs/b28q7c7Dh5O6fCmZhtpZ2HDyd0+FRTMw20Mw20Mw20Mw20E30jsPmrzX9jXf3L1RTsOHk7p8Knekdh81ea/sa7+5eqKdhw8ndPhQMzDbQzDbQzDbQzDbQTfSOw+avNf2Nd/cvVFOw4eTunwqd6R2HzV5r+xrv7l6op2HDyd0+FAzMNtDMNtDMNtDMNtAMw20s7Dh5O6fCmZhtpZ2HDyd0+FBO9I7D5q81/Y139y9dy6xGytJbeG7u4IJbp+rgjlkCtM2mu1QfOOgJ0FcPpHYfNXmv7Gu/uXrJmq6t4psDhlnjSWbFIhEjMA0mgYnQevQc+VN4jjMR9zQ2meET0hQMw21PTZKy+eLma1mczrJrG93M0abm3N1cZfbHqw1OwDX/AH1Qsw20s7Dh5O6fCg48+VMFmxr5VkgmNz1nWleKlEJfZs3mHd1Zbby3FddPXS2uUMGstvVC+kVJEljjuMSuZkiZDquxHkKoBr2KANOXYK7jMNtDMNtItoTfVxIco4Ja4lx8MNwJBI0ywm8ma3SRtdXWAv1asSSdQoOpJ7Sa0m6P8uQwJ1cF6qwRKix/KdzsYISyb16zR9pPIsDpoAOQGlQzDbSzsOHk7p8KaDhXGTMEmViBfwM00s5e2xO5hbdI25wGSQEKW57PNB5ga12Y4IoEkCNKd5BPWSs/YoXluJ05Adnr1PaSazMw20Mw202ob1SFp0eYWuG20OKT3VzcQWqWTS2l7c2iTwoW6tZI0l2vorEEnXXU8gDoOnNlPBPlB8RFq4mAL9ULiUQbtmzf1G7q923lu26/truMw20s7Dh5O6fChq4VtkvALKB44bad1ZoWAnvJpur6pxJGqb3OxFYA7F0Xl2V9lybgknGb1vTHeK6y2/ylc9Tox1JWLrNiHXmCoBB5jSu8zDbQzDbQcawytg+FyLLax3DzJN1wlubyady+wx6lpHYnyCV5ns09grkX2SXaaZrTEY7ay/yJUtlt2YpDbSNLs3mTmzO3naaBRptJ8qrBmG2lnYcPJ3T4U3qbUTvSOw+avNf2Nd/cvVIzDbU30jsPmrzX9jXf3L1SMw20AzDbSzsOHk7p8KZmG2lnYcPJ3T4UDMw20Mw20Mw20Mw20AzDbSzsOHk7p8KZmG2lnYcPJ3T4UDMw20Mw20Mw20Mw20AzDbSzsOHk7p8KZmG2lnYcPJ3T4UDMw20Mw20Mw20Mw20AzDbSzsOHk7p8KZmG2lnYcPJ3T4UDMw20Mw20Mw20Mw20AzDbSzsOHk7p8KZmG2lnYcPJ3T4UDMw20Mw20Mw20Mw20AzDbSzsOHk7p8KZmG2lnYcPJ3T4UDMw20Mw20Mw20Mw20AzDbSzsOHk7p8KZmG2lnYcPJ3T4UD7h7aKNw9tFB8ZhtoZhtpWni2+kT3hQ08W30ie8KCd6R2HzV5r+xrv7l6zZzwW7zBlu5ssPxW4w6RkPOJYysvLzW3xvoO7of21r9I80Z6LM1ASIScGu9BuH6l6oppojBJpInmn6w9lBM5wS8sslw28V5iF7ccXaxPLFMlvcXCtOgZQ6BFVmUkcto59o7anrrCsxHDYFksswTW+24FrawY0I7m0csOqaeXrh1oA3fXk010IbtHpLTxbfSJ7woaeLb6RPeFTjnDOWxmZ7vLsQwDNF3fYkL22xO+tuutJwUvzAZXjmiLCEC62BdokI1SE+brvPMYLrBM53t1mYTW18LS+w6/gSG4uw8byOPyOzW5ZQORA0hh0DAHdzNesNPFt9InvClmmiMEmkieafrD2VrTr1WJpNcsj2tsSw+8xGxTLIxSPEbuO5F7LND1CjRBpMGbrNU2eTtRxoE5jnpzWwvNJnxDhY8Vgu2iuRNdz4oHt7rc35IW8fWN1LAaaNsTbodd3bXojTxbfSJ7woaeLb6RPeFTbozEUimZkPKL3L+aDhd22C2eM2MEuIpK1pdX/AF93JEIAvpUvEbQSDXQz66aciPJq9wCO+iwOIYwLtr0WaLNLOVUMQX8nYssgDD1nU66r5Tacu008W30ie8KWaaIwSaSJ5p+sPZTirz05Uxu0usNewhTh5sXmur+EyqphO+YpOvt3K6Kw7eSHTk2rwWma8WsIba/tcUw1Y7ext53OIoJJmSbW4kVo5CQCn1tQ558gQK9BaeLb6RPeFDTxbfSJ7wp6bfdSb/n9ecX+VMejwq7itZsUuzcW+IW7R3GJmUGMt/kwAkYqG26eWQW/2ya1MXwfNs2AyLg8WM2dnxYc2F3iBuLtk6ognrVvEITfodvX+o8tDtr1Jp4tvpE94Us00Rgk0kTzT9YeypQzP4lMo4ZjUN7Ne5iuL55ODgiiWafagOhMmsKyyIG1CjcWY8uTczrXsw20rTxbfSJ7woaeLb6RPeFamapEUhO9I7D5q81/Y139y9UU7Dh5O6fCpvpHmjPRZmoCRCTg13oNw/UvVFNNEYJNJE80/WHsqKyMw20Mw20rTxbfSJ7woaeLb6RPeFAzMNtTnSMw+azNf2NefcPVC08W30ie8KnOkaaM9FuagJEJODXmg3D9S9BSsw20Mw20rTxbfSJ7woaeLb6RPeFBO9I7D5q81/Y139y9Zs549d4Blu5vcPwu4xGRUPKIxhYuXnNvkTUd3U/srX6R5oz0WZqAkQk4Nd6DcP1L1nmzzlIwSAZowUnaf9YRezvUD4zjU1rlu3v3tbqyllu7WJrd3i6yPrLhIyGI6xOxuehPLsIPMTpzfiWO4gmC6tlu4a9MLyqC84QI7IFE8ITc5jbmolTRW0YnmO7c5xyXdQ9Xc5jwGZA6uFkvoWAZWDKdC3aCAQfUQDXN47ovXDbqwS6yiLO7kEtxbiS26uZ9ddzr2MdQOZpn55XZmXNC4RbXNrc4lHjL2Vpd3Ml2SkTfkGTWNwo27gHALAKOXmiuZi+fMW666sbPCoLadZbbqDdTTL18TzRo7AmDYR+UA8h3I3asFPk1u3F/0YXNlaWlxd5Slt7H81heS2ZLfuKeS/7tKWe/6MWivjxWUma+UcUesttbgqdV3/7WhAI110NI1iqTpYXOf7u2tbi9mwaFrJorp7IxX26aYwE6rIhjAj10PMM2h0B0Jpv7b4pbXzQYxgVtbww3YtLiW2xBpiHaHrVKKYl3DaQDqVIPYG7ayLi3RtFdXl3Ff5VS5vlKXUyzWwe4U9odtdWH7DrW3JmvIzuZGx7LzSGUTFjeQE9YF2h9dfOCjTXt05VLnFwbHpMxHEbBJIssSxzXMsCWouDcwQsJToN0klsvlDtIQSDTsY+ukzbiN9h+QcbvoStveW9nO8LRMJNpAbYfKUDXTQ6EaA8uY5nlWl/0YYdNJPh13lK0mlcSPJBJbIzsDqGJHMkEk6/trcuc1ZGlwu5s3x3Lz206ydbAbyApJv1LarrodxJJ17dTVn/zTci3qq4OHZoxvC7q7ssRhxS5uZEtuDhxx7OJmeSRkJ6y0DKqDRe1S2vYDqBXRkzxiTRyQW2DWT31ok8l9HJiZSJFiYA9XJ1RMhO4dqoB2MQa+W950XWWG3VhZXGULezu9OIt4XtVjm07N6jk3++mnvujC4w+1sZ7rKMtpZnda27yWxjgOuuqKeS/7qXzNuvJMz36c2hd9Id3YyX7W9jNiRmxGOGygMMo6qM2cUx3dTDK/azfUPM9oA5ZMS6SpbZ7BRgVx1N0kIuTKs6yWzSvsAKCEhdOR/KtFqDy15gdHEMb6OsUtp4MSxPK95DcSCWaO4uLeRZHAChmBJ1IAA1PPQAVqzXXRa3UzCfKBmtIeqtn32u6FBroqHtUDU8h7au/1+LtmroYRmq/xHGUtrvCoLazuDdLbXEd6ZJGMEojO+MxqF17RozftqnZhtqbXNmR4ijRY/l9GjLlCt7ACu86vpz5anmfaaztnrKW36U4L8Qi/FUGDpHYfNXmv7Gu/uXqinYcPJ3T4VCdIGc8r3XRpma3tcyYRNNLhF0kccd9EzOxhYAABtSSfVVzNNEYJNJE80/WHsoMjMNtDMNtK08W30ie8KGni2+kT3hQTvSOw+avNf2Nd/cvVFOw4eTunwqb6R5oz0WZqAkQk4Nd6DcP1L1RTTRGCTSRPNP1h7KDIzDbQzDbStPFt9InvChp4tvpE94UDMw20s7Dh5O6fChp4tvpE94Us00Rgk0kTzT9Yeygn+kdh81ea/sa7+5eqRmG2pnpHmjPRZmoCRCTg13oNw/UvVI08W30ie8KBmYbaWdhw8ndPhQ08W30ie8KWaaIwSaSJ5p+sPZQZGYbaGYbaVp4tvpE94UNPFt9InvCgZmG2lnYcPJ3T4UNPFt9InvClmmiMEmkieafrD2UGRmG2hmG2laeLb6RPeFDTxbfSJ7woGZhtpZ2HDyd0+FDTxbfSJ7wpZpojBJpInmn6w9lBkZhtoZhtpWni2+kT3hQ08W30ie8KBmYbaWdhw8ndPhQ08W30ie8KWaaIwSaSJ5p+sPZQT/SOw+avNf2Nd/cvVIzDbUz0jzRnoszUBIhJwa70G4fqXqkaeLb6RPeFAzMNtLOw4eTunwoaeLb6RPeFLNNEYJNJE80/WHsoMjMNtDMNtK08W30ie8KGni2+kT3hQMzDbSzsOHk7p8KGni2+kT3hSzTRGCTSRPNP1h7KDIzDbQzDbStPFt9InvChp4tvpE94UDMw20s7Dh5O6fChp4tvpE94Us00Rgk0kTzT9YeygyMw20Mw20rTxbfSJ7woaeLb6RPeFAzMNtLOw4eTunwoaeLb6RPeFLNNEYJNJE80/WHsoMjMNtDMNtK08W30ie8KGni2+kT3hQMzDbSzsOHk7p8KGni2+kT3hSzTRGCTSRPNP1h7KDIzDbQzDbStPFt9InvChp4tvpE94UDMw20s7Dh5O6fChp4tvpE94Us00Rgk0kTzT9YeygyMw20Mw20rTxbfSJ7woaeLb6RPeFAzMNtLOw4eTunwoaeLb6RPeFLNNEYJNJE80/WHsoMu4e2il6+L9anvCig+sw20Mw20Mw20Mw20E30jsPmrzX9jXf3L1s5tzLb5YwGa9uLe6uPJIVLe1ll1On1jGjbB+1tBWt0jsPmrzX9jXf3L13ryOG4sZobiNJY3QhkddysNPWDQaF5mG2tsBTE0t7yZZmRIbbh2inkdmCquyXZtJJ+ttA7SQK5P9vYusdJsv4zALcqL55Y4QtlubRS56zyxp5WsW8AHnp2VQYph1pi+HSWd+jPC5B8iRo2UgghlZSGVgQCCCCCOVcWPIGW4JlnjtrrrN6ySs+IXDcSytqpn1kPXkerrN2gAA5ACkak6WZbzOmH2mGtePBdOgjupNqIpYi3fa487tJ7P/fSubfZ+kjWKM5fxKB+Le2u4pzBvhUWzTBxtlKsCAOwk8m5a6A9L+xGXhcXVwbSZnullR1e8mZFErbpAiF9se48zsA1NbGLZbwnE1lku4JC7Si4LR3EkZLiMxgnaw5bCVK9hB5g1JrSyxSt2nYZ4s7+O3ElhfWc90Yeot7gR9ZIku8q42uw02xuxGuoCnlryrcx/EsStcsSXmFWLNeaITDJH1rQqSN7FEYdYVXU7EbVtNFOpFY0y3DHmK0xLrI+ow+zNpZW6xENGDpuLOWO/koC8hpq/M7uW7f4PYYjg4w29SSW3UJtJmfrFKkFWEmu8MCAQ2u7XnrrWvVTZPTXdJW+fbuG3tVu4RiTtetBcSW9lJYvDGIHlDNb3DB1PknTQsGAJGh0Wtts/RvazTthmIAPaWs0Nl1MQnbiJZI0O7rtnPYDodu0dp1JC9I5MwLglt2iupAk/EdbLf3Dys+wp5UrOXYbWK7WJGh00rYly5hAQyC18pIYIlPWPyWBmeIdv1WYn9uvPWlt+XnwbWy/ZyJukO2SyMq4Hi8ssKTS3dsiwGSzSJyjM/5Xa3NToIy5OnIVVxzpPbpKmoV1DAHt0POo3NnR6mP6fJ2I/JqSLMlyu2VutErBm8yVNeevkvvj5+Z7bNFSKBY081FCj9wqR/5vqTrbQzMNtLOw4eTunwpmYbaWdhw8ndPhQMzDbQzDbQzDbQzDbQTfSOw+avNf2Nd/cvVFOw4eTunwqd6R2HzV5r+xrv7l6op2HDyd0+FAzMNtDMNtDMNtDMNtAMw21OdIzD5rM1/Y159w9UbMNtTnSMw+azNf2NefcPQUbMNtDMNtcJs9ZS2/SjBviEX4qGz1lLb9KMG+IRfioO5JteNlYAgjQgjtrWms7Ph5P8mh80/6Mez91cxs9ZS2/SjBviEX4qWbPOUzBIBmfBidp/v8Xs71B2Gs7Pb+bQ/wx/KhrOz2/m0P8MfyrktnrKW36UYN8Qi/FQ2espbfpRg3xCL8VB1ms7Pb+bQ/wx/Kkms7Ph5P8mh80/6Mez91cxs9ZS2/SjBviEX4qWbPOUzBIBmfBidp/v8AF7O9QdhrOz2/m0P8Mfyoazs9v5tD/DH8q5LZ6ylt+lGDfEIvxUNnrKW36UYN8Qi/FQdZrOz2/m0P8MfypJrOz4eT/JofNP8Aox7P3VzGz1lLb9KMG+IRfipZs85TMEgGZ8GJ2n+/xezvUHYazs9v5tD/AAx/KhrOz2/m0P8ADH8q5LZ6ylt+lGDfEIvxUNnrKW36UYN8Qi/FQdZrOz2/m0P8MfypJrOz4eT/ACaHzT/ox7P3VzGz1lLb9KMG+IRfipZs85TMEgGZ8GJ2n+/xezvUHYazs9v5tD/DH8qGs7Pb+bQ/wx/KuS2espbfpRg3xCL8VDZ6ylt+lGDfEIvxUHWazs9v5tD/AAx/Kss7Dh5O6fCuI2espbfpRg3xCL8VLNnnKZgkAzPgxO0/3+L2d6g77MNtDMNtcJs9ZS2/SjBviEX4qGz1lLb9KMG+IRfioMHSOw+avNf2Nd/cvVFOw4eTunwqE6QM5ZYuujTM1va5jwmaaXCLpI4476NmdjCwAADakk+qrudhw8ndPhQMzDbQzDbQzDbQzDbQDMNtLOw4eTunwpmYbaWdhw8ndPhQcvNuGTY7krG8ItHjS4xDD57WJpSQis8bKCxAJ01PPQGtFsQztt+j2X/j0/8AR1SMw20Mw20E22IZ22/R7L/x6f8Ao6WbEM7dQ+uX8v6bT/r2f2f/AEdUzMNtLOw4eTunwoJ1sQztt+j2X/j0/wDR0NiGdtv0ey/8en/o6pGYbaGYbaCbbEM7bfo9l/49P/R0s2IZ26h9cv5f02n/AF7P7P8A6OqZmG2lnYcPJ3T4UE62IZ22/R7L/wAen/o6GxDO236PZf8Aj0/9HVIzDbQzDbQTbYhnbb9Hsv8Ax6f+jpZsQzt1D65fy/ptP+vZ/Z/9HVMzDbSzsOHk7p8KCdbEM7bfo9l/49P/AEdDYhnbb9Hsv/Hp/wCjqkZhtoZhtoJtsQztt+j2X/j0/wDR0s2IZ26h9cv5f02n/Xs/s/8Ao6pmYbaWdhw8ndPhQReZIM7Zgyri2DfIuX7f5RsprXrvlud+r6xCu7bwg101101FWzMNtDMNtDMNtAMw20s7Dh5O6fCmZhtpZ2HDyd0+FAzMNtDMNtDMNtDMNtAMw20s7Dh5O6fCmZhtpZ2HDyd0+FAzMNtDMNtDMNtDMNtAMw20s7Dh5O6fCmZhtpZ2HDyd0+FAzMNtDMNtDMNtDMNtAMw20s7Dh5O6fCmZhtpZ2HDyd0+FAzMNtDMNtDMNtDMNtAMw20s7Dh5O6fCmZhtpZ2HDyd0+FAzMNtDMNtDMNtDMNtAMw20s7Dh5O6fCmZhtpZ2HDyd0+FAzMNtDMNtDMNtDMNtAMw20s7Dh5O6fCmZhtpZ2HDyd0+FA+4e2ijcPbRQfGYbaGYba+t5pobzTQa2JWVrimF3WH38YmtbuFoJoySN6MCrDUc+YJ7K4M2RMBEDkfKfmn/XF37P/ABap2800s/5vJ3T4UE42Q8B2/wCs/jF3/wA2hsh4Dt/1n8Yu/wDm1St5pobzTQTTZDwHb/rP4xd/82lmyJgIgcj5T80/64u/Z/4tU7eaaWf83k7p8KCcbIeA7f8AWfxi7/5tDZDwHb/rP4xd/wDNqlbzTQ3mmgmmyHgO3/Wfxi7/AObSzZEwEQOR8p+af9cXfs/8WqdvNNLP+byd0+FBONkPAdv+s/jF3/zaGyHgO3/Wfxi7/wCbVK3mmhvNNBNNkPAdv+s/jF3/AM2lmyJgIgcj5T80/wCuLv2f+LVO3mmln/N5O6fCgnGyHgO3/Wfxi7/5tDZDwHb/AKz+MXf/ADapW800N5poJa56PMt3VrLBcxYhNDKhSSOTFrtldSNCCDLoQR6qpp2HDyd0+FO3mmln/N5O6fCg+sw20Mw219bzTQ3mmg+Mw20lxta1lVtCChBBHbyrI3mmln/N5O6fCgwtZ2e382h/hj+VDWdnt/Nof4Y/lWw3mmhvNNBrtZ2e382h/hj+VJNZ2fDyf5ND5p/0Y9n7q22800s/5vJ3T4UGFrOz2/m0P8Mfyoazs9v5tD/DH8q2G800N5poNdrOz2/m0P8ADH8qSazs+Hk/yaHzT/ox7P3Vtt5ppZ/zeTunwoMLWdnt/Nof4Y/lQ1nZ7fzaH+GP5VsN5pobzTQa7Wdnt/Nof4Y/lSTWdnw8n+TQ+af9GPZ+6ttvNNLP+byd0+FBhazs9v5tD/DH8qGs7Pb+bQ/wx/KthvNNDeaaDXazs9v5tD/DH8qSazs+Hk/yaHzT/ox7P3Vtt5ppZ/zeTunwoMLWdnt/Nof4Y/lQ1nZ7fzaH+GP5VsN5pobzTQa7Wdnt/Nof4Y/lSTWdnw8n+TQ+af8ARj2furbbzTSz/m8ndPhQYWs7Pb+bQ/wx/KhrOz2/m0P8MfyrYbzTQ3mmg12s7Pb+bQ/wx/Kss7Dh5O6fCnbzTSz/AJvJ3T4UH1mG2hmG2vreaaG800HxmG2lnYcPJ3T4U7eaaWf83k7p8KD6zDbQzDbX1vNNDeaaD4zDbSzsOHk7p8KdvNNLP+byd0+FB9ZhtoZhtr63mmhvNNB8ZhtpZ2HDyd0+FO3mmln/ADeTunwoPrMNtDMNtfW800N5poPjMNtLOw4eTunwp2800s/5vJ3T4UH1mG2hmG2vreaaG800HxmG2lnYcPJ3T4U7eaaWf83k7p8KD6zDbQzDbX1vNNDeaaD4zDbSzsOHk7p8KdvNNLP+byd0+FB9ZhtoZhtr63mmhvNNB8ZhtpZ2HDyd0+FO3mmln/N5O6fCg+sw20Mw219bzTQ3mmg+Mw20s7Dh5O6fCnbzTSz/AJvJ3T4UH1mG2hmG2vreaaG800HxmG2lnYcPJ3T4U7eaaWf83k7p8KD6zDbQzDbX1vNNDeaaD4zDbSzsOHk7p8KdvNNLP+byd0+FB9ZhtoZhtr63mmhvNNB8ZhtpZ2HDyd0+FO3mmln/ADeTunwoPrMNtDMNtfW800N5poPjMNtLOw4eTunwp2800s/5vJ3T4UDbh7aK+0UH/9k=;" vertex="1" parent="WIyWlLk6GJQsqaUBKTNV-1">
          <mxGeometry x="290" y="100" width="772" height="511" as="geometry" />
        </mxCell>
      </root>
    </mxGraphModel>
  </diagram>
</mxfile>
